<?xml version="1.0" encoding="utf-8" standalone="no"?>
<!DOCTYPE svg PUBLIC "-//W3C//DTD SVG 1.1//EN"
  "http://www.w3.org/Graphics/SVG/1.1/DTD/svg11.dtd">
<!-- Created with matplotlib (https://matplotlib.org/) -->
<svg height="345.6pt" version="1.1" viewBox="0 0 460.8 345.6" width="460.8pt" xmlns="http://www.w3.org/2000/svg" xmlns:xlink="http://www.w3.org/1999/xlink">
 <defs>
  <style type="text/css">
*{stroke-linecap:butt;stroke-linejoin:round;white-space:pre;}
  </style>
 </defs>
 <g id="figure_1">
  <g id="patch_1">
   <path d="M 0 345.6 
L 460.8 345.6 
L 460.8 0 
L 0 0 
z
" style="fill:#ffffff;"/>
  </g>
  <g id="axes_1">
   <g id="patch_2">
    <path d="M 57.6 307.584 
L 414.72 307.584 
L 414.72 41.472 
L 57.6 41.472 
z
" style="fill:#ffffff;"/>
   </g>
   <g id="PathCollection_1">
    <defs>
     <path d="M 0 3 
C 0.795609 3 1.55874 2.683901 2.12132 2.12132 
C 2.683901 1.55874 3 0.795609 3 0 
C 3 -0.795609 2.683901 -1.55874 2.12132 -2.12132 
C 1.55874 -2.683901 0.795609 -3 0 -3 
C -0.795609 -3 -1.55874 -2.683901 -2.12132 -2.12132 
C -2.683901 -1.55874 -3 -0.795609 -3 0 
C -3 0.795609 -2.683901 1.55874 -2.12132 2.12132 
C -1.55874 2.683901 -0.795609 3 0 3 
z
" id="m43a97011ce" style="stroke:#000000;"/>
    </defs>
    <g clip-path="url(#ped7fd98305)">
     <use style="fill:#1f77b4;stroke:#000000;" x="74.031083" xlink:href="#m43a97011ce" y="180.837565"/>
     <use style="fill:#1f77b4;stroke:#000000;" x="79.991184" xlink:href="#m43a97011ce" y="167.542097"/>
     <use style="fill:#1f77b4;stroke:#000000;" x="82.97529" xlink:href="#m43a97011ce" y="158.996851"/>
     <use style="fill:#1f77b4;stroke:#000000;" x="86.801525" xlink:href="#m43a97011ce" y="144.800849"/>
     <use style="fill:#1f77b4;stroke:#000000;" x="101.883681" xlink:href="#m43a97011ce" y="123.80674"/>
     <use style="fill:#1f77b4;stroke:#000000;" x="104.275862" xlink:href="#m43a97011ce" y="109.194702"/>
     <use style="fill:#1f77b4;stroke:#000000;" x="106.246254" xlink:href="#m43a97011ce" y="94.899832"/>
     <use style="fill:#1f77b4;stroke:#000000;" x="107.846371" xlink:href="#m43a97011ce" y="100.199686"/>
     <use style="fill:#1f77b4;stroke:#000000;" x="116.636227" xlink:href="#m43a97011ce" y="99.249492"/>
     <use style="fill:#1f77b4;stroke:#000000;" x="120.033236" xlink:href="#m43a97011ce" y="103.047752"/>
     <use style="fill:#1f77b4;stroke:#000000;" x="122.121923" xlink:href="#m43a97011ce" y="101.223932"/>
     <use style="fill:#1f77b4;stroke:#000000;" x="129.689177" xlink:href="#m43a97011ce" y="81.781335"/>
     <use style="fill:#1f77b4;stroke:#000000;" x="135.077299" xlink:href="#m43a97011ce" y="97.76968"/>
     <use style="fill:#1f77b4;stroke:#000000;" x="138.960627" xlink:href="#m43a97011ce" y="106.595216"/>
     <use style="fill:#1f77b4;stroke:#000000;" x="141.043348" xlink:href="#m43a97011ce" y="102.110238"/>
     <use style="fill:#1f77b4;stroke:#000000;" x="165.964713" xlink:href="#m43a97011ce" y="131.789125"/>
     <use style="fill:#1f77b4;stroke:#000000;" x="168.369016" xlink:href="#m43a97011ce" y="153.39672"/>
     <use style="fill:#1f77b4;stroke:#000000;" x="170.283844" xlink:href="#m43a97011ce" y="153.967145"/>
     <use style="fill:#1f77b4;stroke:#000000;" x="173.143036" xlink:href="#m43a97011ce" y="163.457633"/>
     <use style="fill:#1f77b4;stroke:#000000;" x="176.78051" xlink:href="#m43a97011ce" y="177.637057"/>
     <use style="fill:#1f77b4;stroke:#000000;" x="177.466398" xlink:href="#m43a97011ce" y="185.694158"/>
     <use style="fill:#1f77b4;stroke:#000000;" x="187.319637" xlink:href="#m43a97011ce" y="203.107681"/>
     <use style="fill:#1f77b4;stroke:#000000;" x="204.112805" xlink:href="#m43a97011ce" y="236.351381"/>
     <use style="fill:#1f77b4;stroke:#000000;" x="210.755244" xlink:href="#m43a97011ce" y="239.717871"/>
     <use style="fill:#1f77b4;stroke:#000000;" x="210.847987" xlink:href="#m43a97011ce" y="237.80074"/>
     <use style="fill:#1f77b4;stroke:#000000;" x="211.467715" xlink:href="#m43a97011ce" y="237.828099"/>
     <use style="fill:#1f77b4;stroke:#000000;" x="212.095116" xlink:href="#m43a97011ce" y="243.786251"/>
     <use style="fill:#1f77b4;stroke:#000000;" x="220.879508" xlink:href="#m43a97011ce" y="246.685733"/>
     <use style="fill:#1f77b4;stroke:#000000;" x="248.844239" xlink:href="#m43a97011ce" y="247.119997"/>
     <use style="fill:#1f77b4;stroke:#000000;" x="250.697622" xlink:href="#m43a97011ce" y="228.189746"/>
     <use style="fill:#1f77b4;stroke:#000000;" x="257.21497" xlink:href="#m43a97011ce" y="222.961377"/>
     <use style="fill:#1f77b4;stroke:#000000;" x="293.872274" xlink:href="#m43a97011ce" y="144.810327"/>
     <use style="fill:#1f77b4;stroke:#000000;" x="298.710165" xlink:href="#m43a97011ce" y="128.014327"/>
     <use style="fill:#1f77b4;stroke:#000000;" x="299.130407" xlink:href="#m43a97011ce" y="131.695241"/>
     <use style="fill:#1f77b4;stroke:#000000;" x="300.893518" xlink:href="#m43a97011ce" y="118.407635"/>
     <use style="fill:#1f77b4;stroke:#000000;" x="301.03962" xlink:href="#m43a97011ce" y="114.989573"/>
     <use style="fill:#1f77b4;stroke:#000000;" x="310.222789" xlink:href="#m43a97011ce" y="93.626802"/>
     <use style="fill:#1f77b4;stroke:#000000;" x="319.353251" xlink:href="#m43a97011ce" y="111.553241"/>
     <use style="fill:#1f77b4;stroke:#000000;" x="320.002149" xlink:href="#m43a97011ce" y="111.37157"/>
     <use style="fill:#1f77b4;stroke:#000000;" x="332.836412" xlink:href="#m43a97011ce" y="98.898856"/>
     <use style="fill:#1f77b4;stroke:#000000;" x="336.596418" xlink:href="#m43a97011ce" y="94.428482"/>
     <use style="fill:#1f77b4;stroke:#000000;" x="347.707669" xlink:href="#m43a97011ce" y="97.280322"/>
     <use style="fill:#1f77b4;stroke:#000000;" x="361.403933" xlink:href="#m43a97011ce" y="123.360169"/>
     <use style="fill:#1f77b4;stroke:#000000;" x="361.970721" xlink:href="#m43a97011ce" y="143.314783"/>
     <use style="fill:#1f77b4;stroke:#000000;" x="361.978942" xlink:href="#m43a97011ce" y="129.496809"/>
     <use style="fill:#1f77b4;stroke:#000000;" x="367.378335" xlink:href="#m43a97011ce" y="131.579015"/>
     <use style="fill:#1f77b4;stroke:#000000;" x="371.965952" xlink:href="#m43a97011ce" y="146.739079"/>
     <use style="fill:#1f77b4;stroke:#000000;" x="388.131846" xlink:href="#m43a97011ce" y="181.622253"/>
     <use style="fill:#1f77b4;stroke:#000000;" x="391.533341" xlink:href="#m43a97011ce" y="197.739246"/>
     <use style="fill:#1f77b4;stroke:#000000;" x="398.288917" xlink:href="#m43a97011ce" y="213.07549"/>
    </g>
   </g>
   <g id="matplotlib.axis_1">
    <g id="xtick_1">
     <g id="line2d_1">
      <defs>
       <path d="M 0 0 
L 0 3.5 
" id="m1fc716bbd1" style="stroke:#000000;stroke-width:0.8;"/>
      </defs>
      <g>
       <use style="stroke:#000000;stroke-width:0.8;" x="73.993574" xlink:href="#m1fc716bbd1" y="307.584"/>
      </g>
     </g>
     <g id="text_1">
      <!-- 0 -->
      <defs>
       <path d="M 31.78125 66.40625 
Q 24.171875 66.40625 20.328125 58.90625 
Q 16.5 51.421875 16.5 36.375 
Q 16.5 21.390625 20.328125 13.890625 
Q 24.171875 6.390625 31.78125 6.390625 
Q 39.453125 6.390625 43.28125 13.890625 
Q 47.125 21.390625 47.125 36.375 
Q 47.125 51.421875 43.28125 58.90625 
Q 39.453125 66.40625 31.78125 66.40625 
z
M 31.78125 74.21875 
Q 44.046875 74.21875 50.515625 64.515625 
Q 56.984375 54.828125 56.984375 36.375 
Q 56.984375 17.96875 50.515625 8.265625 
Q 44.046875 -1.421875 31.78125 -1.421875 
Q 19.53125 -1.421875 13.0625 8.265625 
Q 6.59375 17.96875 6.59375 36.375 
Q 6.59375 54.828125 13.0625 64.515625 
Q 19.53125 74.21875 31.78125 74.21875 
z
" id="DejaVuSans-48"/>
      </defs>
      <g transform="translate(70.812324 322.182437)scale(0.1 -0.1)">
       <use xlink:href="#DejaVuSans-48"/>
      </g>
     </g>
    </g>
    <g id="xtick_2">
     <g id="line2d_2">
      <g>
       <use style="stroke:#000000;stroke-width:0.8;" x="139.58324" xlink:href="#m1fc716bbd1" y="307.584"/>
      </g>
     </g>
     <g id="text_2">
      <!-- 2 -->
      <defs>
       <path d="M 19.1875 8.296875 
L 53.609375 8.296875 
L 53.609375 0 
L 7.328125 0 
L 7.328125 8.296875 
Q 12.9375 14.109375 22.625 23.890625 
Q 32.328125 33.6875 34.8125 36.53125 
Q 39.546875 41.84375 41.421875 45.53125 
Q 43.3125 49.21875 43.3125 52.78125 
Q 43.3125 58.59375 39.234375 62.25 
Q 35.15625 65.921875 28.609375 65.921875 
Q 23.96875 65.921875 18.8125 64.3125 
Q 13.671875 62.703125 7.8125 59.421875 
L 7.8125 69.390625 
Q 13.765625 71.78125 18.9375 73 
Q 24.125 74.21875 28.421875 74.21875 
Q 39.75 74.21875 46.484375 68.546875 
Q 53.21875 62.890625 53.21875 53.421875 
Q 53.21875 48.921875 51.53125 44.890625 
Q 49.859375 40.875 45.40625 35.40625 
Q 44.1875 33.984375 37.640625 27.21875 
Q 31.109375 20.453125 19.1875 8.296875 
z
" id="DejaVuSans-50"/>
      </defs>
      <g transform="translate(136.40199 322.182437)scale(0.1 -0.1)">
       <use xlink:href="#DejaVuSans-50"/>
      </g>
     </g>
    </g>
    <g id="xtick_3">
     <g id="line2d_3">
      <g>
       <use style="stroke:#000000;stroke-width:0.8;" x="205.172906" xlink:href="#m1fc716bbd1" y="307.584"/>
      </g>
     </g>
     <g id="text_3">
      <!-- 4 -->
      <defs>
       <path d="M 37.796875 64.3125 
L 12.890625 25.390625 
L 37.796875 25.390625 
z
M 35.203125 72.90625 
L 47.609375 72.90625 
L 47.609375 25.390625 
L 58.015625 25.390625 
L 58.015625 17.1875 
L 47.609375 17.1875 
L 47.609375 0 
L 37.796875 0 
L 37.796875 17.1875 
L 4.890625 17.1875 
L 4.890625 26.703125 
z
" id="DejaVuSans-52"/>
      </defs>
      <g transform="translate(201.991656 322.182437)scale(0.1 -0.1)">
       <use xlink:href="#DejaVuSans-52"/>
      </g>
     </g>
    </g>
    <g id="xtick_4">
     <g id="line2d_4">
      <g>
       <use style="stroke:#000000;stroke-width:0.8;" x="270.762572" xlink:href="#m1fc716bbd1" y="307.584"/>
      </g>
     </g>
     <g id="text_4">
      <!-- 6 -->
      <defs>
       <path d="M 33.015625 40.375 
Q 26.375 40.375 22.484375 35.828125 
Q 18.609375 31.296875 18.609375 23.390625 
Q 18.609375 15.53125 22.484375 10.953125 
Q 26.375 6.390625 33.015625 6.390625 
Q 39.65625 6.390625 43.53125 10.953125 
Q 47.40625 15.53125 47.40625 23.390625 
Q 47.40625 31.296875 43.53125 35.828125 
Q 39.65625 40.375 33.015625 40.375 
z
M 52.59375 71.296875 
L 52.59375 62.3125 
Q 48.875 64.0625 45.09375 64.984375 
Q 41.3125 65.921875 37.59375 65.921875 
Q 27.828125 65.921875 22.671875 59.328125 
Q 17.53125 52.734375 16.796875 39.40625 
Q 19.671875 43.65625 24.015625 45.921875 
Q 28.375 48.1875 33.59375 48.1875 
Q 44.578125 48.1875 50.953125 41.515625 
Q 57.328125 34.859375 57.328125 23.390625 
Q 57.328125 12.15625 50.6875 5.359375 
Q 44.046875 -1.421875 33.015625 -1.421875 
Q 20.359375 -1.421875 13.671875 8.265625 
Q 6.984375 17.96875 6.984375 36.375 
Q 6.984375 53.65625 15.1875 63.9375 
Q 23.390625 74.21875 37.203125 74.21875 
Q 40.921875 74.21875 44.703125 73.484375 
Q 48.484375 72.75 52.59375 71.296875 
z
" id="DejaVuSans-54"/>
      </defs>
      <g transform="translate(267.581322 322.182437)scale(0.1 -0.1)">
       <use xlink:href="#DejaVuSans-54"/>
      </g>
     </g>
    </g>
    <g id="xtick_5">
     <g id="line2d_5">
      <g>
       <use style="stroke:#000000;stroke-width:0.8;" x="336.352238" xlink:href="#m1fc716bbd1" y="307.584"/>
      </g>
     </g>
     <g id="text_5">
      <!-- 8 -->
      <defs>
       <path d="M 31.78125 34.625 
Q 24.75 34.625 20.71875 30.859375 
Q 16.703125 27.09375 16.703125 20.515625 
Q 16.703125 13.921875 20.71875 10.15625 
Q 24.75 6.390625 31.78125 6.390625 
Q 38.8125 6.390625 42.859375 10.171875 
Q 46.921875 13.96875 46.921875 20.515625 
Q 46.921875 27.09375 42.890625 30.859375 
Q 38.875 34.625 31.78125 34.625 
z
M 21.921875 38.8125 
Q 15.578125 40.375 12.03125 44.71875 
Q 8.5 49.078125 8.5 55.328125 
Q 8.5 64.0625 14.71875 69.140625 
Q 20.953125 74.21875 31.78125 74.21875 
Q 42.671875 74.21875 48.875 69.140625 
Q 55.078125 64.0625 55.078125 55.328125 
Q 55.078125 49.078125 51.53125 44.71875 
Q 48 40.375 41.703125 38.8125 
Q 48.828125 37.15625 52.796875 32.3125 
Q 56.78125 27.484375 56.78125 20.515625 
Q 56.78125 9.90625 50.3125 4.234375 
Q 43.84375 -1.421875 31.78125 -1.421875 
Q 19.734375 -1.421875 13.25 4.234375 
Q 6.78125 9.90625 6.78125 20.515625 
Q 6.78125 27.484375 10.78125 32.3125 
Q 14.796875 37.15625 21.921875 38.8125 
z
M 18.3125 54.390625 
Q 18.3125 48.734375 21.84375 45.5625 
Q 25.390625 42.390625 31.78125 42.390625 
Q 38.140625 42.390625 41.71875 45.5625 
Q 45.3125 48.734375 45.3125 54.390625 
Q 45.3125 60.0625 41.71875 63.234375 
Q 38.140625 66.40625 31.78125 66.40625 
Q 25.390625 66.40625 21.84375 63.234375 
Q 18.3125 60.0625 18.3125 54.390625 
z
" id="DejaVuSans-56"/>
      </defs>
      <g transform="translate(333.170988 322.182437)scale(0.1 -0.1)">
       <use xlink:href="#DejaVuSans-56"/>
      </g>
     </g>
    </g>
    <g id="xtick_6">
     <g id="line2d_6">
      <g>
       <use style="stroke:#000000;stroke-width:0.8;" x="401.941904" xlink:href="#m1fc716bbd1" y="307.584"/>
      </g>
     </g>
     <g id="text_6">
      <!-- 10 -->
      <defs>
       <path d="M 12.40625 8.296875 
L 28.515625 8.296875 
L 28.515625 63.921875 
L 10.984375 60.40625 
L 10.984375 69.390625 
L 28.421875 72.90625 
L 38.28125 72.90625 
L 38.28125 8.296875 
L 54.390625 8.296875 
L 54.390625 0 
L 12.40625 0 
z
" id="DejaVuSans-49"/>
      </defs>
      <g transform="translate(395.579404 322.182437)scale(0.1 -0.1)">
       <use xlink:href="#DejaVuSans-49"/>
       <use x="63.623047" xlink:href="#DejaVuSans-48"/>
      </g>
     </g>
    </g>
   </g>
   <g id="matplotlib.axis_2">
    <g id="ytick_1">
     <g id="line2d_7">
      <defs>
       <path d="M 0 0 
L -3.5 0 
" id="m5cfecdcf24" style="stroke:#000000;stroke-width:0.8;"/>
      </defs>
      <g>
       <use style="stroke:#000000;stroke-width:0.8;" x="57.6" xlink:href="#m5cfecdcf24" y="296.317884"/>
      </g>
     </g>
     <g id="text_7">
      <!-- −1.5 -->
      <defs>
       <path d="M 10.59375 35.5 
L 73.1875 35.5 
L 73.1875 27.203125 
L 10.59375 27.203125 
z
" id="DejaVuSans-8722"/>
       <path d="M 10.6875 12.40625 
L 21 12.40625 
L 21 0 
L 10.6875 0 
z
" id="DejaVuSans-46"/>
       <path d="M 10.796875 72.90625 
L 49.515625 72.90625 
L 49.515625 64.59375 
L 19.828125 64.59375 
L 19.828125 46.734375 
Q 21.96875 47.46875 24.109375 47.828125 
Q 26.265625 48.1875 28.421875 48.1875 
Q 40.625 48.1875 47.75 41.5 
Q 54.890625 34.8125 54.890625 23.390625 
Q 54.890625 11.625 47.5625 5.09375 
Q 40.234375 -1.421875 26.90625 -1.421875 
Q 22.3125 -1.421875 17.546875 -0.640625 
Q 12.796875 0.140625 7.71875 1.703125 
L 7.71875 11.625 
Q 12.109375 9.234375 16.796875 8.0625 
Q 21.484375 6.890625 26.703125 6.890625 
Q 35.15625 6.890625 40.078125 11.328125 
Q 45.015625 15.765625 45.015625 23.390625 
Q 45.015625 31 40.078125 35.4375 
Q 35.15625 39.890625 26.703125 39.890625 
Q 22.75 39.890625 18.8125 39.015625 
Q 14.890625 38.140625 10.796875 36.28125 
z
" id="DejaVuSans-53"/>
      </defs>
      <g transform="translate(26.317187 300.117102)scale(0.1 -0.1)">
       <use xlink:href="#DejaVuSans-8722"/>
       <use x="83.789062" xlink:href="#DejaVuSans-49"/>
       <use x="147.412109" xlink:href="#DejaVuSans-46"/>
       <use x="179.199219" xlink:href="#DejaVuSans-53"/>
      </g>
     </g>
    </g>
    <g id="ytick_2">
     <g id="line2d_8">
      <g>
       <use style="stroke:#000000;stroke-width:0.8;" x="57.6" xlink:href="#m5cfecdcf24" y="256.008548"/>
      </g>
     </g>
     <g id="text_8">
      <!-- −1.0 -->
      <g transform="translate(26.317187 259.807767)scale(0.1 -0.1)">
       <use xlink:href="#DejaVuSans-8722"/>
       <use x="83.789062" xlink:href="#DejaVuSans-49"/>
       <use x="147.412109" xlink:href="#DejaVuSans-46"/>
       <use x="179.199219" xlink:href="#DejaVuSans-48"/>
      </g>
     </g>
    </g>
    <g id="ytick_3">
     <g id="line2d_9">
      <g>
       <use style="stroke:#000000;stroke-width:0.8;" x="57.6" xlink:href="#m5cfecdcf24" y="215.699213"/>
      </g>
     </g>
     <g id="text_9">
      <!-- −0.5 -->
      <g transform="translate(26.317187 219.498432)scale(0.1 -0.1)">
       <use xlink:href="#DejaVuSans-8722"/>
       <use x="83.789062" xlink:href="#DejaVuSans-48"/>
       <use x="147.412109" xlink:href="#DejaVuSans-46"/>
       <use x="179.199219" xlink:href="#DejaVuSans-53"/>
      </g>
     </g>
    </g>
    <g id="ytick_4">
     <g id="line2d_10">
      <g>
       <use style="stroke:#000000;stroke-width:0.8;" x="57.6" xlink:href="#m5cfecdcf24" y="175.389878"/>
      </g>
     </g>
     <g id="text_10">
      <!-- 0.0 -->
      <g transform="translate(34.696875 179.189096)scale(0.1 -0.1)">
       <use xlink:href="#DejaVuSans-48"/>
       <use x="63.623047" xlink:href="#DejaVuSans-46"/>
       <use x="95.410156" xlink:href="#DejaVuSans-48"/>
      </g>
     </g>
    </g>
    <g id="ytick_5">
     <g id="line2d_11">
      <g>
       <use style="stroke:#000000;stroke-width:0.8;" x="57.6" xlink:href="#m5cfecdcf24" y="135.080542"/>
      </g>
     </g>
     <g id="text_11">
      <!-- 0.5 -->
      <g transform="translate(34.696875 138.879761)scale(0.1 -0.1)">
       <use xlink:href="#DejaVuSans-48"/>
       <use x="63.623047" xlink:href="#DejaVuSans-46"/>
       <use x="95.410156" xlink:href="#DejaVuSans-53"/>
      </g>
     </g>
    </g>
    <g id="ytick_6">
     <g id="line2d_12">
      <g>
       <use style="stroke:#000000;stroke-width:0.8;" x="57.6" xlink:href="#m5cfecdcf24" y="94.771207"/>
      </g>
     </g>
     <g id="text_12">
      <!-- 1.0 -->
      <g transform="translate(34.696875 98.570426)scale(0.1 -0.1)">
       <use xlink:href="#DejaVuSans-49"/>
       <use x="63.623047" xlink:href="#DejaVuSans-46"/>
       <use x="95.410156" xlink:href="#DejaVuSans-48"/>
      </g>
     </g>
    </g>
    <g id="ytick_7">
     <g id="line2d_13">
      <g>
       <use style="stroke:#000000;stroke-width:0.8;" x="57.6" xlink:href="#m5cfecdcf24" y="54.461872"/>
      </g>
     </g>
     <g id="text_13">
      <!-- 1.5 -->
      <g transform="translate(34.696875 58.261091)scale(0.1 -0.1)">
       <use xlink:href="#DejaVuSans-49"/>
       <use x="63.623047" xlink:href="#DejaVuSans-46"/>
       <use x="95.410156" xlink:href="#DejaVuSans-53"/>
      </g>
     </g>
    </g>
   </g>
   <g id="line2d_14">
    <path clip-path="url(#ped7fd98305)" d="M 74.031083 179.493272 
L 75.115557 179.444466 
L 76.200032 178.26799 
L 77.284506 176.160275 
L 78.368981 173.317752 
L 80.537929 166.214002 
L 83.791352 154.947754 
L 84.875827 151.701433 
L 85.960301 148.840765 
L 87.044775 146.416662 
L 88.12925 144.437545 
L 89.213724 142.823245 
L 90.298199 141.482516 
L 92.467147 139.256774 
L 94.636096 137.030338 
L 95.72057 135.68874 
L 96.805045 134.073224 
L 97.889519 132.092543 
L 98.973993 129.655448 
L 100.058468 126.670693 
L 101.142942 123.047029 
L 102.227416 118.696995 
L 104.396365 108.909189 
L 105.48084 104.547201 
L 106.565314 100.820559 
L 107.649788 97.880791 
L 108.734263 96.005751 
L 109.818737 95.149919 
L 110.903211 95.122913 
L 111.987686 95.733823 
L 113.07216 96.791735 
L 116.325583 100.738364 
L 117.410058 101.679308 
L 118.494532 102.161801 
L 119.579006 102.063108 
L 120.663481 101.271323 
L 121.747955 99.844982 
L 122.832429 97.979373 
L 126.085852 91.56749 
L 127.170327 89.746993 
L 128.254801 88.379053 
L 129.339275 87.640167 
L 130.42375 87.690248 
L 131.508224 88.503718 
L 132.592699 89.938704 
L 133.677173 91.851539 
L 135.846122 96.536468 
L 138.01507 101.428995 
L 139.099545 103.608961 
L 140.184019 105.472937 
L 141.268493 107.050253 
L 142.352968 108.385247 
L 143.437442 109.509807 
L 144.521917 110.454182 
L 146.690865 111.92336 
L 148.859814 113.034756 
L 152.113237 114.560331 
L 154.282186 115.835913 
L 155.36666 116.642004 
L 156.451135 117.600625 
L 157.535609 118.742023 
L 158.620083 120.096443 
L 159.704558 121.694133 
L 160.789032 123.565341 
L 161.873506 125.740312 
L 162.957981 128.249293 
L 164.042455 131.122532 
L 165.126929 134.390275 
L 166.211404 138.082408 
L 168.380352 146.523099 
L 174.887199 173.0922 
L 177.056147 180.742839 
L 178.140622 184.097829 
L 179.225096 187.059679 
L 181.394045 192.040659 
L 183.562994 196.173008 
L 187.900891 203.849624 
L 191.154314 210.407958 
L 197.66116 224.035783 
L 199.830109 228.060032 
L 201.999058 231.520641 
L 203.083532 232.982495 
L 204.168006 234.234936 
L 205.252481 235.272335 
L 207.421429 236.928495 
L 209.590378 238.467341 
L 211.759327 240.382856 
L 212.843801 241.385305 
L 213.928276 242.196464 
L 215.01275 242.840888 
L 217.181699 243.74169 
L 219.350647 244.312017 
L 229.110917 246.346856 
L 231.279865 246.610854 
L 233.448814 246.70951 
L 235.617763 246.597508 
L 237.786712 246.229535 
L 239.95566 245.560276 
L 242.124609 244.544417 
L 244.293558 243.136641 
L 246.462506 241.291636 
L 248.631455 238.964086 
L 249.71593 237.590171 
L 250.800404 235.938911 
L 251.884878 233.890894 
L 254.053827 228.87903 
L 259.476199 215.236548 
L 261.645147 210.423504 
L 264.898571 203.866998 
L 268.151994 197.906699 
L 272.489891 190.499213 
L 278.996737 179.46378 
L 282.25016 173.49397 
L 285.503583 166.923565 
L 287.672532 162.098816 
L 289.841481 156.840912 
L 292.01043 151.083366 
L 294.179378 144.759476 
L 296.348327 137.692489 
L 298.517276 129.415821 
L 302.855173 110.794429 
L 303.939648 106.784141 
L 305.024122 103.24233 
L 306.108596 100.240188 
L 307.193071 97.848909 
L 308.277545 96.139687 
L 309.362019 95.183715 
L 310.446494 95.051843 
L 311.530968 95.747595 
L 312.615442 97.126898 
L 313.699917 99.02611 
L 315.868865 103.729684 
L 318.037814 108.549168 
L 319.122289 110.593269 
L 320.206763 112.168522 
L 321.291237 113.135249 
L 322.375712 113.527514 
L 323.460186 113.407254 
L 324.54466 112.836407 
L 325.629135 111.87691 
L 326.713609 110.590701 
L 327.798083 109.039718 
L 329.967032 105.39118 
L 334.30493 97.64367 
L 335.389404 95.980328 
L 336.473878 94.556815 
L 337.558353 93.431742 
L 338.642827 92.62325 
L 339.727301 92.135333 
L 340.811776 91.971971 
L 341.89625 92.137141 
L 342.980725 92.634822 
L 344.065199 93.468994 
L 345.149673 94.643635 
L 346.234148 96.162723 
L 347.318622 98.030239 
L 348.403096 100.246912 
L 350.572045 105.536214 
L 357.078891 123.227227 
L 358.163366 125.707527 
L 359.24784 127.867625 
L 360.332314 129.637608 
L 361.416789 130.947565 
L 363.585737 132.736995 
L 365.754686 134.566617 
L 366.83916 135.738151 
L 367.923635 137.205243 
L 370.092584 140.891585 
L 373.346007 146.68192 
L 378.768378 155.625985 
L 380.937327 159.881348 
L 383.106276 165.039908 
L 384.19075 168.06537 
L 385.275225 171.44561 
L 386.359699 175.223622 
L 387.444173 179.442399 
L 389.613122 189.23298 
L 391.782071 199.471467 
L 392.866545 204.040069 
L 393.951019 207.855495 
L 395.035494 210.628183 
L 396.119968 212.068569 
L 397.204443 211.887093 
L 398.288917 209.794191 
L 398.288917 209.794191 
" style="fill:none;stroke:#ff0000;stroke-linecap:square;stroke-width:1.5;"/>
   </g>
   <g id="patch_3">
    <path d="M 57.6 307.584 
L 57.6 41.472 
" style="fill:none;stroke:#000000;stroke-linecap:square;stroke-linejoin:miter;stroke-width:0.8;"/>
   </g>
   <g id="patch_4">
    <path d="M 414.72 307.584 
L 414.72 41.472 
" style="fill:none;stroke:#000000;stroke-linecap:square;stroke-linejoin:miter;stroke-width:0.8;"/>
   </g>
   <g id="patch_5">
    <path d="M 57.6 307.584 
L 414.72 307.584 
" style="fill:none;stroke:#000000;stroke-linecap:square;stroke-linejoin:miter;stroke-width:0.8;"/>
   </g>
   <g id="patch_6">
    <path d="M 57.6 41.472 
L 414.72 41.472 
" style="fill:none;stroke:#000000;stroke-linecap:square;stroke-linejoin:miter;stroke-width:0.8;"/>
   </g>
  </g>
 </g>
 <defs>
  <clipPath id="ped7fd98305">
   <rect height="266.112" width="357.12" x="57.6" y="41.472"/>
  </clipPath>
 </defs>
</svg>
