<?xml version="1.0" encoding="utf-8" standalone="no"?>
<!DOCTYPE svg PUBLIC "-//W3C//DTD SVG 1.1//EN"
  "http://www.w3.org/Graphics/SVG/1.1/DTD/svg11.dtd">
<!-- Created with matplotlib (https://matplotlib.org/) -->
<svg height="345.6pt" version="1.1" viewBox="0 0 460.8 345.6" width="460.8pt" xmlns="http://www.w3.org/2000/svg" xmlns:xlink="http://www.w3.org/1999/xlink">
 <defs>
  <style type="text/css">
*{stroke-linecap:butt;stroke-linejoin:round;white-space:pre;}
  </style>
 </defs>
 <g id="figure_1">
  <g id="patch_1">
   <path d="M 0 345.6 
L 460.8 345.6 
L 460.8 0 
L 0 0 
z
" style="fill:#ffffff;"/>
  </g>
  <g id="axes_1">
   <g id="patch_2">
    <path d="M 57.6 307.584 
L 414.72 307.584 
L 414.72 41.472 
L 57.6 41.472 
z
" style="fill:#ffffff;"/>
   </g>
   <g id="PathCollection_1">
    <defs>
     <path d="M 0 3 
C 0.795609 3 1.55874 2.683901 2.12132 2.12132 
C 2.683901 1.55874 3 0.795609 3 0 
C 3 -0.795609 2.683901 -1.55874 2.12132 -2.12132 
C 1.55874 -2.683901 0.795609 -3 0 -3 
C -0.795609 -3 -1.55874 -2.683901 -2.12132 -2.12132 
C -2.683901 -1.55874 -3 -0.795609 -3 0 
C -3 0.795609 -2.683901 1.55874 -2.12132 2.12132 
C -1.55874 2.683901 -0.795609 3 0 3 
z
" id="mdb264288c6" style="stroke:#000000;"/>
    </defs>
    <g clip-path="url(#p6427d798a4)">
     <use style="fill:#1f77b4;stroke:#000000;" x="74.031083" xlink:href="#mdb264288c6" y="180.837565"/>
     <use style="fill:#1f77b4;stroke:#000000;" x="79.991184" xlink:href="#mdb264288c6" y="167.542097"/>
     <use style="fill:#1f77b4;stroke:#000000;" x="82.97529" xlink:href="#mdb264288c6" y="158.996851"/>
     <use style="fill:#1f77b4;stroke:#000000;" x="86.801525" xlink:href="#mdb264288c6" y="144.800849"/>
     <use style="fill:#1f77b4;stroke:#000000;" x="101.883681" xlink:href="#mdb264288c6" y="123.80674"/>
     <use style="fill:#1f77b4;stroke:#000000;" x="104.275862" xlink:href="#mdb264288c6" y="109.194702"/>
     <use style="fill:#1f77b4;stroke:#000000;" x="106.246254" xlink:href="#mdb264288c6" y="94.899832"/>
     <use style="fill:#1f77b4;stroke:#000000;" x="107.846371" xlink:href="#mdb264288c6" y="100.199686"/>
     <use style="fill:#1f77b4;stroke:#000000;" x="116.636227" xlink:href="#mdb264288c6" y="99.249492"/>
     <use style="fill:#1f77b4;stroke:#000000;" x="120.033236" xlink:href="#mdb264288c6" y="103.047752"/>
     <use style="fill:#1f77b4;stroke:#000000;" x="122.121923" xlink:href="#mdb264288c6" y="101.223932"/>
     <use style="fill:#1f77b4;stroke:#000000;" x="129.689177" xlink:href="#mdb264288c6" y="81.781335"/>
     <use style="fill:#1f77b4;stroke:#000000;" x="135.077299" xlink:href="#mdb264288c6" y="97.76968"/>
     <use style="fill:#1f77b4;stroke:#000000;" x="138.960627" xlink:href="#mdb264288c6" y="106.595216"/>
     <use style="fill:#1f77b4;stroke:#000000;" x="141.043348" xlink:href="#mdb264288c6" y="102.110238"/>
     <use style="fill:#1f77b4;stroke:#000000;" x="165.964713" xlink:href="#mdb264288c6" y="131.789125"/>
     <use style="fill:#1f77b4;stroke:#000000;" x="168.369016" xlink:href="#mdb264288c6" y="153.39672"/>
     <use style="fill:#1f77b4;stroke:#000000;" x="170.283844" xlink:href="#mdb264288c6" y="153.967145"/>
     <use style="fill:#1f77b4;stroke:#000000;" x="173.143036" xlink:href="#mdb264288c6" y="163.457633"/>
     <use style="fill:#1f77b4;stroke:#000000;" x="176.78051" xlink:href="#mdb264288c6" y="177.637057"/>
     <use style="fill:#1f77b4;stroke:#000000;" x="177.466398" xlink:href="#mdb264288c6" y="185.694158"/>
     <use style="fill:#1f77b4;stroke:#000000;" x="187.319637" xlink:href="#mdb264288c6" y="203.107681"/>
     <use style="fill:#1f77b4;stroke:#000000;" x="204.112805" xlink:href="#mdb264288c6" y="236.351381"/>
     <use style="fill:#1f77b4;stroke:#000000;" x="210.755244" xlink:href="#mdb264288c6" y="239.717871"/>
     <use style="fill:#1f77b4;stroke:#000000;" x="210.847987" xlink:href="#mdb264288c6" y="237.80074"/>
     <use style="fill:#1f77b4;stroke:#000000;" x="211.467715" xlink:href="#mdb264288c6" y="237.828099"/>
     <use style="fill:#1f77b4;stroke:#000000;" x="212.095116" xlink:href="#mdb264288c6" y="243.786251"/>
     <use style="fill:#1f77b4;stroke:#000000;" x="220.879508" xlink:href="#mdb264288c6" y="246.685733"/>
     <use style="fill:#1f77b4;stroke:#000000;" x="248.844239" xlink:href="#mdb264288c6" y="247.119997"/>
     <use style="fill:#1f77b4;stroke:#000000;" x="250.697622" xlink:href="#mdb264288c6" y="228.189746"/>
     <use style="fill:#1f77b4;stroke:#000000;" x="257.21497" xlink:href="#mdb264288c6" y="222.961377"/>
     <use style="fill:#1f77b4;stroke:#000000;" x="293.872274" xlink:href="#mdb264288c6" y="144.810327"/>
     <use style="fill:#1f77b4;stroke:#000000;" x="298.710165" xlink:href="#mdb264288c6" y="128.014327"/>
     <use style="fill:#1f77b4;stroke:#000000;" x="299.130407" xlink:href="#mdb264288c6" y="131.695241"/>
     <use style="fill:#1f77b4;stroke:#000000;" x="300.893518" xlink:href="#mdb264288c6" y="118.407635"/>
     <use style="fill:#1f77b4;stroke:#000000;" x="301.03962" xlink:href="#mdb264288c6" y="114.989573"/>
     <use style="fill:#1f77b4;stroke:#000000;" x="310.222789" xlink:href="#mdb264288c6" y="93.626802"/>
     <use style="fill:#1f77b4;stroke:#000000;" x="319.353251" xlink:href="#mdb264288c6" y="111.553241"/>
     <use style="fill:#1f77b4;stroke:#000000;" x="320.002149" xlink:href="#mdb264288c6" y="111.37157"/>
     <use style="fill:#1f77b4;stroke:#000000;" x="332.836412" xlink:href="#mdb264288c6" y="98.898856"/>
     <use style="fill:#1f77b4;stroke:#000000;" x="336.596418" xlink:href="#mdb264288c6" y="94.428482"/>
     <use style="fill:#1f77b4;stroke:#000000;" x="347.707669" xlink:href="#mdb264288c6" y="97.280322"/>
     <use style="fill:#1f77b4;stroke:#000000;" x="361.403933" xlink:href="#mdb264288c6" y="123.360169"/>
     <use style="fill:#1f77b4;stroke:#000000;" x="361.970721" xlink:href="#mdb264288c6" y="143.314783"/>
     <use style="fill:#1f77b4;stroke:#000000;" x="361.978942" xlink:href="#mdb264288c6" y="129.496809"/>
     <use style="fill:#1f77b4;stroke:#000000;" x="367.378335" xlink:href="#mdb264288c6" y="131.579015"/>
     <use style="fill:#1f77b4;stroke:#000000;" x="371.965952" xlink:href="#mdb264288c6" y="146.739079"/>
     <use style="fill:#1f77b4;stroke:#000000;" x="388.131846" xlink:href="#mdb264288c6" y="181.622253"/>
     <use style="fill:#1f77b4;stroke:#000000;" x="391.533341" xlink:href="#mdb264288c6" y="197.739246"/>
     <use style="fill:#1f77b4;stroke:#000000;" x="398.288917" xlink:href="#mdb264288c6" y="213.07549"/>
    </g>
   </g>
   <g id="matplotlib.axis_1">
    <g id="xtick_1">
     <g id="line2d_1">
      <defs>
       <path d="M 0 0 
L 0 3.5 
" id="m87c9cf7bf4" style="stroke:#000000;stroke-width:0.8;"/>
      </defs>
      <g>
       <use style="stroke:#000000;stroke-width:0.8;" x="73.993574" xlink:href="#m87c9cf7bf4" y="307.584"/>
      </g>
     </g>
     <g id="text_1">
      <!-- 0 -->
      <defs>
       <path d="M 31.78125 66.40625 
Q 24.171875 66.40625 20.328125 58.90625 
Q 16.5 51.421875 16.5 36.375 
Q 16.5 21.390625 20.328125 13.890625 
Q 24.171875 6.390625 31.78125 6.390625 
Q 39.453125 6.390625 43.28125 13.890625 
Q 47.125 21.390625 47.125 36.375 
Q 47.125 51.421875 43.28125 58.90625 
Q 39.453125 66.40625 31.78125 66.40625 
z
M 31.78125 74.21875 
Q 44.046875 74.21875 50.515625 64.515625 
Q 56.984375 54.828125 56.984375 36.375 
Q 56.984375 17.96875 50.515625 8.265625 
Q 44.046875 -1.421875 31.78125 -1.421875 
Q 19.53125 -1.421875 13.0625 8.265625 
Q 6.59375 17.96875 6.59375 36.375 
Q 6.59375 54.828125 13.0625 64.515625 
Q 19.53125 74.21875 31.78125 74.21875 
z
" id="DejaVuSans-48"/>
      </defs>
      <g transform="translate(70.812324 322.182437)scale(0.1 -0.1)">
       <use xlink:href="#DejaVuSans-48"/>
      </g>
     </g>
    </g>
    <g id="xtick_2">
     <g id="line2d_2">
      <g>
       <use style="stroke:#000000;stroke-width:0.8;" x="139.58324" xlink:href="#m87c9cf7bf4" y="307.584"/>
      </g>
     </g>
     <g id="text_2">
      <!-- 2 -->
      <defs>
       <path d="M 19.1875 8.296875 
L 53.609375 8.296875 
L 53.609375 0 
L 7.328125 0 
L 7.328125 8.296875 
Q 12.9375 14.109375 22.625 23.890625 
Q 32.328125 33.6875 34.8125 36.53125 
Q 39.546875 41.84375 41.421875 45.53125 
Q 43.3125 49.21875 43.3125 52.78125 
Q 43.3125 58.59375 39.234375 62.25 
Q 35.15625 65.921875 28.609375 65.921875 
Q 23.96875 65.921875 18.8125 64.3125 
Q 13.671875 62.703125 7.8125 59.421875 
L 7.8125 69.390625 
Q 13.765625 71.78125 18.9375 73 
Q 24.125 74.21875 28.421875 74.21875 
Q 39.75 74.21875 46.484375 68.546875 
Q 53.21875 62.890625 53.21875 53.421875 
Q 53.21875 48.921875 51.53125 44.890625 
Q 49.859375 40.875 45.40625 35.40625 
Q 44.1875 33.984375 37.640625 27.21875 
Q 31.109375 20.453125 19.1875 8.296875 
z
" id="DejaVuSans-50"/>
      </defs>
      <g transform="translate(136.40199 322.182437)scale(0.1 -0.1)">
       <use xlink:href="#DejaVuSans-50"/>
      </g>
     </g>
    </g>
    <g id="xtick_3">
     <g id="line2d_3">
      <g>
       <use style="stroke:#000000;stroke-width:0.8;" x="205.172906" xlink:href="#m87c9cf7bf4" y="307.584"/>
      </g>
     </g>
     <g id="text_3">
      <!-- 4 -->
      <defs>
       <path d="M 37.796875 64.3125 
L 12.890625 25.390625 
L 37.796875 25.390625 
z
M 35.203125 72.90625 
L 47.609375 72.90625 
L 47.609375 25.390625 
L 58.015625 25.390625 
L 58.015625 17.1875 
L 47.609375 17.1875 
L 47.609375 0 
L 37.796875 0 
L 37.796875 17.1875 
L 4.890625 17.1875 
L 4.890625 26.703125 
z
" id="DejaVuSans-52"/>
      </defs>
      <g transform="translate(201.991656 322.182437)scale(0.1 -0.1)">
       <use xlink:href="#DejaVuSans-52"/>
      </g>
     </g>
    </g>
    <g id="xtick_4">
     <g id="line2d_4">
      <g>
       <use style="stroke:#000000;stroke-width:0.8;" x="270.762572" xlink:href="#m87c9cf7bf4" y="307.584"/>
      </g>
     </g>
     <g id="text_4">
      <!-- 6 -->
      <defs>
       <path d="M 33.015625 40.375 
Q 26.375 40.375 22.484375 35.828125 
Q 18.609375 31.296875 18.609375 23.390625 
Q 18.609375 15.53125 22.484375 10.953125 
Q 26.375 6.390625 33.015625 6.390625 
Q 39.65625 6.390625 43.53125 10.953125 
Q 47.40625 15.53125 47.40625 23.390625 
Q 47.40625 31.296875 43.53125 35.828125 
Q 39.65625 40.375 33.015625 40.375 
z
M 52.59375 71.296875 
L 52.59375 62.3125 
Q 48.875 64.0625 45.09375 64.984375 
Q 41.3125 65.921875 37.59375 65.921875 
Q 27.828125 65.921875 22.671875 59.328125 
Q 17.53125 52.734375 16.796875 39.40625 
Q 19.671875 43.65625 24.015625 45.921875 
Q 28.375 48.1875 33.59375 48.1875 
Q 44.578125 48.1875 50.953125 41.515625 
Q 57.328125 34.859375 57.328125 23.390625 
Q 57.328125 12.15625 50.6875 5.359375 
Q 44.046875 -1.421875 33.015625 -1.421875 
Q 20.359375 -1.421875 13.671875 8.265625 
Q 6.984375 17.96875 6.984375 36.375 
Q 6.984375 53.65625 15.1875 63.9375 
Q 23.390625 74.21875 37.203125 74.21875 
Q 40.921875 74.21875 44.703125 73.484375 
Q 48.484375 72.75 52.59375 71.296875 
z
" id="DejaVuSans-54"/>
      </defs>
      <g transform="translate(267.581322 322.182437)scale(0.1 -0.1)">
       <use xlink:href="#DejaVuSans-54"/>
      </g>
     </g>
    </g>
    <g id="xtick_5">
     <g id="line2d_5">
      <g>
       <use style="stroke:#000000;stroke-width:0.8;" x="336.352238" xlink:href="#m87c9cf7bf4" y="307.584"/>
      </g>
     </g>
     <g id="text_5">
      <!-- 8 -->
      <defs>
       <path d="M 31.78125 34.625 
Q 24.75 34.625 20.71875 30.859375 
Q 16.703125 27.09375 16.703125 20.515625 
Q 16.703125 13.921875 20.71875 10.15625 
Q 24.75 6.390625 31.78125 6.390625 
Q 38.8125 6.390625 42.859375 10.171875 
Q 46.921875 13.96875 46.921875 20.515625 
Q 46.921875 27.09375 42.890625 30.859375 
Q 38.875 34.625 31.78125 34.625 
z
M 21.921875 38.8125 
Q 15.578125 40.375 12.03125 44.71875 
Q 8.5 49.078125 8.5 55.328125 
Q 8.5 64.0625 14.71875 69.140625 
Q 20.953125 74.21875 31.78125 74.21875 
Q 42.671875 74.21875 48.875 69.140625 
Q 55.078125 64.0625 55.078125 55.328125 
Q 55.078125 49.078125 51.53125 44.71875 
Q 48 40.375 41.703125 38.8125 
Q 48.828125 37.15625 52.796875 32.3125 
Q 56.78125 27.484375 56.78125 20.515625 
Q 56.78125 9.90625 50.3125 4.234375 
Q 43.84375 -1.421875 31.78125 -1.421875 
Q 19.734375 -1.421875 13.25 4.234375 
Q 6.78125 9.90625 6.78125 20.515625 
Q 6.78125 27.484375 10.78125 32.3125 
Q 14.796875 37.15625 21.921875 38.8125 
z
M 18.3125 54.390625 
Q 18.3125 48.734375 21.84375 45.5625 
Q 25.390625 42.390625 31.78125 42.390625 
Q 38.140625 42.390625 41.71875 45.5625 
Q 45.3125 48.734375 45.3125 54.390625 
Q 45.3125 60.0625 41.71875 63.234375 
Q 38.140625 66.40625 31.78125 66.40625 
Q 25.390625 66.40625 21.84375 63.234375 
Q 18.3125 60.0625 18.3125 54.390625 
z
" id="DejaVuSans-56"/>
      </defs>
      <g transform="translate(333.170988 322.182437)scale(0.1 -0.1)">
       <use xlink:href="#DejaVuSans-56"/>
      </g>
     </g>
    </g>
    <g id="xtick_6">
     <g id="line2d_6">
      <g>
       <use style="stroke:#000000;stroke-width:0.8;" x="401.941904" xlink:href="#m87c9cf7bf4" y="307.584"/>
      </g>
     </g>
     <g id="text_6">
      <!-- 10 -->
      <defs>
       <path d="M 12.40625 8.296875 
L 28.515625 8.296875 
L 28.515625 63.921875 
L 10.984375 60.40625 
L 10.984375 69.390625 
L 28.421875 72.90625 
L 38.28125 72.90625 
L 38.28125 8.296875 
L 54.390625 8.296875 
L 54.390625 0 
L 12.40625 0 
z
" id="DejaVuSans-49"/>
      </defs>
      <g transform="translate(395.579404 322.182437)scale(0.1 -0.1)">
       <use xlink:href="#DejaVuSans-49"/>
       <use x="63.623047" xlink:href="#DejaVuSans-48"/>
      </g>
     </g>
    </g>
   </g>
   <g id="matplotlib.axis_2">
    <g id="ytick_1">
     <g id="line2d_7">
      <defs>
       <path d="M 0 0 
L -3.5 0 
" id="me42eb32c3f" style="stroke:#000000;stroke-width:0.8;"/>
      </defs>
      <g>
       <use style="stroke:#000000;stroke-width:0.8;" x="57.6" xlink:href="#me42eb32c3f" y="296.317884"/>
      </g>
     </g>
     <g id="text_7">
      <!-- −1.5 -->
      <defs>
       <path d="M 10.59375 35.5 
L 73.1875 35.5 
L 73.1875 27.203125 
L 10.59375 27.203125 
z
" id="DejaVuSans-8722"/>
       <path d="M 10.6875 12.40625 
L 21 12.40625 
L 21 0 
L 10.6875 0 
z
" id="DejaVuSans-46"/>
       <path d="M 10.796875 72.90625 
L 49.515625 72.90625 
L 49.515625 64.59375 
L 19.828125 64.59375 
L 19.828125 46.734375 
Q 21.96875 47.46875 24.109375 47.828125 
Q 26.265625 48.1875 28.421875 48.1875 
Q 40.625 48.1875 47.75 41.5 
Q 54.890625 34.8125 54.890625 23.390625 
Q 54.890625 11.625 47.5625 5.09375 
Q 40.234375 -1.421875 26.90625 -1.421875 
Q 22.3125 -1.421875 17.546875 -0.640625 
Q 12.796875 0.140625 7.71875 1.703125 
L 7.71875 11.625 
Q 12.109375 9.234375 16.796875 8.0625 
Q 21.484375 6.890625 26.703125 6.890625 
Q 35.15625 6.890625 40.078125 11.328125 
Q 45.015625 15.765625 45.015625 23.390625 
Q 45.015625 31 40.078125 35.4375 
Q 35.15625 39.890625 26.703125 39.890625 
Q 22.75 39.890625 18.8125 39.015625 
Q 14.890625 38.140625 10.796875 36.28125 
z
" id="DejaVuSans-53"/>
      </defs>
      <g transform="translate(26.317187 300.117102)scale(0.1 -0.1)">
       <use xlink:href="#DejaVuSans-8722"/>
       <use x="83.789062" xlink:href="#DejaVuSans-49"/>
       <use x="147.412109" xlink:href="#DejaVuSans-46"/>
       <use x="179.199219" xlink:href="#DejaVuSans-53"/>
      </g>
     </g>
    </g>
    <g id="ytick_2">
     <g id="line2d_8">
      <g>
       <use style="stroke:#000000;stroke-width:0.8;" x="57.6" xlink:href="#me42eb32c3f" y="256.008548"/>
      </g>
     </g>
     <g id="text_8">
      <!-- −1.0 -->
      <g transform="translate(26.317187 259.807767)scale(0.1 -0.1)">
       <use xlink:href="#DejaVuSans-8722"/>
       <use x="83.789062" xlink:href="#DejaVuSans-49"/>
       <use x="147.412109" xlink:href="#DejaVuSans-46"/>
       <use x="179.199219" xlink:href="#DejaVuSans-48"/>
      </g>
     </g>
    </g>
    <g id="ytick_3">
     <g id="line2d_9">
      <g>
       <use style="stroke:#000000;stroke-width:0.8;" x="57.6" xlink:href="#me42eb32c3f" y="215.699213"/>
      </g>
     </g>
     <g id="text_9">
      <!-- −0.5 -->
      <g transform="translate(26.317187 219.498432)scale(0.1 -0.1)">
       <use xlink:href="#DejaVuSans-8722"/>
       <use x="83.789062" xlink:href="#DejaVuSans-48"/>
       <use x="147.412109" xlink:href="#DejaVuSans-46"/>
       <use x="179.199219" xlink:href="#DejaVuSans-53"/>
      </g>
     </g>
    </g>
    <g id="ytick_4">
     <g id="line2d_10">
      <g>
       <use style="stroke:#000000;stroke-width:0.8;" x="57.6" xlink:href="#me42eb32c3f" y="175.389878"/>
      </g>
     </g>
     <g id="text_10">
      <!-- 0.0 -->
      <g transform="translate(34.696875 179.189096)scale(0.1 -0.1)">
       <use xlink:href="#DejaVuSans-48"/>
       <use x="63.623047" xlink:href="#DejaVuSans-46"/>
       <use x="95.410156" xlink:href="#DejaVuSans-48"/>
      </g>
     </g>
    </g>
    <g id="ytick_5">
     <g id="line2d_11">
      <g>
       <use style="stroke:#000000;stroke-width:0.8;" x="57.6" xlink:href="#me42eb32c3f" y="135.080542"/>
      </g>
     </g>
     <g id="text_11">
      <!-- 0.5 -->
      <g transform="translate(34.696875 138.879761)scale(0.1 -0.1)">
       <use xlink:href="#DejaVuSans-48"/>
       <use x="63.623047" xlink:href="#DejaVuSans-46"/>
       <use x="95.410156" xlink:href="#DejaVuSans-53"/>
      </g>
     </g>
    </g>
    <g id="ytick_6">
     <g id="line2d_12">
      <g>
       <use style="stroke:#000000;stroke-width:0.8;" x="57.6" xlink:href="#me42eb32c3f" y="94.771207"/>
      </g>
     </g>
     <g id="text_12">
      <!-- 1.0 -->
      <g transform="translate(34.696875 98.570426)scale(0.1 -0.1)">
       <use xlink:href="#DejaVuSans-49"/>
       <use x="63.623047" xlink:href="#DejaVuSans-46"/>
       <use x="95.410156" xlink:href="#DejaVuSans-48"/>
      </g>
     </g>
    </g>
    <g id="ytick_7">
     <g id="line2d_13">
      <g>
       <use style="stroke:#000000;stroke-width:0.8;" x="57.6" xlink:href="#me42eb32c3f" y="54.461872"/>
      </g>
     </g>
     <g id="text_13">
      <!-- 1.5 -->
      <g transform="translate(34.696875 58.261091)scale(0.1 -0.1)">
       <use xlink:href="#DejaVuSans-49"/>
       <use x="63.623047" xlink:href="#DejaVuSans-46"/>
       <use x="95.410156" xlink:href="#DejaVuSans-53"/>
      </g>
     </g>
    </g>
   </g>
   <g id="line2d_14">
    <path clip-path="url(#p6427d798a4)" d="M 74.031083 180.487384 
L 75.115557 180.815982 
L 76.200032 179.785456 
L 77.284506 177.630168 
L 78.368981 174.584477 
L 79.453455 170.882745 
L 84.875827 150.625739 
L 85.960301 147.592139 
L 87.044775 145.203953 
L 88.12925 143.496679 
L 89.213724 142.348671 
L 90.298199 141.618628 
L 91.382673 141.165249 
L 93.551622 140.523281 
L 94.636096 140.052091 
L 95.72057 139.292361 
L 96.805045 138.102793 
L 97.889519 136.342085 
L 98.973993 133.868936 
L 100.058468 130.542046 
L 101.142942 126.220113 
L 102.227416 120.768281 
L 104.396365 108.38751 
L 105.48084 103.268244 
L 106.565314 99.154456 
L 107.649788 96.039837 
L 108.734263 94.070365 
L 109.818737 93.167605 
L 110.903211 93.149834 
L 111.987686 93.834953 
L 113.07216 95.040862 
L 115.241109 98.286649 
L 116.325583 99.962327 
L 117.410058 101.428245 
L 118.494532 102.478981 
L 119.579006 102.89707 
L 120.663481 102.471887 
L 121.747955 101.105415 
L 122.832429 98.80787 
L 123.916904 95.799878 
L 126.085852 89.090539 
L 127.170327 86.111933 
L 128.254801 83.865861 
L 129.339275 82.713696 
L 130.42375 82.984735 
L 131.508224 84.649545 
L 132.592699 87.453778 
L 133.677173 91.139618 
L 136.930596 104.275197 
L 138.01507 107.019755 
L 139.099545 107.295013 
L 140.184019 104.775135 
L 142.352968 97.403766 
L 144.521917 91.085065 
L 145.606391 88.436229 
L 146.690865 86.158485 
L 147.77534 84.274895 
L 148.859814 82.808521 
L 149.944288 81.782425 
L 151.028763 81.219668 
L 152.113237 81.143312 
L 153.197711 81.576419 
L 154.282186 82.542052 
L 155.36666 84.063271 
L 156.451135 86.16314 
L 157.535609 88.864719 
L 158.620083 92.19107 
L 159.704558 96.165256 
L 160.789032 100.810338 
L 161.873506 106.149379 
L 162.957981 112.205439 
L 164.042455 119.001581 
L 166.211404 134.902429 
L 167.295878 143.443624 
L 168.380352 150.358149 
L 169.464827 154.348094 
L 172.71825 161.842253 
L 173.802724 165.443676 
L 174.887199 169.975628 
L 175.971673 175.303217 
L 178.140622 186.926046 
L 179.225096 191.288322 
L 180.30957 194.544546 
L 181.394045 196.905119 
L 182.478519 198.580443 
L 183.562994 199.780919 
L 186.816417 202.637276 
L 187.900891 204.035152 
L 188.985365 205.854604 
L 190.06984 208.029191 
L 192.238788 213.159244 
L 197.66116 227.220068 
L 198.745635 229.675019 
L 199.830109 231.844927 
L 200.914583 233.658661 
L 201.999058 235.045091 
L 203.083532 235.933085 
L 204.168006 236.251522 
L 205.252481 236.012181 
L 207.421429 235.1074 
L 208.505904 235.157219 
L 209.590378 236.018685 
L 210.674853 238.049426 
L 212.843801 243.98935 
L 213.928276 245.723099 
L 215.01275 246.577397 
L 216.097224 246.802454 
L 217.181699 246.648482 
L 218.266173 246.365692 
L 219.350647 246.204294 
L 220.435122 246.414501 
L 221.519596 247.234827 
L 222.60407 248.721837 
L 223.688545 250.788385 
L 224.773019 253.343411 
L 226.941968 259.554655 
L 230.195391 270.258605 
L 232.36434 277.256927 
L 234.533288 283.295239 
L 235.617763 285.726741 
L 236.702237 287.645061 
L 237.786712 288.959138 
L 238.871186 289.577913 
L 239.95566 289.410325 
L 241.040135 288.365315 
L 242.124609 286.351822 
L 243.209083 283.278787 
L 244.293558 279.055149 
L 245.378032 273.589848 
L 246.462506 266.791825 
L 247.546981 258.570019 
L 248.631455 248.83337 
L 250.800404 227.829633 
L 251.884878 221.409039 
L 252.969353 218.266413 
L 254.053827 217.628785 
L 255.138301 218.723187 
L 258.391724 224.83837 
L 259.476199 226.164322 
L 260.560673 227.017154 
L 261.645147 227.419879 
L 262.729622 227.395509 
L 263.814096 226.967057 
L 264.898571 226.157537 
L 265.983045 224.989961 
L 267.067519 223.487343 
L 268.151994 221.672696 
L 269.236468 219.569033 
L 271.405417 214.586709 
L 273.574365 208.724476 
L 275.743314 202.166439 
L 278.996737 191.427478 
L 287.672532 161.886889 
L 289.841481 155.293665 
L 292.01043 149.385418 
L 294.179378 144.344452 
L 295.263853 142.042472 
L 296.348327 139.415936 
L 297.432801 136.011803 
L 298.517276 131.377029 
L 300.686224 118.943358 
L 301.770699 112.704285 
L 302.855173 107.35768 
L 303.939648 102.91105 
L 305.024122 99.339795 
L 306.108596 96.619317 
L 307.193071 94.725017 
L 308.277545 93.632297 
L 309.362019 93.316559 
L 310.446494 93.753032 
L 311.530968 94.883409 
L 312.615442 96.575851 
L 313.699917 98.688774 
L 315.868865 103.609715 
L 318.037814 108.513543 
L 319.122289 110.605075 
L 320.206763 112.235568 
L 321.291237 113.153941 
L 322.375712 113.394091 
L 323.460186 113.045683 
L 324.54466 112.198384 
L 325.629135 110.941861 
L 326.713609 109.365781 
L 328.882558 105.613615 
L 332.135981 99.83035 
L 333.220455 98.218899 
L 334.30493 96.860272 
L 336.473878 94.724641 
L 338.642827 93.132458 
L 339.727301 92.578016 
L 340.811776 92.231184 
L 341.89625 92.126851 
L 342.980725 92.299907 
L 344.065199 92.78524 
L 345.149673 93.617739 
L 346.234148 94.832293 
L 347.318622 96.463791 
L 348.403096 98.541889 
L 349.487571 101.029449 
L 351.656519 106.899046 
L 357.078891 122.863182 
L 358.163366 125.603865 
L 359.24784 127.997451 
L 360.332314 129.959777 
L 361.416789 131.406677 
L 362.501263 132.188289 
L 363.585737 132.263197 
L 364.670212 132.047697 
L 365.754686 131.992389 
L 366.83916 132.547877 
L 367.923635 134.14628 
L 369.008109 136.800196 
L 373.346007 149.886769 
L 374.430481 152.386421 
L 376.59943 156.493421 
L 379.852853 161.580686 
L 382.021801 165.157006 
L 383.106276 167.232114 
L 384.19075 169.601413 
L 385.275225 172.342072 
L 386.359699 175.531258 
L 387.444173 179.24614 
L 388.528648 183.560955 
L 390.697596 193.523952 
L 392.866545 203.425599 
L 393.951019 207.648466 
L 395.035494 211.010055 
L 396.119968 213.228385 
L 397.204443 214.021477 
L 398.288917 213.107349 
L 398.288917 213.107349 
" style="fill:none;stroke:#ff0000;stroke-linecap:square;stroke-width:1.5;"/>
   </g>
   <g id="patch_3">
    <path d="M 57.6 307.584 
L 57.6 41.472 
" style="fill:none;stroke:#000000;stroke-linecap:square;stroke-linejoin:miter;stroke-width:0.8;"/>
   </g>
   <g id="patch_4">
    <path d="M 414.72 307.584 
L 414.72 41.472 
" style="fill:none;stroke:#000000;stroke-linecap:square;stroke-linejoin:miter;stroke-width:0.8;"/>
   </g>
   <g id="patch_5">
    <path d="M 57.6 307.584 
L 414.72 307.584 
" style="fill:none;stroke:#000000;stroke-linecap:square;stroke-linejoin:miter;stroke-width:0.8;"/>
   </g>
   <g id="patch_6">
    <path d="M 57.6 41.472 
L 414.72 41.472 
" style="fill:none;stroke:#000000;stroke-linecap:square;stroke-linejoin:miter;stroke-width:0.8;"/>
   </g>
  </g>
 </g>
 <defs>
  <clipPath id="p6427d798a4">
   <rect height="266.112" width="357.12" x="57.6" y="41.472"/>
  </clipPath>
 </defs>
</svg>
