<?xml version="1.0" encoding="utf-8" standalone="no"?>
<!DOCTYPE svg PUBLIC "-//W3C//DTD SVG 1.1//EN"
  "http://www.w3.org/Graphics/SVG/1.1/DTD/svg11.dtd">
<!-- Created with matplotlib (https://matplotlib.org/) -->
<svg height="345.6pt" version="1.1" viewBox="0 0 460.8 345.6" width="460.8pt" xmlns="http://www.w3.org/2000/svg" xmlns:xlink="http://www.w3.org/1999/xlink">
 <defs>
  <style type="text/css">
*{stroke-linecap:butt;stroke-linejoin:round;white-space:pre;}
  </style>
 </defs>
 <g id="figure_1">
  <g id="patch_1">
   <path d="M 0 345.6 
L 460.8 345.6 
L 460.8 0 
L 0 0 
z
" style="fill:#ffffff;"/>
  </g>
  <g id="axes_1">
   <g id="patch_2">
    <path d="M 57.6 307.584 
L 414.72 307.584 
L 414.72 41.472 
L 57.6 41.472 
z
" style="fill:#ffffff;"/>
   </g>
   <g id="PathCollection_1">
    <defs>
     <path d="M 0 3 
C 0.795609 3 1.55874 2.683901 2.12132 2.12132 
C 2.683901 1.55874 3 0.795609 3 0 
C 3 -0.795609 2.683901 -1.55874 2.12132 -2.12132 
C 1.55874 -2.683901 0.795609 -3 0 -3 
C -0.795609 -3 -1.55874 -2.683901 -2.12132 -2.12132 
C -2.683901 -1.55874 -3 -0.795609 -3 0 
C -3 0.795609 -2.683901 1.55874 -2.12132 2.12132 
C -1.55874 2.683901 -0.795609 3 0 3 
z
" id="me935cb885d" style="stroke:#000000;stroke-opacity:0.8;"/>
    </defs>
    <g clip-path="url(#pf50c9af7cf)">
     <use style="fill:#ff0000;fill-opacity:0.8;stroke:#000000;stroke-opacity:0.8;" x="153.885537" xlink:href="#me935cb885d" y="176.569358"/>
     <use style="fill:#ff0000;fill-opacity:0.8;stroke:#000000;stroke-opacity:0.8;" x="311.632407" xlink:href="#me935cb885d" y="158.218173"/>
     <use style="fill:#ff0000;fill-opacity:0.8;stroke:#000000;stroke-opacity:0.8;" x="199.229392" xlink:href="#me935cb885d" y="125.462176"/>
     <use style="fill:#ff0000;fill-opacity:0.8;stroke:#000000;stroke-opacity:0.8;" x="243.681433" xlink:href="#me935cb885d" y="100.614114"/>
     <use style="fill:#ff0000;fill-opacity:0.8;stroke:#000000;stroke-opacity:0.8;" x="274.80719" xlink:href="#me935cb885d" y="120.949594"/>
     <use style="fill:#ff0000;fill-opacity:0.8;stroke:#000000;stroke-opacity:0.8;" x="165.077195" xlink:href="#me935cb885d" y="200.28415"/>
     <use style="fill:#ff0000;fill-opacity:0.8;stroke:#000000;stroke-opacity:0.8;" x="159.503368" xlink:href="#me935cb885d" y="142.221508"/>
     <use style="fill:#ff0000;fill-opacity:0.8;stroke:#000000;stroke-opacity:0.8;" x="157.927249" xlink:href="#me935cb885d" y="164.993408"/>
     <use style="fill:#ff0000;fill-opacity:0.8;stroke:#000000;stroke-opacity:0.8;" x="196.430136" xlink:href="#me935cb885d" y="220.623866"/>
     <use style="fill:#ff0000;fill-opacity:0.8;stroke:#000000;stroke-opacity:0.8;" x="286.570038" xlink:href="#me935cb885d" y="117.574076"/>
     <use style="fill:#ff0000;fill-opacity:0.8;stroke:#000000;stroke-opacity:0.8;" x="296.143664" xlink:href="#me935cb885d" y="209.143913"/>
     <use style="fill:#ff0000;fill-opacity:0.8;stroke:#000000;stroke-opacity:0.8;" x="303.132845" xlink:href="#me935cb885d" y="135.969795"/>
     <use style="fill:#ff0000;fill-opacity:0.8;stroke:#000000;stroke-opacity:0.8;" x="309.9515" xlink:href="#me935cb885d" y="211.458173"/>
     <use style="fill:#ff0000;fill-opacity:0.8;stroke:#000000;stroke-opacity:0.8;" x="321.709345" xlink:href="#me935cb885d" y="192.581856"/>
     <use style="fill:#ff0000;fill-opacity:0.8;stroke:#000000;stroke-opacity:0.8;" x="285.627817" xlink:href="#me935cb885d" y="129.538541"/>
     <use style="fill:#ff0000;fill-opacity:0.8;stroke:#000000;stroke-opacity:0.8;" x="151.908584" xlink:href="#me935cb885d" y="183.434197"/>
     <use style="fill:#ff0000;fill-opacity:0.8;stroke:#000000;stroke-opacity:0.8;" x="172.21085" xlink:href="#me935cb885d" y="121.482845"/>
     <use style="fill:#ff0000;fill-opacity:0.8;stroke:#000000;stroke-opacity:0.8;" x="331.248046" xlink:href="#me935cb885d" y="163.676296"/>
     <use style="fill:#ff0000;fill-opacity:0.8;stroke:#000000;stroke-opacity:0.8;" x="279.10163" xlink:href="#me935cb885d" y="226.780381"/>
     <use style="fill:#ff0000;fill-opacity:0.8;stroke:#000000;stroke-opacity:0.8;" x="263.640772" xlink:href="#me935cb885d" y="229.715476"/>
     <use style="fill:#ff0000;fill-opacity:0.8;stroke:#000000;stroke-opacity:0.8;" x="308.607886" xlink:href="#me935cb885d" y="137.883681"/>
     <use style="fill:#ff0000;fill-opacity:0.8;stroke:#000000;stroke-opacity:0.8;" x="217.621445" xlink:href="#me935cb885d" y="101.278536"/>
     <use style="fill:#ff0000;fill-opacity:0.8;stroke:#000000;stroke-opacity:0.8;" x="194.557896" xlink:href="#me935cb885d" y="105.236396"/>
     <use style="fill:#ff0000;fill-opacity:0.8;stroke:#000000;stroke-opacity:0.8;" x="272.506601" xlink:href="#me935cb885d" y="221.821216"/>
     <use style="fill:#ff0000;fill-opacity:0.8;stroke:#000000;stroke-opacity:0.8;" x="231.398144" xlink:href="#me935cb885d" y="237.870462"/>
     <use style="fill:#ff0000;fill-opacity:0.8;stroke:#000000;stroke-opacity:0.8;" x="296.433846" xlink:href="#me935cb885d" y="137.238704"/>
     <use style="fill:#ff0000;fill-opacity:0.8;stroke:#000000;stroke-opacity:0.8;" x="309.539512" xlink:href="#me935cb885d" y="160.103526"/>
     <use style="fill:#ff0000;fill-opacity:0.8;stroke:#000000;stroke-opacity:0.8;" x="199.434768" xlink:href="#me935cb885d" y="225.506471"/>
     <use style="fill:#ff0000;fill-opacity:0.8;stroke:#000000;stroke-opacity:0.8;" x="170.738444" xlink:href="#me935cb885d" y="204.45219"/>
     <use style="fill:#ff0000;fill-opacity:0.8;stroke:#000000;stroke-opacity:0.8;" x="242.681162" xlink:href="#me935cb885d" y="103.981878"/>
     <use style="fill:#ff0000;fill-opacity:0.8;stroke:#000000;stroke-opacity:0.8;" x="218.812943" xlink:href="#me935cb885d" y="235.949728"/>
     <use style="fill:#ff0000;fill-opacity:0.8;stroke:#000000;stroke-opacity:0.8;" x="155.849986" xlink:href="#me935cb885d" y="147.71574"/>
     <use style="fill:#ff0000;fill-opacity:0.8;stroke:#000000;stroke-opacity:0.8;" x="254.786755" xlink:href="#me935cb885d" y="109.370171"/>
     <use style="fill:#ff0000;fill-opacity:0.8;stroke:#000000;stroke-opacity:0.8;" x="173.287522" xlink:href="#me935cb885d" y="208.066202"/>
     <use style="fill:#ff0000;fill-opacity:0.8;stroke:#000000;stroke-opacity:0.8;" x="188.838833" xlink:href="#me935cb885d" y="213.242154"/>
     <use style="fill:#ff0000;fill-opacity:0.8;stroke:#000000;stroke-opacity:0.8;" x="221.160961" xlink:href="#me935cb885d" y="114.673864"/>
     <use style="fill:#ff0000;fill-opacity:0.8;stroke:#000000;stroke-opacity:0.8;" x="169.595774" xlink:href="#me935cb885d" y="130.055153"/>
     <use style="fill:#ff0000;fill-opacity:0.8;stroke:#000000;stroke-opacity:0.8;" x="141.430986" xlink:href="#me935cb885d" y="198.66459"/>
     <use style="fill:#ff0000;fill-opacity:0.8;stroke:#000000;stroke-opacity:0.8;" x="319.948086" xlink:href="#me935cb885d" y="174.967898"/>
     <use style="fill:#ff0000;fill-opacity:0.8;stroke:#000000;stroke-opacity:0.8;" x="167.404618" xlink:href="#me935cb885d" y="130.9346"/>
     <use style="fill:#ff0000;fill-opacity:0.8;stroke:#000000;stroke-opacity:0.8;" x="146.705458" xlink:href="#me935cb885d" y="164.090783"/>
     <use style="fill:#ff0000;fill-opacity:0.8;stroke:#000000;stroke-opacity:0.8;" x="232.601459" xlink:href="#me935cb885d" y="221.129479"/>
     <use style="fill:#ff0000;fill-opacity:0.8;stroke:#000000;stroke-opacity:0.8;" x="309.917682" xlink:href="#me935cb885d" y="191.351926"/>
     <use style="fill:#ff0000;fill-opacity:0.8;stroke:#000000;stroke-opacity:0.8;" x="245.644172" xlink:href="#me935cb885d" y="248.184"/>
     <use style="fill:#ff0000;fill-opacity:0.8;stroke:#000000;stroke-opacity:0.8;" x="239.17543" xlink:href="#me935cb885d" y="117.87408"/>
     <use style="fill:#ff0000;fill-opacity:0.8;stroke:#000000;stroke-opacity:0.8;" x="213.60562" xlink:href="#me935cb885d" y="229.461851"/>
     <use style="fill:#ff0000;fill-opacity:0.8;stroke:#000000;stroke-opacity:0.8;" x="162.240528" xlink:href="#me935cb885d" y="144.082319"/>
     <use style="fill:#ff0000;fill-opacity:0.8;stroke:#000000;stroke-opacity:0.8;" x="278.4682" xlink:href="#me935cb885d" y="114.16483"/>
     <use style="fill:#ff0000;fill-opacity:0.8;stroke:#000000;stroke-opacity:0.8;" x="302.303972" xlink:href="#me935cb885d" y="184.979356"/>
     <use style="fill:#ff0000;fill-opacity:0.8;stroke:#000000;stroke-opacity:0.8;" x="284.881794" xlink:href="#me935cb885d" y="212.213543"/>
    </g>
   </g>
   <g id="PathCollection_2">
    <defs>
     <path d="M 0 3 
C 0.795609 3 1.55874 2.683901 2.12132 2.12132 
C 2.683901 1.55874 3 0.795609 3 0 
C 3 -0.795609 2.683901 -1.55874 2.12132 -2.12132 
C 1.55874 -2.683901 0.795609 -3 0 -3 
C -0.795609 -3 -1.55874 -2.683901 -2.12132 -2.12132 
C -2.683901 -1.55874 -3 -0.795609 -3 0 
C -3 0.795609 -2.683901 1.55874 -2.12132 2.12132 
C -1.55874 2.683901 -0.795609 3 0 3 
z
" id="ma9acf53766" style="stroke:#000000;stroke-opacity:0.8;"/>
    </defs>
    <g clip-path="url(#pf50c9af7cf)">
     <use style="fill:#0000ff;fill-opacity:0.8;stroke:#000000;stroke-opacity:0.8;" x="238.008564" xlink:href="#ma9acf53766" y="194.290472"/>
     <use style="fill:#0000ff;fill-opacity:0.8;stroke:#000000;stroke-opacity:0.8;" x="264.435225" xlink:href="#ma9acf53766" y="155.901233"/>
     <use style="fill:#0000ff;fill-opacity:0.8;stroke:#000000;stroke-opacity:0.8;" x="185.915108" xlink:href="#ma9acf53766" y="169.747153"/>
     <use style="fill:#0000ff;fill-opacity:0.8;stroke:#000000;stroke-opacity:0.8;" x="265.40317" xlink:href="#ma9acf53766" y="181.203117"/>
     <use style="fill:#0000ff;fill-opacity:0.8;stroke:#000000;stroke-opacity:0.8;" x="194.237552" xlink:href="#ma9acf53766" y="166.674698"/>
     <use style="fill:#0000ff;fill-opacity:0.8;stroke:#000000;stroke-opacity:0.8;" x="268.489755" xlink:href="#ma9acf53766" y="151.749077"/>
     <use style="fill:#0000ff;fill-opacity:0.8;stroke:#000000;stroke-opacity:0.8;" x="260.371911" xlink:href="#ma9acf53766" y="184.151524"/>
     <use style="fill:#0000ff;fill-opacity:0.8;stroke:#000000;stroke-opacity:0.8;" x="264.154576" xlink:href="#ma9acf53766" y="151.978908"/>
     <use style="fill:#0000ff;fill-opacity:0.8;stroke:#000000;stroke-opacity:0.8;" x="258.812381" xlink:href="#ma9acf53766" y="201.465218"/>
     <use style="fill:#0000ff;fill-opacity:0.8;stroke:#000000;stroke-opacity:0.8;" x="202.273804" xlink:href="#ma9acf53766" y="185.266144"/>
     <use style="fill:#0000ff;fill-opacity:0.8;stroke:#000000;stroke-opacity:0.8;" x="241.20469" xlink:href="#ma9acf53766" y="139.306561"/>
     <use style="fill:#0000ff;fill-opacity:0.8;stroke:#000000;stroke-opacity:0.8;" x="194.737606" xlink:href="#ma9acf53766" y="154.333462"/>
     <use style="fill:#0000ff;fill-opacity:0.8;stroke:#000000;stroke-opacity:0.8;" x="280.142542" xlink:href="#ma9acf53766" y="183.034578"/>
     <use style="fill:#0000ff;fill-opacity:0.8;stroke:#000000;stroke-opacity:0.8;" x="219.549179" xlink:href="#ma9acf53766" y="180.773021"/>
     <use style="fill:#0000ff;fill-opacity:0.8;stroke:#000000;stroke-opacity:0.8;" x="202.730147" xlink:href="#ma9acf53766" y="164.954676"/>
     <use style="fill:#0000ff;fill-opacity:0.8;stroke:#000000;stroke-opacity:0.8;" x="254.13936" xlink:href="#ma9acf53766" y="141.655311"/>
     <use style="fill:#0000ff;fill-opacity:0.8;stroke:#000000;stroke-opacity:0.8;" x="191.497191" xlink:href="#ma9acf53766" y="198.240863"/>
     <use style="fill:#0000ff;fill-opacity:0.8;stroke:#000000;stroke-opacity:0.8;" x="247.194197" xlink:href="#ma9acf53766" y="196.522561"/>
     <use style="fill:#0000ff;fill-opacity:0.8;stroke:#000000;stroke-opacity:0.8;" x="201.860489" xlink:href="#ma9acf53766" y="144.299465"/>
     <use style="fill:#0000ff;fill-opacity:0.8;stroke:#000000;stroke-opacity:0.8;" x="276.937579" xlink:href="#ma9acf53766" y="162.651031"/>
     <use style="fill:#0000ff;fill-opacity:0.8;stroke:#000000;stroke-opacity:0.8;" x="267.065952" xlink:href="#ma9acf53766" y="146.202966"/>
     <use style="fill:#0000ff;fill-opacity:0.8;stroke:#000000;stroke-opacity:0.8;" x="214.588269" xlink:href="#ma9acf53766" y="130.734697"/>
     <use style="fill:#0000ff;fill-opacity:0.8;stroke:#000000;stroke-opacity:0.8;" x="193.521171" xlink:href="#ma9acf53766" y="167.735955"/>
     <use style="fill:#0000ff;fill-opacity:0.8;stroke:#000000;stroke-opacity:0.8;" x="252.610058" xlink:href="#ma9acf53766" y="144.644716"/>
     <use style="fill:#0000ff;fill-opacity:0.8;stroke:#000000;stroke-opacity:0.8;" x="238.291825" xlink:href="#ma9acf53766" y="196.155299"/>
     <use style="fill:#0000ff;fill-opacity:0.8;stroke:#000000;stroke-opacity:0.8;" x="236.151996" xlink:href="#ma9acf53766" y="145.834232"/>
     <use style="fill:#0000ff;fill-opacity:0.8;stroke:#000000;stroke-opacity:0.8;" x="280.864021" xlink:href="#ma9acf53766" y="175.673564"/>
     <use style="fill:#0000ff;fill-opacity:0.8;stroke:#000000;stroke-opacity:0.8;" x="270.86735" xlink:href="#ma9acf53766" y="157.817049"/>
     <use style="fill:#0000ff;fill-opacity:0.8;stroke:#000000;stroke-opacity:0.8;" x="207.974143" xlink:href="#ma9acf53766" y="136.987119"/>
     <use style="fill:#0000ff;fill-opacity:0.8;stroke:#000000;stroke-opacity:0.8;" x="260.99813" xlink:href="#ma9acf53766" y="154.90044"/>
     <use style="fill:#0000ff;fill-opacity:0.8;stroke:#000000;stroke-opacity:0.8;" x="180.825764" xlink:href="#ma9acf53766" y="190.023719"/>
     <use style="fill:#0000ff;fill-opacity:0.8;stroke:#000000;stroke-opacity:0.8;" x="205.76543" xlink:href="#ma9acf53766" y="198.919215"/>
     <use style="fill:#0000ff;fill-opacity:0.8;stroke:#000000;stroke-opacity:0.8;" x="216.035832" xlink:href="#ma9acf53766" y="201.963302"/>
     <use style="fill:#0000ff;fill-opacity:0.8;stroke:#000000;stroke-opacity:0.8;" x="251.925727" xlink:href="#ma9acf53766" y="210.045352"/>
     <use style="fill:#0000ff;fill-opacity:0.8;stroke:#000000;stroke-opacity:0.8;" x="273.332721" xlink:href="#ma9acf53766" y="184.819367"/>
     <use style="fill:#0000ff;fill-opacity:0.8;stroke:#000000;stroke-opacity:0.8;" x="278.218867" xlink:href="#ma9acf53766" y="175.809234"/>
     <use style="fill:#0000ff;fill-opacity:0.8;stroke:#000000;stroke-opacity:0.8;" x="194.571589" xlink:href="#ma9acf53766" y="153.379593"/>
     <use style="fill:#0000ff;fill-opacity:0.8;stroke:#000000;stroke-opacity:0.8;" x="258.181359" xlink:href="#ma9acf53766" y="183.862051"/>
     <use style="fill:#0000ff;fill-opacity:0.8;stroke:#000000;stroke-opacity:0.8;" x="188.877315" xlink:href="#ma9acf53766" y="157.233168"/>
     <use style="fill:#0000ff;fill-opacity:0.8;stroke:#000000;stroke-opacity:0.8;" x="196.469447" xlink:href="#ma9acf53766" y="176.42083"/>
     <use style="fill:#0000ff;fill-opacity:0.8;stroke:#000000;stroke-opacity:0.8;" x="199.727877" xlink:href="#ma9acf53766" y="185.180992"/>
     <use style="fill:#0000ff;fill-opacity:0.8;stroke:#000000;stroke-opacity:0.8;" x="209.276961" xlink:href="#ma9acf53766" y="132.24453"/>
     <use style="fill:#0000ff;fill-opacity:0.8;stroke:#000000;stroke-opacity:0.8;" x="257.865046" xlink:href="#ma9acf53766" y="145.412398"/>
     <use style="fill:#0000ff;fill-opacity:0.8;stroke:#000000;stroke-opacity:0.8;" x="233.927649" xlink:href="#ma9acf53766" y="199.665324"/>
     <use style="fill:#0000ff;fill-opacity:0.8;stroke:#000000;stroke-opacity:0.8;" x="193.771466" xlink:href="#ma9acf53766" y="144.742501"/>
     <use style="fill:#0000ff;fill-opacity:0.8;stroke:#000000;stroke-opacity:0.8;" x="229.439418" xlink:href="#ma9acf53766" y="203.137456"/>
     <use style="fill:#0000ff;fill-opacity:0.8;stroke:#000000;stroke-opacity:0.8;" x="207.070943" xlink:href="#ma9acf53766" y="203.024319"/>
     <use style="fill:#0000ff;fill-opacity:0.8;stroke:#000000;stroke-opacity:0.8;" x="262.337126" xlink:href="#ma9acf53766" y="177.744708"/>
     <use style="fill:#0000ff;fill-opacity:0.8;stroke:#000000;stroke-opacity:0.8;" x="202.120417" xlink:href="#ma9acf53766" y="149.147129"/>
     <use style="fill:#0000ff;fill-opacity:0.8;stroke:#000000;stroke-opacity:0.8;" x="241.742037" xlink:href="#ma9acf53766" y="142.51558"/>
    </g>
   </g>
   <g id="matplotlib.axis_1">
    <g id="xtick_1">
     <g id="line2d_1">
      <defs>
       <path d="M 0 0 
L 0 3.5 
" id="m476448671a" style="stroke:#000000;stroke-width:0.8;"/>
      </defs>
      <g>
       <use style="stroke:#000000;stroke-width:0.8;" x="65.827404" xlink:href="#m476448671a" y="307.584"/>
      </g>
     </g>
     <g id="text_1">
      <!-- −2.0 -->
      <defs>
       <path d="M 10.59375 35.5 
L 73.1875 35.5 
L 73.1875 27.203125 
L 10.59375 27.203125 
z
" id="DejaVuSans-8722"/>
       <path d="M 19.1875 8.296875 
L 53.609375 8.296875 
L 53.609375 0 
L 7.328125 0 
L 7.328125 8.296875 
Q 12.9375 14.109375 22.625 23.890625 
Q 32.328125 33.6875 34.8125 36.53125 
Q 39.546875 41.84375 41.421875 45.53125 
Q 43.3125 49.21875 43.3125 52.78125 
Q 43.3125 58.59375 39.234375 62.25 
Q 35.15625 65.921875 28.609375 65.921875 
Q 23.96875 65.921875 18.8125 64.3125 
Q 13.671875 62.703125 7.8125 59.421875 
L 7.8125 69.390625 
Q 13.765625 71.78125 18.9375 73 
Q 24.125 74.21875 28.421875 74.21875 
Q 39.75 74.21875 46.484375 68.546875 
Q 53.21875 62.890625 53.21875 53.421875 
Q 53.21875 48.921875 51.53125 44.890625 
Q 49.859375 40.875 45.40625 35.40625 
Q 44.1875 33.984375 37.640625 27.21875 
Q 31.109375 20.453125 19.1875 8.296875 
z
" id="DejaVuSans-50"/>
       <path d="M 10.6875 12.40625 
L 21 12.40625 
L 21 0 
L 10.6875 0 
z
" id="DejaVuSans-46"/>
       <path d="M 31.78125 66.40625 
Q 24.171875 66.40625 20.328125 58.90625 
Q 16.5 51.421875 16.5 36.375 
Q 16.5 21.390625 20.328125 13.890625 
Q 24.171875 6.390625 31.78125 6.390625 
Q 39.453125 6.390625 43.28125 13.890625 
Q 47.125 21.390625 47.125 36.375 
Q 47.125 51.421875 43.28125 58.90625 
Q 39.453125 66.40625 31.78125 66.40625 
z
M 31.78125 74.21875 
Q 44.046875 74.21875 50.515625 64.515625 
Q 56.984375 54.828125 56.984375 36.375 
Q 56.984375 17.96875 50.515625 8.265625 
Q 44.046875 -1.421875 31.78125 -1.421875 
Q 19.53125 -1.421875 13.0625 8.265625 
Q 6.59375 17.96875 6.59375 36.375 
Q 6.59375 54.828125 13.0625 64.515625 
Q 19.53125 74.21875 31.78125 74.21875 
z
" id="DejaVuSans-48"/>
      </defs>
      <g transform="translate(53.685998 322.182437)scale(0.1 -0.1)">
       <use xlink:href="#DejaVuSans-8722"/>
       <use x="83.789062" xlink:href="#DejaVuSans-50"/>
       <use x="147.412109" xlink:href="#DejaVuSans-46"/>
       <use x="179.199219" xlink:href="#DejaVuSans-48"/>
      </g>
     </g>
    </g>
    <g id="xtick_2">
     <g id="line2d_2">
      <g>
       <use style="stroke:#000000;stroke-width:0.8;" x="107.742897" xlink:href="#m476448671a" y="307.584"/>
      </g>
     </g>
     <g id="text_2">
      <!-- −1.5 -->
      <defs>
       <path d="M 12.40625 8.296875 
L 28.515625 8.296875 
L 28.515625 63.921875 
L 10.984375 60.40625 
L 10.984375 69.390625 
L 28.421875 72.90625 
L 38.28125 72.90625 
L 38.28125 8.296875 
L 54.390625 8.296875 
L 54.390625 0 
L 12.40625 0 
z
" id="DejaVuSans-49"/>
       <path d="M 10.796875 72.90625 
L 49.515625 72.90625 
L 49.515625 64.59375 
L 19.828125 64.59375 
L 19.828125 46.734375 
Q 21.96875 47.46875 24.109375 47.828125 
Q 26.265625 48.1875 28.421875 48.1875 
Q 40.625 48.1875 47.75 41.5 
Q 54.890625 34.8125 54.890625 23.390625 
Q 54.890625 11.625 47.5625 5.09375 
Q 40.234375 -1.421875 26.90625 -1.421875 
Q 22.3125 -1.421875 17.546875 -0.640625 
Q 12.796875 0.140625 7.71875 1.703125 
L 7.71875 11.625 
Q 12.109375 9.234375 16.796875 8.0625 
Q 21.484375 6.890625 26.703125 6.890625 
Q 35.15625 6.890625 40.078125 11.328125 
Q 45.015625 15.765625 45.015625 23.390625 
Q 45.015625 31 40.078125 35.4375 
Q 35.15625 39.890625 26.703125 39.890625 
Q 22.75 39.890625 18.8125 39.015625 
Q 14.890625 38.140625 10.796875 36.28125 
z
" id="DejaVuSans-53"/>
      </defs>
      <g transform="translate(95.601491 322.182437)scale(0.1 -0.1)">
       <use xlink:href="#DejaVuSans-8722"/>
       <use x="83.789062" xlink:href="#DejaVuSans-49"/>
       <use x="147.412109" xlink:href="#DejaVuSans-46"/>
       <use x="179.199219" xlink:href="#DejaVuSans-53"/>
      </g>
     </g>
    </g>
    <g id="xtick_3">
     <g id="line2d_3">
      <g>
       <use style="stroke:#000000;stroke-width:0.8;" x="149.65839" xlink:href="#m476448671a" y="307.584"/>
      </g>
     </g>
     <g id="text_3">
      <!-- −1.0 -->
      <g transform="translate(137.516984 322.182437)scale(0.1 -0.1)">
       <use xlink:href="#DejaVuSans-8722"/>
       <use x="83.789062" xlink:href="#DejaVuSans-49"/>
       <use x="147.412109" xlink:href="#DejaVuSans-46"/>
       <use x="179.199219" xlink:href="#DejaVuSans-48"/>
      </g>
     </g>
    </g>
    <g id="xtick_4">
     <g id="line2d_4">
      <g>
       <use style="stroke:#000000;stroke-width:0.8;" x="191.573883" xlink:href="#m476448671a" y="307.584"/>
      </g>
     </g>
     <g id="text_4">
      <!-- −0.5 -->
      <g transform="translate(179.432477 322.182437)scale(0.1 -0.1)">
       <use xlink:href="#DejaVuSans-8722"/>
       <use x="83.789062" xlink:href="#DejaVuSans-48"/>
       <use x="147.412109" xlink:href="#DejaVuSans-46"/>
       <use x="179.199219" xlink:href="#DejaVuSans-53"/>
      </g>
     </g>
    </g>
    <g id="xtick_5">
     <g id="line2d_5">
      <g>
       <use style="stroke:#000000;stroke-width:0.8;" x="233.489376" xlink:href="#m476448671a" y="307.584"/>
      </g>
     </g>
     <g id="text_5">
      <!-- 0.0 -->
      <g transform="translate(225.537813 322.182437)scale(0.1 -0.1)">
       <use xlink:href="#DejaVuSans-48"/>
       <use x="63.623047" xlink:href="#DejaVuSans-46"/>
       <use x="95.410156" xlink:href="#DejaVuSans-48"/>
      </g>
     </g>
    </g>
    <g id="xtick_6">
     <g id="line2d_6">
      <g>
       <use style="stroke:#000000;stroke-width:0.8;" x="275.404869" xlink:href="#m476448671a" y="307.584"/>
      </g>
     </g>
     <g id="text_6">
      <!-- 0.5 -->
      <g transform="translate(267.453306 322.182437)scale(0.1 -0.1)">
       <use xlink:href="#DejaVuSans-48"/>
       <use x="63.623047" xlink:href="#DejaVuSans-46"/>
       <use x="95.410156" xlink:href="#DejaVuSans-53"/>
      </g>
     </g>
    </g>
    <g id="xtick_7">
     <g id="line2d_7">
      <g>
       <use style="stroke:#000000;stroke-width:0.8;" x="317.320362" xlink:href="#m476448671a" y="307.584"/>
      </g>
     </g>
     <g id="text_7">
      <!-- 1.0 -->
      <g transform="translate(309.368799 322.182437)scale(0.1 -0.1)">
       <use xlink:href="#DejaVuSans-49"/>
       <use x="63.623047" xlink:href="#DejaVuSans-46"/>
       <use x="95.410156" xlink:href="#DejaVuSans-48"/>
      </g>
     </g>
    </g>
    <g id="xtick_8">
     <g id="line2d_8">
      <g>
       <use style="stroke:#000000;stroke-width:0.8;" x="359.235855" xlink:href="#m476448671a" y="307.584"/>
      </g>
     </g>
     <g id="text_8">
      <!-- 1.5 -->
      <g transform="translate(351.284292 322.182437)scale(0.1 -0.1)">
       <use xlink:href="#DejaVuSans-49"/>
       <use x="63.623047" xlink:href="#DejaVuSans-46"/>
       <use x="95.410156" xlink:href="#DejaVuSans-53"/>
      </g>
     </g>
    </g>
    <g id="xtick_9">
     <g id="line2d_9">
      <g>
       <use style="stroke:#000000;stroke-width:0.8;" x="401.151348" xlink:href="#m476448671a" y="307.584"/>
      </g>
     </g>
     <g id="text_9">
      <!-- 2.0 -->
      <g transform="translate(393.199785 322.182437)scale(0.1 -0.1)">
       <use xlink:href="#DejaVuSans-50"/>
       <use x="63.623047" xlink:href="#DejaVuSans-46"/>
       <use x="95.410156" xlink:href="#DejaVuSans-48"/>
      </g>
     </g>
    </g>
   </g>
   <g id="matplotlib.axis_2">
    <g id="ytick_1">
     <g id="line2d_10">
      <defs>
       <path d="M 0 0 
L -3.5 0 
" id="mf32f392582" style="stroke:#000000;stroke-width:0.8;"/>
      </defs>
      <g>
       <use style="stroke:#000000;stroke-width:0.8;" x="57.6" xlink:href="#mf32f392582" y="287.758415"/>
      </g>
     </g>
     <g id="text_10">
      <!-- −2.0 -->
      <g transform="translate(26.317187 291.557633)scale(0.1 -0.1)">
       <use xlink:href="#DejaVuSans-8722"/>
       <use x="83.789062" xlink:href="#DejaVuSans-50"/>
       <use x="147.412109" xlink:href="#DejaVuSans-46"/>
       <use x="179.199219" xlink:href="#DejaVuSans-48"/>
      </g>
     </g>
    </g>
    <g id="ytick_2">
     <g id="line2d_11">
      <g>
       <use style="stroke:#000000;stroke-width:0.8;" x="57.6" xlink:href="#mf32f392582" y="258.058415"/>
      </g>
     </g>
     <g id="text_11">
      <!-- −1.5 -->
      <g transform="translate(26.317187 261.857633)scale(0.1 -0.1)">
       <use xlink:href="#DejaVuSans-8722"/>
       <use x="83.789062" xlink:href="#DejaVuSans-49"/>
       <use x="147.412109" xlink:href="#DejaVuSans-46"/>
       <use x="179.199219" xlink:href="#DejaVuSans-53"/>
      </g>
     </g>
    </g>
    <g id="ytick_3">
     <g id="line2d_12">
      <g>
       <use style="stroke:#000000;stroke-width:0.8;" x="57.6" xlink:href="#mf32f392582" y="228.358415"/>
      </g>
     </g>
     <g id="text_12">
      <!-- −1.0 -->
      <g transform="translate(26.317187 232.157633)scale(0.1 -0.1)">
       <use xlink:href="#DejaVuSans-8722"/>
       <use x="83.789062" xlink:href="#DejaVuSans-49"/>
       <use x="147.412109" xlink:href="#DejaVuSans-46"/>
       <use x="179.199219" xlink:href="#DejaVuSans-48"/>
      </g>
     </g>
    </g>
    <g id="ytick_4">
     <g id="line2d_13">
      <g>
       <use style="stroke:#000000;stroke-width:0.8;" x="57.6" xlink:href="#mf32f392582" y="198.658415"/>
      </g>
     </g>
     <g id="text_13">
      <!-- −0.5 -->
      <g transform="translate(26.317187 202.457633)scale(0.1 -0.1)">
       <use xlink:href="#DejaVuSans-8722"/>
       <use x="83.789062" xlink:href="#DejaVuSans-48"/>
       <use x="147.412109" xlink:href="#DejaVuSans-46"/>
       <use x="179.199219" xlink:href="#DejaVuSans-53"/>
      </g>
     </g>
    </g>
    <g id="ytick_5">
     <g id="line2d_14">
      <g>
       <use style="stroke:#000000;stroke-width:0.8;" x="57.6" xlink:href="#mf32f392582" y="168.958415"/>
      </g>
     </g>
     <g id="text_14">
      <!-- 0.0 -->
      <g transform="translate(34.696875 172.757633)scale(0.1 -0.1)">
       <use xlink:href="#DejaVuSans-48"/>
       <use x="63.623047" xlink:href="#DejaVuSans-46"/>
       <use x="95.410156" xlink:href="#DejaVuSans-48"/>
      </g>
     </g>
    </g>
    <g id="ytick_6">
     <g id="line2d_15">
      <g>
       <use style="stroke:#000000;stroke-width:0.8;" x="57.6" xlink:href="#mf32f392582" y="139.258415"/>
      </g>
     </g>
     <g id="text_15">
      <!-- 0.5 -->
      <g transform="translate(34.696875 143.057633)scale(0.1 -0.1)">
       <use xlink:href="#DejaVuSans-48"/>
       <use x="63.623047" xlink:href="#DejaVuSans-46"/>
       <use x="95.410156" xlink:href="#DejaVuSans-53"/>
      </g>
     </g>
    </g>
    <g id="ytick_7">
     <g id="line2d_16">
      <g>
       <use style="stroke:#000000;stroke-width:0.8;" x="57.6" xlink:href="#mf32f392582" y="109.558415"/>
      </g>
     </g>
     <g id="text_16">
      <!-- 1.0 -->
      <g transform="translate(34.696875 113.357633)scale(0.1 -0.1)">
       <use xlink:href="#DejaVuSans-49"/>
       <use x="63.623047" xlink:href="#DejaVuSans-46"/>
       <use x="95.410156" xlink:href="#DejaVuSans-48"/>
      </g>
     </g>
    </g>
    <g id="ytick_8">
     <g id="line2d_17">
      <g>
       <use style="stroke:#000000;stroke-width:0.8;" x="57.6" xlink:href="#mf32f392582" y="79.858415"/>
      </g>
     </g>
     <g id="text_17">
      <!-- 1.5 -->
      <g transform="translate(34.696875 83.657633)scale(0.1 -0.1)">
       <use xlink:href="#DejaVuSans-49"/>
       <use x="63.623047" xlink:href="#DejaVuSans-46"/>
       <use x="95.410156" xlink:href="#DejaVuSans-53"/>
      </g>
     </g>
    </g>
    <g id="ytick_9">
     <g id="line2d_18">
      <g>
       <use style="stroke:#000000;stroke-width:0.8;" x="57.6" xlink:href="#mf32f392582" y="50.158415"/>
      </g>
     </g>
     <g id="text_18">
      <!-- 2.0 -->
      <g transform="translate(34.696875 53.957633)scale(0.1 -0.1)">
       <use xlink:href="#DejaVuSans-50"/>
       <use x="63.623047" xlink:href="#DejaVuSans-46"/>
       <use x="95.410156" xlink:href="#DejaVuSans-48"/>
      </g>
     </g>
    </g>
   </g>
   <g id="patch_3">
    <path d="M 57.6 307.584 
L 57.6 41.472 
" style="fill:none;stroke:#000000;stroke-linecap:square;stroke-linejoin:miter;stroke-width:0.8;"/>
   </g>
   <g id="patch_4">
    <path d="M 414.72 307.584 
L 414.72 41.472 
" style="fill:none;stroke:#000000;stroke-linecap:square;stroke-linejoin:miter;stroke-width:0.8;"/>
   </g>
   <g id="patch_5">
    <path d="M 57.6 307.584 
L 414.72 307.584 
" style="fill:none;stroke:#000000;stroke-linecap:square;stroke-linejoin:miter;stroke-width:0.8;"/>
   </g>
   <g id="patch_6">
    <path d="M 57.6 41.472 
L 414.72 41.472 
" style="fill:none;stroke:#000000;stroke-linecap:square;stroke-linejoin:miter;stroke-width:0.8;"/>
   </g>
   <g id="text_19">
    <!-- Training Set -->
    <defs>
     <path d="M -0.296875 72.90625 
L 61.375 72.90625 
L 61.375 64.59375 
L 35.5 64.59375 
L 35.5 0 
L 25.59375 0 
L 25.59375 64.59375 
L -0.296875 64.59375 
z
" id="DejaVuSans-84"/>
     <path d="M 41.109375 46.296875 
Q 39.59375 47.171875 37.8125 47.578125 
Q 36.03125 48 33.890625 48 
Q 26.265625 48 22.1875 43.046875 
Q 18.109375 38.09375 18.109375 28.8125 
L 18.109375 0 
L 9.078125 0 
L 9.078125 54.6875 
L 18.109375 54.6875 
L 18.109375 46.1875 
Q 20.953125 51.171875 25.484375 53.578125 
Q 30.03125 56 36.53125 56 
Q 37.453125 56 38.578125 55.875 
Q 39.703125 55.765625 41.0625 55.515625 
z
" id="DejaVuSans-114"/>
     <path d="M 34.28125 27.484375 
Q 23.390625 27.484375 19.1875 25 
Q 14.984375 22.515625 14.984375 16.5 
Q 14.984375 11.71875 18.140625 8.90625 
Q 21.296875 6.109375 26.703125 6.109375 
Q 34.1875 6.109375 38.703125 11.40625 
Q 43.21875 16.703125 43.21875 25.484375 
L 43.21875 27.484375 
z
M 52.203125 31.203125 
L 52.203125 0 
L 43.21875 0 
L 43.21875 8.296875 
Q 40.140625 3.328125 35.546875 0.953125 
Q 30.953125 -1.421875 24.3125 -1.421875 
Q 15.921875 -1.421875 10.953125 3.296875 
Q 6 8.015625 6 15.921875 
Q 6 25.140625 12.171875 29.828125 
Q 18.359375 34.515625 30.609375 34.515625 
L 43.21875 34.515625 
L 43.21875 35.40625 
Q 43.21875 41.609375 39.140625 45 
Q 35.0625 48.390625 27.6875 48.390625 
Q 23 48.390625 18.546875 47.265625 
Q 14.109375 46.140625 10.015625 43.890625 
L 10.015625 52.203125 
Q 14.9375 54.109375 19.578125 55.046875 
Q 24.21875 56 28.609375 56 
Q 40.484375 56 46.34375 49.84375 
Q 52.203125 43.703125 52.203125 31.203125 
z
" id="DejaVuSans-97"/>
     <path d="M 9.421875 54.6875 
L 18.40625 54.6875 
L 18.40625 0 
L 9.421875 0 
z
M 9.421875 75.984375 
L 18.40625 75.984375 
L 18.40625 64.59375 
L 9.421875 64.59375 
z
" id="DejaVuSans-105"/>
     <path d="M 54.890625 33.015625 
L 54.890625 0 
L 45.90625 0 
L 45.90625 32.71875 
Q 45.90625 40.484375 42.875 44.328125 
Q 39.84375 48.1875 33.796875 48.1875 
Q 26.515625 48.1875 22.3125 43.546875 
Q 18.109375 38.921875 18.109375 30.90625 
L 18.109375 0 
L 9.078125 0 
L 9.078125 54.6875 
L 18.109375 54.6875 
L 18.109375 46.1875 
Q 21.34375 51.125 25.703125 53.5625 
Q 30.078125 56 35.796875 56 
Q 45.21875 56 50.046875 50.171875 
Q 54.890625 44.34375 54.890625 33.015625 
z
" id="DejaVuSans-110"/>
     <path d="M 45.40625 27.984375 
Q 45.40625 37.75 41.375 43.109375 
Q 37.359375 48.484375 30.078125 48.484375 
Q 22.859375 48.484375 18.828125 43.109375 
Q 14.796875 37.75 14.796875 27.984375 
Q 14.796875 18.265625 18.828125 12.890625 
Q 22.859375 7.515625 30.078125 7.515625 
Q 37.359375 7.515625 41.375 12.890625 
Q 45.40625 18.265625 45.40625 27.984375 
z
M 54.390625 6.78125 
Q 54.390625 -7.171875 48.1875 -13.984375 
Q 42 -20.796875 29.203125 -20.796875 
Q 24.46875 -20.796875 20.265625 -20.09375 
Q 16.0625 -19.390625 12.109375 -17.921875 
L 12.109375 -9.1875 
Q 16.0625 -11.328125 19.921875 -12.34375 
Q 23.78125 -13.375 27.78125 -13.375 
Q 36.625 -13.375 41.015625 -8.765625 
Q 45.40625 -4.15625 45.40625 5.171875 
L 45.40625 9.625 
Q 42.625 4.78125 38.28125 2.390625 
Q 33.9375 0 27.875 0 
Q 17.828125 0 11.671875 7.65625 
Q 5.515625 15.328125 5.515625 27.984375 
Q 5.515625 40.671875 11.671875 48.328125 
Q 17.828125 56 27.875 56 
Q 33.9375 56 38.28125 53.609375 
Q 42.625 51.21875 45.40625 46.390625 
L 45.40625 54.6875 
L 54.390625 54.6875 
z
" id="DejaVuSans-103"/>
     <path id="DejaVuSans-32"/>
     <path d="M 53.515625 70.515625 
L 53.515625 60.890625 
Q 47.90625 63.578125 42.921875 64.890625 
Q 37.9375 66.21875 33.296875 66.21875 
Q 25.25 66.21875 20.875 63.09375 
Q 16.5 59.96875 16.5 54.203125 
Q 16.5 49.359375 19.40625 46.890625 
Q 22.3125 44.4375 30.421875 42.921875 
L 36.375 41.703125 
Q 47.40625 39.59375 52.65625 34.296875 
Q 57.90625 29 57.90625 20.125 
Q 57.90625 9.515625 50.796875 4.046875 
Q 43.703125 -1.421875 29.984375 -1.421875 
Q 24.8125 -1.421875 18.96875 -0.25 
Q 13.140625 0.921875 6.890625 3.21875 
L 6.890625 13.375 
Q 12.890625 10.015625 18.65625 8.296875 
Q 24.421875 6.59375 29.984375 6.59375 
Q 38.421875 6.59375 43.015625 9.90625 
Q 47.609375 13.234375 47.609375 19.390625 
Q 47.609375 24.75 44.3125 27.78125 
Q 41.015625 30.8125 33.5 32.328125 
L 27.484375 33.5 
Q 16.453125 35.6875 11.515625 40.375 
Q 6.59375 45.0625 6.59375 53.421875 
Q 6.59375 63.09375 13.40625 68.65625 
Q 20.21875 74.21875 32.171875 74.21875 
Q 37.3125 74.21875 42.625 73.28125 
Q 47.953125 72.359375 53.515625 70.515625 
z
" id="DejaVuSans-83"/>
     <path d="M 56.203125 29.59375 
L 56.203125 25.203125 
L 14.890625 25.203125 
Q 15.484375 15.921875 20.484375 11.0625 
Q 25.484375 6.203125 34.421875 6.203125 
Q 39.59375 6.203125 44.453125 7.46875 
Q 49.3125 8.734375 54.109375 11.28125 
L 54.109375 2.78125 
Q 49.265625 0.734375 44.1875 -0.34375 
Q 39.109375 -1.421875 33.890625 -1.421875 
Q 20.796875 -1.421875 13.15625 6.1875 
Q 5.515625 13.8125 5.515625 26.8125 
Q 5.515625 40.234375 12.765625 48.109375 
Q 20.015625 56 32.328125 56 
Q 43.359375 56 49.78125 48.890625 
Q 56.203125 41.796875 56.203125 29.59375 
z
M 47.21875 32.234375 
Q 47.125 39.59375 43.09375 43.984375 
Q 39.0625 48.390625 32.421875 48.390625 
Q 24.90625 48.390625 20.390625 44.140625 
Q 15.875 39.890625 15.1875 32.171875 
z
" id="DejaVuSans-101"/>
     <path d="M 18.3125 70.21875 
L 18.3125 54.6875 
L 36.8125 54.6875 
L 36.8125 47.703125 
L 18.3125 47.703125 
L 18.3125 18.015625 
Q 18.3125 11.328125 20.140625 9.421875 
Q 21.96875 7.515625 27.59375 7.515625 
L 36.8125 7.515625 
L 36.8125 0 
L 27.59375 0 
Q 17.1875 0 13.234375 3.875 
Q 9.28125 7.765625 9.28125 18.015625 
L 9.28125 47.703125 
L 2.6875 47.703125 
L 2.6875 54.6875 
L 9.28125 54.6875 
L 9.28125 70.21875 
z
" id="DejaVuSans-116"/>
    </defs>
    <g transform="translate(199.857188 35.472)scale(0.12 -0.12)">
     <use xlink:href="#DejaVuSans-84"/>
     <use x="60.865234" xlink:href="#DejaVuSans-114"/>
     <use x="101.978516" xlink:href="#DejaVuSans-97"/>
     <use x="163.257812" xlink:href="#DejaVuSans-105"/>
     <use x="191.041016" xlink:href="#DejaVuSans-110"/>
     <use x="254.419922" xlink:href="#DejaVuSans-105"/>
     <use x="282.203125" xlink:href="#DejaVuSans-110"/>
     <use x="345.582031" xlink:href="#DejaVuSans-103"/>
     <use x="409.058594" xlink:href="#DejaVuSans-32"/>
     <use x="440.845703" xlink:href="#DejaVuSans-83"/>
     <use x="504.322266" xlink:href="#DejaVuSans-101"/>
     <use x="565.845703" xlink:href="#DejaVuSans-116"/>
    </g>
   </g>
   <g id="legend_1">
    <g id="patch_7">
     <path d="M 369.3575 78.82825 
L 407.72 78.82825 
Q 409.72 78.82825 409.72 76.82825 
L 409.72 48.472 
Q 409.72 46.472 407.72 46.472 
L 369.3575 46.472 
Q 367.3575 46.472 367.3575 48.472 
L 367.3575 76.82825 
Q 367.3575 78.82825 369.3575 78.82825 
z
" style="fill:#ffffff;opacity:0.8;stroke:#cccccc;stroke-linejoin:miter;"/>
    </g>
    <g id="PathCollection_3">
     <g>
      <use style="fill:#ff0000;fill-opacity:0.8;stroke:#000000;stroke-opacity:0.8;" x="381.3575" xlink:href="#me935cb885d" y="55.445437"/>
     </g>
    </g>
    <g id="text_20">
     <!-- 0 -->
     <g transform="translate(399.3575 58.070437)scale(0.1 -0.1)">
      <use xlink:href="#DejaVuSans-48"/>
     </g>
    </g>
    <g id="PathCollection_4">
     <g>
      <use style="fill:#0000ff;fill-opacity:0.8;stroke:#000000;stroke-opacity:0.8;" x="381.3575" xlink:href="#ma9acf53766" y="70.123562"/>
     </g>
    </g>
    <g id="text_21">
     <!-- 1 -->
     <g transform="translate(399.3575 72.748562)scale(0.1 -0.1)">
      <use xlink:href="#DejaVuSans-49"/>
     </g>
    </g>
   </g>
  </g>
 </g>
 <defs>
  <clipPath id="pf50c9af7cf">
   <rect height="266.112" width="357.12" x="57.6" y="41.472"/>
  </clipPath>
 </defs>
</svg>
