<?xml version="1.0" encoding="utf-8" standalone="no"?>
<!DOCTYPE svg PUBLIC "-//W3C//DTD SVG 1.1//EN"
  "http://www.w3.org/Graphics/SVG/1.1/DTD/svg11.dtd">
<!-- Created with matplotlib (https://matplotlib.org/) -->
<svg height="345.6pt" version="1.1" viewBox="0 0 460.8 345.6" width="460.8pt" xmlns="http://www.w3.org/2000/svg" xmlns:xlink="http://www.w3.org/1999/xlink">
 <defs>
  <style type="text/css">
*{stroke-linecap:butt;stroke-linejoin:round;white-space:pre;}
  </style>
 </defs>
 <g id="figure_1">
  <g id="patch_1">
   <path d="M 0 345.6 
L 460.8 345.6 
L 460.8 0 
L 0 0 
z
" style="fill:#ffffff;"/>
  </g>
  <g id="axes_1">
   <g id="patch_2">
    <path d="M 57.6 307.584 
L 414.72 307.584 
L 414.72 41.472 
L 57.6 41.472 
z
" style="fill:#ffffff;"/>
   </g>
   <g id="PathCollection_1">
    <defs>
     <path d="M 0 3 
C 0.795609 3 1.55874 2.683901 2.12132 2.12132 
C 2.683901 1.55874 3 0.795609 3 0 
C 3 -0.795609 2.683901 -1.55874 2.12132 -2.12132 
C 1.55874 -2.683901 0.795609 -3 0 -3 
C -0.795609 -3 -1.55874 -2.683901 -2.12132 -2.12132 
C -2.683901 -1.55874 -3 -0.795609 -3 0 
C -3 0.795609 -2.683901 1.55874 -2.12132 2.12132 
C -1.55874 2.683901 -0.795609 3 0 3 
z
" id="me50aedfbd1" style="stroke:#1a1a1a;"/>
    </defs>
    <g clip-path="url(#p222077a4b5)">
     <use style="fill:#1f77b4;stroke:#1a1a1a;" x="73.848821" xlink:href="#me50aedfbd1" y="201.677788"/>
     <use style="fill:#1f77b4;stroke:#1a1a1a;" x="73.848821" xlink:href="#me50aedfbd1" y="98.01496"/>
     <use style="fill:#1f77b4;stroke:#1a1a1a;" x="76.50966" xlink:href="#me50aedfbd1" y="283.127153"/>
     <use style="fill:#1f77b4;stroke:#1a1a1a;" x="76.50966" xlink:href="#me50aedfbd1" y="107.88761"/>
     <use style="fill:#1f77b4;stroke:#1a1a1a;" x="79.170499" xlink:href="#me50aedfbd1" y="199.209626"/>
     <use style="fill:#1f77b4;stroke:#1a1a1a;" x="79.170499" xlink:href="#me50aedfbd1" y="110.355773"/>
     <use style="fill:#1f77b4;stroke:#1a1a1a;" x="81.831338" xlink:href="#me50aedfbd1" y="283.127153"/>
     <use style="fill:#1f77b4;stroke:#1a1a1a;" x="81.831338" xlink:href="#me50aedfbd1" y="65.928847"/>
     <use style="fill:#1f77b4;stroke:#1a1a1a;" x="84.492177" xlink:href="#me50aedfbd1" y="290.531641"/>
     <use style="fill:#1f77b4;stroke:#1a1a1a;" x="84.492177" xlink:href="#me50aedfbd1" y="120.228423"/>
     <use style="fill:#1f77b4;stroke:#1a1a1a;" x="84.492177" xlink:href="#me50aedfbd1" y="263.381853"/>
     <use style="fill:#1f77b4;stroke:#1a1a1a;" x="84.492177" xlink:href="#me50aedfbd1" y="53.588034"/>
     <use style="fill:#1f77b4;stroke:#1a1a1a;" x="87.153016" xlink:href="#me50aedfbd1" y="260.91369"/>
     <use style="fill:#1f77b4;stroke:#1a1a1a;" x="87.153016" xlink:href="#me50aedfbd1" y="107.88761"/>
     <use style="fill:#1f77b4;stroke:#1a1a1a;" x="87.153016" xlink:href="#me50aedfbd1" y="265.850015"/>
     <use style="fill:#1f77b4;stroke:#1a1a1a;" x="87.153016" xlink:href="#me50aedfbd1" y="102.951285"/>
     <use style="fill:#1f77b4;stroke:#1a1a1a;" x="89.813855" xlink:href="#me50aedfbd1" y="211.550439"/>
     <use style="fill:#1f77b4;stroke:#1a1a1a;" x="89.813855" xlink:href="#me50aedfbd1" y="135.037399"/>
     <use style="fill:#1f77b4;stroke:#1a1a1a;" x="95.135533" xlink:href="#me50aedfbd1" y="226.359414"/>
     <use style="fill:#1f77b4;stroke:#1a1a1a;" x="95.135533" xlink:href="#me50aedfbd1" y="56.056196"/>
     <use style="fill:#1f77b4;stroke:#1a1a1a;" x="97.796372" xlink:href="#me50aedfbd1" y="211.550439"/>
     <use style="fill:#1f77b4;stroke:#1a1a1a;" x="97.796372" xlink:href="#me50aedfbd1" y="117.760261"/>
     <use style="fill:#1f77b4;stroke:#1a1a1a;" x="100.457211" xlink:href="#me50aedfbd1" y="285.595316"/>
     <use style="fill:#1f77b4;stroke:#1a1a1a;" x="100.457211" xlink:href="#me50aedfbd1" y="117.760261"/>
     <use style="fill:#1f77b4;stroke:#1a1a1a;" x="108.439728" xlink:href="#me50aedfbd1" y="263.381853"/>
     <use style="fill:#1f77b4;stroke:#1a1a1a;" x="108.439728" xlink:href="#me50aedfbd1" y="95.546798"/>
     <use style="fill:#1f77b4;stroke:#1a1a1a;" x="108.439728" xlink:href="#me50aedfbd1" y="218.954926"/>
     <use style="fill:#1f77b4;stroke:#1a1a1a;" x="108.439728" xlink:href="#me50aedfbd1" y="147.378212"/>
     <use style="fill:#1f77b4;stroke:#1a1a1a;" x="111.100567" xlink:href="#me50aedfbd1" y="221.423089"/>
     <use style="fill:#1f77b4;stroke:#1a1a1a;" x="111.100567" xlink:href="#me50aedfbd1" y="83.205985"/>
     <use style="fill:#1f77b4;stroke:#1a1a1a;" x="113.761406" xlink:href="#me50aedfbd1" y="288.063478"/>
     <use style="fill:#1f77b4;stroke:#1a1a1a;" x="113.761406" xlink:href="#me50aedfbd1" y="117.760261"/>
     <use style="fill:#1f77b4;stroke:#1a1a1a;" x="121.743923" xlink:href="#me50aedfbd1" y="288.063478"/>
     <use style="fill:#1f77b4;stroke:#1a1a1a;" x="121.743923" xlink:href="#me50aedfbd1" y="70.865172"/>
     <use style="fill:#1f77b4;stroke:#1a1a1a;" x="121.743923" xlink:href="#me50aedfbd1" y="263.381853"/>
     <use style="fill:#1f77b4;stroke:#1a1a1a;" x="121.743923" xlink:href="#me50aedfbd1" y="98.01496"/>
     <use style="fill:#1f77b4;stroke:#1a1a1a;" x="124.404762" xlink:href="#me50aedfbd1" y="255.977365"/>
     <use style="fill:#1f77b4;stroke:#1a1a1a;" x="124.404762" xlink:href="#me50aedfbd1" y="117.760261"/>
     <use style="fill:#1f77b4;stroke:#1a1a1a;" x="132.387279" xlink:href="#me50aedfbd1" y="233.763902"/>
     <use style="fill:#1f77b4;stroke:#1a1a1a;" x="132.387279" xlink:href="#me50aedfbd1" y="112.823936"/>
     <use style="fill:#1f77b4;stroke:#1a1a1a;" x="135.048118" xlink:href="#me50aedfbd1" y="211.550439"/>
     <use style="fill:#1f77b4;stroke:#1a1a1a;" x="135.048118" xlink:href="#me50aedfbd1" y="70.865172"/>
     <use style="fill:#1f77b4;stroke:#1a1a1a;" x="137.708957" xlink:href="#me50aedfbd1" y="209.082276"/>
     <use style="fill:#1f77b4;stroke:#1a1a1a;" x="137.708957" xlink:href="#me50aedfbd1" y="147.378212"/>
     <use style="fill:#1f77b4;stroke:#1a1a1a;" x="137.708957" xlink:href="#me50aedfbd1" y="228.827577"/>
     <use style="fill:#1f77b4;stroke:#1a1a1a;" x="137.708957" xlink:href="#me50aedfbd1" y="137.505561"/>
     <use style="fill:#1f77b4;stroke:#1a1a1a;" x="140.369796" xlink:href="#me50aedfbd1" y="162.187187"/>
     <use style="fill:#1f77b4;stroke:#1a1a1a;" x="140.369796" xlink:href="#me50aedfbd1" y="181.932488"/>
     <use style="fill:#1f77b4;stroke:#1a1a1a;" x="140.369796" xlink:href="#me50aedfbd1" y="194.273301"/>
     <use style="fill:#1f77b4;stroke:#1a1a1a;" x="140.369796" xlink:href="#me50aedfbd1" y="194.273301"/>
     <use style="fill:#1f77b4;stroke:#1a1a1a;" x="145.691474" xlink:href="#me50aedfbd1" y="169.591675"/>
     <use style="fill:#1f77b4;stroke:#1a1a1a;" x="145.691474" xlink:href="#me50aedfbd1" y="149.846374"/>
     <use style="fill:#1f77b4;stroke:#1a1a1a;" x="148.352313" xlink:href="#me50aedfbd1" y="164.65535"/>
     <use style="fill:#1f77b4;stroke:#1a1a1a;" x="148.352313" xlink:href="#me50aedfbd1" y="149.846374"/>
     <use style="fill:#1f77b4;stroke:#1a1a1a;" x="148.352313" xlink:href="#me50aedfbd1" y="186.868813"/>
     <use style="fill:#1f77b4;stroke:#1a1a1a;" x="148.352313" xlink:href="#me50aedfbd1" y="196.741463"/>
     <use style="fill:#1f77b4;stroke:#1a1a1a;" x="151.013152" xlink:href="#me50aedfbd1" y="174.528"/>
     <use style="fill:#1f77b4;stroke:#1a1a1a;" x="151.013152" xlink:href="#me50aedfbd1" y="184.40065"/>
     <use style="fill:#1f77b4;stroke:#1a1a1a;" x="156.33483" xlink:href="#me50aedfbd1" y="172.059837"/>
     <use style="fill:#1f77b4;stroke:#1a1a1a;" x="156.33483" xlink:href="#me50aedfbd1" y="184.40065"/>
     <use style="fill:#1f77b4;stroke:#1a1a1a;" x="156.33483" xlink:href="#me50aedfbd1" y="159.719025"/>
     <use style="fill:#1f77b4;stroke:#1a1a1a;" x="156.33483" xlink:href="#me50aedfbd1" y="162.187187"/>
     <use style="fill:#1f77b4;stroke:#1a1a1a;" x="158.995669" xlink:href="#me50aedfbd1" y="169.591675"/>
     <use style="fill:#1f77b4;stroke:#1a1a1a;" x="158.995669" xlink:href="#me50aedfbd1" y="152.314537"/>
     <use style="fill:#1f77b4;stroke:#1a1a1a;" x="161.656508" xlink:href="#me50aedfbd1" y="172.059837"/>
     <use style="fill:#1f77b4;stroke:#1a1a1a;" x="161.656508" xlink:href="#me50aedfbd1" y="152.314537"/>
     <use style="fill:#1f77b4;stroke:#1a1a1a;" x="161.656508" xlink:href="#me50aedfbd1" y="174.528"/>
     <use style="fill:#1f77b4;stroke:#1a1a1a;" x="161.656508" xlink:href="#me50aedfbd1" y="179.464325"/>
     <use style="fill:#1f77b4;stroke:#1a1a1a;" x="161.656508" xlink:href="#me50aedfbd1" y="152.314537"/>
     <use style="fill:#1f77b4;stroke:#1a1a1a;" x="161.656508" xlink:href="#me50aedfbd1" y="181.932488"/>
     <use style="fill:#1f77b4;stroke:#1a1a1a;" x="164.317347" xlink:href="#me50aedfbd1" y="162.187187"/>
     <use style="fill:#1f77b4;stroke:#1a1a1a;" x="164.317347" xlink:href="#me50aedfbd1" y="194.273301"/>
     <use style="fill:#1f77b4;stroke:#1a1a1a;" x="166.978186" xlink:href="#me50aedfbd1" y="176.996163"/>
     <use style="fill:#1f77b4;stroke:#1a1a1a;" x="166.978186" xlink:href="#me50aedfbd1" y="159.719025"/>
     <use style="fill:#1f77b4;stroke:#1a1a1a;" x="177.621542" xlink:href="#me50aedfbd1" y="181.932488"/>
     <use style="fill:#1f77b4;stroke:#1a1a1a;" x="177.621542" xlink:href="#me50aedfbd1" y="164.65535"/>
     <use style="fill:#1f77b4;stroke:#1a1a1a;" x="177.621542" xlink:href="#me50aedfbd1" y="167.123512"/>
     <use style="fill:#1f77b4;stroke:#1a1a1a;" x="177.621542" xlink:href="#me50aedfbd1" y="179.464325"/>
     <use style="fill:#1f77b4;stroke:#1a1a1a;" x="177.621542" xlink:href="#me50aedfbd1" y="169.591675"/>
     <use style="fill:#1f77b4;stroke:#1a1a1a;" x="177.621542" xlink:href="#me50aedfbd1" y="194.273301"/>
     <use style="fill:#1f77b4;stroke:#1a1a1a;" x="177.621542" xlink:href="#me50aedfbd1" y="172.059837"/>
     <use style="fill:#1f77b4;stroke:#1a1a1a;" x="177.621542" xlink:href="#me50aedfbd1" y="162.187187"/>
     <use style="fill:#1f77b4;stroke:#1a1a1a;" x="177.621542" xlink:href="#me50aedfbd1" y="196.741463"/>
     <use style="fill:#1f77b4;stroke:#1a1a1a;" x="177.621542" xlink:href="#me50aedfbd1" y="189.336975"/>
     <use style="fill:#1f77b4;stroke:#1a1a1a;" x="177.621542" xlink:href="#me50aedfbd1" y="157.250862"/>
     <use style="fill:#1f77b4;stroke:#1a1a1a;" x="177.621542" xlink:href="#me50aedfbd1" y="184.40065"/>
     <use style="fill:#1f77b4;stroke:#1a1a1a;" x="185.604059" xlink:href="#me50aedfbd1" y="154.782699"/>
     <use style="fill:#1f77b4;stroke:#1a1a1a;" x="185.604059" xlink:href="#me50aedfbd1" y="162.187187"/>
     <use style="fill:#1f77b4;stroke:#1a1a1a;" x="188.264898" xlink:href="#me50aedfbd1" y="149.846374"/>
     <use style="fill:#1f77b4;stroke:#1a1a1a;" x="188.264898" xlink:href="#me50aedfbd1" y="184.40065"/>
     <use style="fill:#1f77b4;stroke:#1a1a1a;" x="190.925737" xlink:href="#me50aedfbd1" y="162.187187"/>
     <use style="fill:#1f77b4;stroke:#1a1a1a;" x="190.925737" xlink:href="#me50aedfbd1" y="196.741463"/>
     <use style="fill:#1f77b4;stroke:#1a1a1a;" x="193.586576" xlink:href="#me50aedfbd1" y="176.996163"/>
     <use style="fill:#1f77b4;stroke:#1a1a1a;" x="193.586576" xlink:href="#me50aedfbd1" y="199.209626"/>
     <use style="fill:#1f77b4;stroke:#1a1a1a;" x="193.586576" xlink:href="#me50aedfbd1" y="194.273301"/>
     <use style="fill:#1f77b4;stroke:#1a1a1a;" x="193.586576" xlink:href="#me50aedfbd1" y="169.591675"/>
     <use style="fill:#1f77b4;stroke:#1a1a1a;" x="193.586576" xlink:href="#me50aedfbd1" y="181.932488"/>
     <use style="fill:#1f77b4;stroke:#1a1a1a;" x="193.586576" xlink:href="#me50aedfbd1" y="174.528"/>
     <use style="fill:#1f77b4;stroke:#1a1a1a;" x="196.247415" xlink:href="#me50aedfbd1" y="194.273301"/>
     <use style="fill:#1f77b4;stroke:#1a1a1a;" x="196.247415" xlink:href="#me50aedfbd1" y="176.996163"/>
     <use style="fill:#1f77b4;stroke:#1a1a1a;" x="198.908254" xlink:href="#me50aedfbd1" y="196.741463"/>
     <use style="fill:#1f77b4;stroke:#1a1a1a;" x="198.908254" xlink:href="#me50aedfbd1" y="179.464325"/>
     <use style="fill:#1f77b4;stroke:#1a1a1a;" x="198.908254" xlink:href="#me50aedfbd1" y="152.314537"/>
     <use style="fill:#1f77b4;stroke:#1a1a1a;" x="198.908254" xlink:href="#me50aedfbd1" y="162.187187"/>
     <use style="fill:#1f77b4;stroke:#1a1a1a;" x="198.908254" xlink:href="#me50aedfbd1" y="159.719025"/>
     <use style="fill:#1f77b4;stroke:#1a1a1a;" x="198.908254" xlink:href="#me50aedfbd1" y="194.273301"/>
     <use style="fill:#1f77b4;stroke:#1a1a1a;" x="201.569093" xlink:href="#me50aedfbd1" y="174.528"/>
     <use style="fill:#1f77b4;stroke:#1a1a1a;" x="201.569093" xlink:href="#me50aedfbd1" y="184.40065"/>
     <use style="fill:#1f77b4;stroke:#1a1a1a;" x="201.569093" xlink:href="#me50aedfbd1" y="191.805138"/>
     <use style="fill:#1f77b4;stroke:#1a1a1a;" x="201.569093" xlink:href="#me50aedfbd1" y="179.464325"/>
     <use style="fill:#1f77b4;stroke:#1a1a1a;" x="201.569093" xlink:href="#me50aedfbd1" y="169.591675"/>
     <use style="fill:#1f77b4;stroke:#1a1a1a;" x="201.569093" xlink:href="#me50aedfbd1" y="164.65535"/>
     <use style="fill:#1f77b4;stroke:#1a1a1a;" x="204.229932" xlink:href="#me50aedfbd1" y="194.273301"/>
     <use style="fill:#1f77b4;stroke:#1a1a1a;" x="204.229932" xlink:href="#me50aedfbd1" y="184.40065"/>
     <use style="fill:#1f77b4;stroke:#1a1a1a;" x="206.890771" xlink:href="#me50aedfbd1" y="179.464325"/>
     <use style="fill:#1f77b4;stroke:#1a1a1a;" x="206.890771" xlink:href="#me50aedfbd1" y="174.528"/>
     <use style="fill:#1f77b4;stroke:#1a1a1a;" x="206.890771" xlink:href="#me50aedfbd1" y="191.805138"/>
     <use style="fill:#1f77b4;stroke:#1a1a1a;" x="206.890771" xlink:href="#me50aedfbd1" y="152.314537"/>
     <use style="fill:#1f77b4;stroke:#1a1a1a;" x="212.212449" xlink:href="#me50aedfbd1" y="191.805138"/>
     <use style="fill:#1f77b4;stroke:#1a1a1a;" x="212.212449" xlink:href="#me50aedfbd1" y="157.250862"/>
     <use style="fill:#1f77b4;stroke:#1a1a1a;" x="212.212449" xlink:href="#me50aedfbd1" y="159.719025"/>
     <use style="fill:#1f77b4;stroke:#1a1a1a;" x="212.212449" xlink:href="#me50aedfbd1" y="199.209626"/>
     <use style="fill:#1f77b4;stroke:#1a1a1a;" x="217.534127" xlink:href="#me50aedfbd1" y="154.782699"/>
     <use style="fill:#1f77b4;stroke:#1a1a1a;" x="217.534127" xlink:href="#me50aedfbd1" y="73.333334"/>
     <use style="fill:#1f77b4;stroke:#1a1a1a;" x="220.194966" xlink:href="#me50aedfbd1" y="226.359414"/>
     <use style="fill:#1f77b4;stroke:#1a1a1a;" x="220.194966" xlink:href="#me50aedfbd1" y="107.88761"/>
     <use style="fill:#1f77b4;stroke:#1a1a1a;" x="222.855805" xlink:href="#me50aedfbd1" y="211.550439"/>
     <use style="fill:#1f77b4;stroke:#1a1a1a;" x="222.855805" xlink:href="#me50aedfbd1" y="63.460684"/>
     <use style="fill:#1f77b4;stroke:#1a1a1a;" x="222.855805" xlink:href="#me50aedfbd1" y="270.78634"/>
     <use style="fill:#1f77b4;stroke:#1a1a1a;" x="222.855805" xlink:href="#me50aedfbd1" y="112.823936"/>
     <use style="fill:#1f77b4;stroke:#1a1a1a;" x="222.855805" xlink:href="#me50aedfbd1" y="275.722666"/>
     <use style="fill:#1f77b4;stroke:#1a1a1a;" x="222.855805" xlink:href="#me50aedfbd1" y="112.823936"/>
     <use style="fill:#1f77b4;stroke:#1a1a1a;" x="225.516644" xlink:href="#me50aedfbd1" y="214.018601"/>
     <use style="fill:#1f77b4;stroke:#1a1a1a;" x="225.516644" xlink:href="#me50aedfbd1" y="122.696586"/>
     <use style="fill:#1f77b4;stroke:#1a1a1a;" x="228.177483" xlink:href="#me50aedfbd1" y="285.595316"/>
     <use style="fill:#1f77b4;stroke:#1a1a1a;" x="228.177483" xlink:href="#me50aedfbd1" y="80.737822"/>
     <use style="fill:#1f77b4;stroke:#1a1a1a;" x="228.177483" xlink:href="#me50aedfbd1" y="280.658991"/>
     <use style="fill:#1f77b4;stroke:#1a1a1a;" x="228.177483" xlink:href="#me50aedfbd1" y="117.760261"/>
     <use style="fill:#1f77b4;stroke:#1a1a1a;" x="230.838322" xlink:href="#me50aedfbd1" y="273.254503"/>
     <use style="fill:#1f77b4;stroke:#1a1a1a;" x="230.838322" xlink:href="#me50aedfbd1" y="120.228423"/>
     <use style="fill:#1f77b4;stroke:#1a1a1a;" x="233.499161" xlink:href="#me50aedfbd1" y="285.595316"/>
     <use style="fill:#1f77b4;stroke:#1a1a1a;" x="233.499161" xlink:href="#me50aedfbd1" y="68.397009"/>
     <use style="fill:#1f77b4;stroke:#1a1a1a;" x="236.16" xlink:href="#me50aedfbd1" y="199.209626"/>
     <use style="fill:#1f77b4;stroke:#1a1a1a;" x="236.16" xlink:href="#me50aedfbd1" y="83.205985"/>
     <use style="fill:#1f77b4;stroke:#1a1a1a;" x="238.820839" xlink:href="#me50aedfbd1" y="268.318178"/>
     <use style="fill:#1f77b4;stroke:#1a1a1a;" x="238.820839" xlink:href="#me50aedfbd1" y="58.524359"/>
     <use style="fill:#1f77b4;stroke:#1a1a1a;" x="238.820839" xlink:href="#me50aedfbd1" y="209.082276"/>
     <use style="fill:#1f77b4;stroke:#1a1a1a;" x="238.820839" xlink:href="#me50aedfbd1" y="115.292098"/>
     <use style="fill:#1f77b4;stroke:#1a1a1a;" x="241.481678" xlink:href="#me50aedfbd1" y="243.636552"/>
     <use style="fill:#1f77b4;stroke:#1a1a1a;" x="241.481678" xlink:href="#me50aedfbd1" y="75.801497"/>
     <use style="fill:#1f77b4;stroke:#1a1a1a;" x="241.481678" xlink:href="#me50aedfbd1" y="255.977365"/>
     <use style="fill:#1f77b4;stroke:#1a1a1a;" x="241.481678" xlink:href="#me50aedfbd1" y="80.737822"/>
     <use style="fill:#1f77b4;stroke:#1a1a1a;" x="241.481678" xlink:href="#me50aedfbd1" y="248.572877"/>
     <use style="fill:#1f77b4;stroke:#1a1a1a;" x="241.481678" xlink:href="#me50aedfbd1" y="110.355773"/>
     <use style="fill:#1f77b4;stroke:#1a1a1a;" x="241.481678" xlink:href="#me50aedfbd1" y="258.445528"/>
     <use style="fill:#1f77b4;stroke:#1a1a1a;" x="241.481678" xlink:href="#me50aedfbd1" y="78.26966"/>
     <use style="fill:#1f77b4;stroke:#1a1a1a;" x="241.481678" xlink:href="#me50aedfbd1" y="295.467966"/>
     <use style="fill:#1f77b4;stroke:#1a1a1a;" x="241.481678" xlink:href="#me50aedfbd1" y="105.419448"/>
     <use style="fill:#1f77b4;stroke:#1a1a1a;" x="241.481678" xlink:href="#me50aedfbd1" y="295.467966"/>
     <use style="fill:#1f77b4;stroke:#1a1a1a;" x="241.481678" xlink:href="#me50aedfbd1" y="117.760261"/>
     <use style="fill:#1f77b4;stroke:#1a1a1a;" x="244.142517" xlink:href="#me50aedfbd1" y="211.550439"/>
     <use style="fill:#1f77b4;stroke:#1a1a1a;" x="244.142517" xlink:href="#me50aedfbd1" y="93.078635"/>
     <use style="fill:#1f77b4;stroke:#1a1a1a;" x="249.464195" xlink:href="#me50aedfbd1" y="285.595316"/>
     <use style="fill:#1f77b4;stroke:#1a1a1a;" x="249.464195" xlink:href="#me50aedfbd1" y="68.397009"/>
     <use style="fill:#1f77b4;stroke:#1a1a1a;" x="260.107551" xlink:href="#me50aedfbd1" y="233.763902"/>
     <use style="fill:#1f77b4;stroke:#1a1a1a;" x="260.107551" xlink:href="#me50aedfbd1" y="112.823936"/>
     <use style="fill:#1f77b4;stroke:#1a1a1a;" x="262.76839" xlink:href="#me50aedfbd1" y="248.572877"/>
     <use style="fill:#1f77b4;stroke:#1a1a1a;" x="262.76839" xlink:href="#me50aedfbd1" y="63.460684"/>
     <use style="fill:#1f77b4;stroke:#1a1a1a;" x="265.429229" xlink:href="#me50aedfbd1" y="231.295739"/>
     <use style="fill:#1f77b4;stroke:#1a1a1a;" x="265.429229" xlink:href="#me50aedfbd1" y="142.441887"/>
     <use style="fill:#1f77b4;stroke:#1a1a1a;" x="265.429229" xlink:href="#me50aedfbd1" y="265.850015"/>
     <use style="fill:#1f77b4;stroke:#1a1a1a;" x="265.429229" xlink:href="#me50aedfbd1" y="112.823936"/>
     <use style="fill:#1f77b4;stroke:#1a1a1a;" x="265.429229" xlink:href="#me50aedfbd1" y="273.254503"/>
     <use style="fill:#1f77b4;stroke:#1a1a1a;" x="265.429229" xlink:href="#me50aedfbd1" y="70.865172"/>
     <use style="fill:#1f77b4;stroke:#1a1a1a;" x="268.090068" xlink:href="#me50aedfbd1" y="265.850015"/>
     <use style="fill:#1f77b4;stroke:#1a1a1a;" x="268.090068" xlink:href="#me50aedfbd1" y="85.674147"/>
     <use style="fill:#1f77b4;stroke:#1a1a1a;" x="268.090068" xlink:href="#me50aedfbd1" y="260.91369"/>
     <use style="fill:#1f77b4;stroke:#1a1a1a;" x="268.090068" xlink:href="#me50aedfbd1" y="127.632911"/>
     <use style="fill:#1f77b4;stroke:#1a1a1a;" x="281.394263" xlink:href="#me50aedfbd1" y="263.381853"/>
     <use style="fill:#1f77b4;stroke:#1a1a1a;" x="281.394263" xlink:href="#me50aedfbd1" y="75.801497"/>
     <use style="fill:#1f77b4;stroke:#1a1a1a;" x="292.037619" xlink:href="#me50aedfbd1" y="218.954926"/>
     <use style="fill:#1f77b4;stroke:#1a1a1a;" x="292.037619" xlink:href="#me50aedfbd1" y="85.674147"/>
     <use style="fill:#1f77b4;stroke:#1a1a1a;" x="294.698458" xlink:href="#me50aedfbd1" y="260.91369"/>
     <use style="fill:#1f77b4;stroke:#1a1a1a;" x="294.698458" xlink:href="#me50aedfbd1" y="80.737822"/>
     <use style="fill:#1f77b4;stroke:#1a1a1a;" x="297.359297" xlink:href="#me50aedfbd1" y="201.677788"/>
     <use style="fill:#1f77b4;stroke:#1a1a1a;" x="297.359297" xlink:href="#me50aedfbd1" y="58.524359"/>
     <use style="fill:#1f77b4;stroke:#1a1a1a;" x="302.680975" xlink:href="#me50aedfbd1" y="238.700227"/>
     <use style="fill:#1f77b4;stroke:#1a1a1a;" x="302.680975" xlink:href="#me50aedfbd1" y="130.101074"/>
     <use style="fill:#1f77b4;stroke:#1a1a1a;" x="308.002653" xlink:href="#me50aedfbd1" y="255.977365"/>
     <use style="fill:#1f77b4;stroke:#1a1a1a;" x="308.002653" xlink:href="#me50aedfbd1" y="88.14231"/>
     <use style="fill:#1f77b4;stroke:#1a1a1a;" x="308.002653" xlink:href="#me50aedfbd1" y="241.16839"/>
     <use style="fill:#1f77b4;stroke:#1a1a1a;" x="308.002653" xlink:href="#me50aedfbd1" y="127.632911"/>
     <use style="fill:#1f77b4;stroke:#1a1a1a;" x="334.611043" xlink:href="#me50aedfbd1" y="278.190828"/>
     <use style="fill:#1f77b4;stroke:#1a1a1a;" x="334.611043" xlink:href="#me50aedfbd1" y="73.333334"/>
     <use style="fill:#1f77b4;stroke:#1a1a1a;" x="353.236916" xlink:href="#me50aedfbd1" y="258.445528"/>
     <use style="fill:#1f77b4;stroke:#1a1a1a;" x="353.236916" xlink:href="#me50aedfbd1" y="102.951285"/>
     <use style="fill:#1f77b4;stroke:#1a1a1a;" x="369.20195" xlink:href="#me50aedfbd1" y="228.827577"/>
     <use style="fill:#1f77b4;stroke:#1a1a1a;" x="369.20195" xlink:href="#me50aedfbd1" y="115.292098"/>
     <use style="fill:#1f77b4;stroke:#1a1a1a;" x="398.471179" xlink:href="#me50aedfbd1" y="253.509202"/>
     <use style="fill:#1f77b4;stroke:#1a1a1a;" x="398.471179" xlink:href="#me50aedfbd1" y="93.078635"/>
    </g>
   </g>
   <g id="matplotlib.axis_1">
    <g id="xtick_1">
     <g id="line2d_1">
      <defs>
       <path d="M 0 0 
L 0 3.5 
" id="m1d04f39e77" style="stroke:#000000;stroke-width:0.8;"/>
      </defs>
      <g>
       <use style="stroke:#000000;stroke-width:0.8;" x="87.153016" xlink:href="#m1d04f39e77" y="307.584"/>
      </g>
     </g>
     <g id="text_1">
      <!-- 20 -->
      <defs>
       <path d="M 19.1875 8.296875 
L 53.609375 8.296875 
L 53.609375 0 
L 7.328125 0 
L 7.328125 8.296875 
Q 12.9375 14.109375 22.625 23.890625 
Q 32.328125 33.6875 34.8125 36.53125 
Q 39.546875 41.84375 41.421875 45.53125 
Q 43.3125 49.21875 43.3125 52.78125 
Q 43.3125 58.59375 39.234375 62.25 
Q 35.15625 65.921875 28.609375 65.921875 
Q 23.96875 65.921875 18.8125 64.3125 
Q 13.671875 62.703125 7.8125 59.421875 
L 7.8125 69.390625 
Q 13.765625 71.78125 18.9375 73 
Q 24.125 74.21875 28.421875 74.21875 
Q 39.75 74.21875 46.484375 68.546875 
Q 53.21875 62.890625 53.21875 53.421875 
Q 53.21875 48.921875 51.53125 44.890625 
Q 49.859375 40.875 45.40625 35.40625 
Q 44.1875 33.984375 37.640625 27.21875 
Q 31.109375 20.453125 19.1875 8.296875 
z
" id="DejaVuSans-50"/>
       <path d="M 31.78125 66.40625 
Q 24.171875 66.40625 20.328125 58.90625 
Q 16.5 51.421875 16.5 36.375 
Q 16.5 21.390625 20.328125 13.890625 
Q 24.171875 6.390625 31.78125 6.390625 
Q 39.453125 6.390625 43.28125 13.890625 
Q 47.125 21.390625 47.125 36.375 
Q 47.125 51.421875 43.28125 58.90625 
Q 39.453125 66.40625 31.78125 66.40625 
z
M 31.78125 74.21875 
Q 44.046875 74.21875 50.515625 64.515625 
Q 56.984375 54.828125 56.984375 36.375 
Q 56.984375 17.96875 50.515625 8.265625 
Q 44.046875 -1.421875 31.78125 -1.421875 
Q 19.53125 -1.421875 13.0625 8.265625 
Q 6.59375 17.96875 6.59375 36.375 
Q 6.59375 54.828125 13.0625 64.515625 
Q 19.53125 74.21875 31.78125 74.21875 
z
" id="DejaVuSans-48"/>
      </defs>
      <g transform="translate(80.790516 322.182437)scale(0.1 -0.1)">
       <use xlink:href="#DejaVuSans-50"/>
       <use x="63.623047" xlink:href="#DejaVuSans-48"/>
      </g>
     </g>
    </g>
    <g id="xtick_2">
     <g id="line2d_2">
      <g>
       <use style="stroke:#000000;stroke-width:0.8;" x="140.369796" xlink:href="#m1d04f39e77" y="307.584"/>
      </g>
     </g>
     <g id="text_2">
      <!-- 40 -->
      <defs>
       <path d="M 37.796875 64.3125 
L 12.890625 25.390625 
L 37.796875 25.390625 
z
M 35.203125 72.90625 
L 47.609375 72.90625 
L 47.609375 25.390625 
L 58.015625 25.390625 
L 58.015625 17.1875 
L 47.609375 17.1875 
L 47.609375 0 
L 37.796875 0 
L 37.796875 17.1875 
L 4.890625 17.1875 
L 4.890625 26.703125 
z
" id="DejaVuSans-52"/>
      </defs>
      <g transform="translate(134.007296 322.182437)scale(0.1 -0.1)">
       <use xlink:href="#DejaVuSans-52"/>
       <use x="63.623047" xlink:href="#DejaVuSans-48"/>
      </g>
     </g>
    </g>
    <g id="xtick_3">
     <g id="line2d_3">
      <g>
       <use style="stroke:#000000;stroke-width:0.8;" x="193.586576" xlink:href="#m1d04f39e77" y="307.584"/>
      </g>
     </g>
     <g id="text_3">
      <!-- 60 -->
      <defs>
       <path d="M 33.015625 40.375 
Q 26.375 40.375 22.484375 35.828125 
Q 18.609375 31.296875 18.609375 23.390625 
Q 18.609375 15.53125 22.484375 10.953125 
Q 26.375 6.390625 33.015625 6.390625 
Q 39.65625 6.390625 43.53125 10.953125 
Q 47.40625 15.53125 47.40625 23.390625 
Q 47.40625 31.296875 43.53125 35.828125 
Q 39.65625 40.375 33.015625 40.375 
z
M 52.59375 71.296875 
L 52.59375 62.3125 
Q 48.875 64.0625 45.09375 64.984375 
Q 41.3125 65.921875 37.59375 65.921875 
Q 27.828125 65.921875 22.671875 59.328125 
Q 17.53125 52.734375 16.796875 39.40625 
Q 19.671875 43.65625 24.015625 45.921875 
Q 28.375 48.1875 33.59375 48.1875 
Q 44.578125 48.1875 50.953125 41.515625 
Q 57.328125 34.859375 57.328125 23.390625 
Q 57.328125 12.15625 50.6875 5.359375 
Q 44.046875 -1.421875 33.015625 -1.421875 
Q 20.359375 -1.421875 13.671875 8.265625 
Q 6.984375 17.96875 6.984375 36.375 
Q 6.984375 53.65625 15.1875 63.9375 
Q 23.390625 74.21875 37.203125 74.21875 
Q 40.921875 74.21875 44.703125 73.484375 
Q 48.484375 72.75 52.59375 71.296875 
z
" id="DejaVuSans-54"/>
      </defs>
      <g transform="translate(187.224076 322.182437)scale(0.1 -0.1)">
       <use xlink:href="#DejaVuSans-54"/>
       <use x="63.623047" xlink:href="#DejaVuSans-48"/>
      </g>
     </g>
    </g>
    <g id="xtick_4">
     <g id="line2d_4">
      <g>
       <use style="stroke:#000000;stroke-width:0.8;" x="246.803356" xlink:href="#m1d04f39e77" y="307.584"/>
      </g>
     </g>
     <g id="text_4">
      <!-- 80 -->
      <defs>
       <path d="M 31.78125 34.625 
Q 24.75 34.625 20.71875 30.859375 
Q 16.703125 27.09375 16.703125 20.515625 
Q 16.703125 13.921875 20.71875 10.15625 
Q 24.75 6.390625 31.78125 6.390625 
Q 38.8125 6.390625 42.859375 10.171875 
Q 46.921875 13.96875 46.921875 20.515625 
Q 46.921875 27.09375 42.890625 30.859375 
Q 38.875 34.625 31.78125 34.625 
z
M 21.921875 38.8125 
Q 15.578125 40.375 12.03125 44.71875 
Q 8.5 49.078125 8.5 55.328125 
Q 8.5 64.0625 14.71875 69.140625 
Q 20.953125 74.21875 31.78125 74.21875 
Q 42.671875 74.21875 48.875 69.140625 
Q 55.078125 64.0625 55.078125 55.328125 
Q 55.078125 49.078125 51.53125 44.71875 
Q 48 40.375 41.703125 38.8125 
Q 48.828125 37.15625 52.796875 32.3125 
Q 56.78125 27.484375 56.78125 20.515625 
Q 56.78125 9.90625 50.3125 4.234375 
Q 43.84375 -1.421875 31.78125 -1.421875 
Q 19.734375 -1.421875 13.25 4.234375 
Q 6.78125 9.90625 6.78125 20.515625 
Q 6.78125 27.484375 10.78125 32.3125 
Q 14.796875 37.15625 21.921875 38.8125 
z
M 18.3125 54.390625 
Q 18.3125 48.734375 21.84375 45.5625 
Q 25.390625 42.390625 31.78125 42.390625 
Q 38.140625 42.390625 41.71875 45.5625 
Q 45.3125 48.734375 45.3125 54.390625 
Q 45.3125 60.0625 41.71875 63.234375 
Q 38.140625 66.40625 31.78125 66.40625 
Q 25.390625 66.40625 21.84375 63.234375 
Q 18.3125 60.0625 18.3125 54.390625 
z
" id="DejaVuSans-56"/>
      </defs>
      <g transform="translate(240.440856 322.182437)scale(0.1 -0.1)">
       <use xlink:href="#DejaVuSans-56"/>
       <use x="63.623047" xlink:href="#DejaVuSans-48"/>
      </g>
     </g>
    </g>
    <g id="xtick_5">
     <g id="line2d_5">
      <g>
       <use style="stroke:#000000;stroke-width:0.8;" x="300.020136" xlink:href="#m1d04f39e77" y="307.584"/>
      </g>
     </g>
     <g id="text_5">
      <!-- 100 -->
      <defs>
       <path d="M 12.40625 8.296875 
L 28.515625 8.296875 
L 28.515625 63.921875 
L 10.984375 60.40625 
L 10.984375 69.390625 
L 28.421875 72.90625 
L 38.28125 72.90625 
L 38.28125 8.296875 
L 54.390625 8.296875 
L 54.390625 0 
L 12.40625 0 
z
" id="DejaVuSans-49"/>
      </defs>
      <g transform="translate(290.476386 322.182437)scale(0.1 -0.1)">
       <use xlink:href="#DejaVuSans-49"/>
       <use x="63.623047" xlink:href="#DejaVuSans-48"/>
       <use x="127.246094" xlink:href="#DejaVuSans-48"/>
      </g>
     </g>
    </g>
    <g id="xtick_6">
     <g id="line2d_6">
      <g>
       <use style="stroke:#000000;stroke-width:0.8;" x="353.236916" xlink:href="#m1d04f39e77" y="307.584"/>
      </g>
     </g>
     <g id="text_6">
      <!-- 120 -->
      <g transform="translate(343.693166 322.182437)scale(0.1 -0.1)">
       <use xlink:href="#DejaVuSans-49"/>
       <use x="63.623047" xlink:href="#DejaVuSans-50"/>
       <use x="127.246094" xlink:href="#DejaVuSans-48"/>
      </g>
     </g>
    </g>
    <g id="xtick_7">
     <g id="line2d_7">
      <g>
       <use style="stroke:#000000;stroke-width:0.8;" x="406.453696" xlink:href="#m1d04f39e77" y="307.584"/>
      </g>
     </g>
     <g id="text_7">
      <!-- 140 -->
      <g transform="translate(396.909946 322.182437)scale(0.1 -0.1)">
       <use xlink:href="#DejaVuSans-49"/>
       <use x="63.623047" xlink:href="#DejaVuSans-52"/>
       <use x="127.246094" xlink:href="#DejaVuSans-48"/>
      </g>
     </g>
    </g>
   </g>
   <g id="matplotlib.axis_2">
    <g id="ytick_1">
     <g id="line2d_8">
      <defs>
       <path d="M 0 0 
L -3.5 0 
" id="me64fc30ab7" style="stroke:#000000;stroke-width:0.8;"/>
      </defs>
      <g>
       <use style="stroke:#000000;stroke-width:0.8;" x="57.6" xlink:href="#me64fc30ab7" y="297.936129"/>
      </g>
     </g>
     <g id="text_8">
      <!-- 0 -->
      <g transform="translate(44.2375 301.735348)scale(0.1 -0.1)">
       <use xlink:href="#DejaVuSans-48"/>
      </g>
     </g>
    </g>
    <g id="ytick_2">
     <g id="line2d_9">
      <g>
       <use style="stroke:#000000;stroke-width:0.8;" x="57.6" xlink:href="#me64fc30ab7" y="248.572877"/>
      </g>
     </g>
     <g id="text_9">
      <!-- 20 -->
      <g transform="translate(37.875 252.372096)scale(0.1 -0.1)">
       <use xlink:href="#DejaVuSans-50"/>
       <use x="63.623047" xlink:href="#DejaVuSans-48"/>
      </g>
     </g>
    </g>
    <g id="ytick_3">
     <g id="line2d_10">
      <g>
       <use style="stroke:#000000;stroke-width:0.8;" x="57.6" xlink:href="#me64fc30ab7" y="199.209626"/>
      </g>
     </g>
     <g id="text_10">
      <!-- 40 -->
      <g transform="translate(37.875 203.008845)scale(0.1 -0.1)">
       <use xlink:href="#DejaVuSans-52"/>
       <use x="63.623047" xlink:href="#DejaVuSans-48"/>
      </g>
     </g>
    </g>
    <g id="ytick_4">
     <g id="line2d_11">
      <g>
       <use style="stroke:#000000;stroke-width:0.8;" x="57.6" xlink:href="#me64fc30ab7" y="149.846374"/>
      </g>
     </g>
     <g id="text_11">
      <!-- 60 -->
      <g transform="translate(37.875 153.645593)scale(0.1 -0.1)">
       <use xlink:href="#DejaVuSans-54"/>
       <use x="63.623047" xlink:href="#DejaVuSans-48"/>
      </g>
     </g>
    </g>
    <g id="ytick_5">
     <g id="line2d_12">
      <g>
       <use style="stroke:#000000;stroke-width:0.8;" x="57.6" xlink:href="#me64fc30ab7" y="100.483123"/>
      </g>
     </g>
     <g id="text_12">
      <!-- 80 -->
      <g transform="translate(37.875 104.282341)scale(0.1 -0.1)">
       <use xlink:href="#DejaVuSans-56"/>
       <use x="63.623047" xlink:href="#DejaVuSans-48"/>
      </g>
     </g>
    </g>
    <g id="ytick_6">
     <g id="line2d_13">
      <g>
       <use style="stroke:#000000;stroke-width:0.8;" x="57.6" xlink:href="#me64fc30ab7" y="51.119871"/>
      </g>
     </g>
     <g id="text_13">
      <!-- 100 -->
      <g transform="translate(31.5125 54.91909)scale(0.1 -0.1)">
       <use xlink:href="#DejaVuSans-49"/>
       <use x="63.623047" xlink:href="#DejaVuSans-48"/>
       <use x="127.246094" xlink:href="#DejaVuSans-48"/>
      </g>
     </g>
    </g>
   </g>
   <g id="patch_3">
    <path d="M 57.6 307.584 
L 57.6 41.472 
" style="fill:none;stroke:#000000;stroke-linecap:square;stroke-linejoin:miter;stroke-width:0.8;"/>
   </g>
   <g id="patch_4">
    <path d="M 414.72 307.584 
L 414.72 41.472 
" style="fill:none;stroke:#000000;stroke-linecap:square;stroke-linejoin:miter;stroke-width:0.8;"/>
   </g>
   <g id="patch_5">
    <path d="M 57.6 307.584 
L 414.72 307.584 
" style="fill:none;stroke:#000000;stroke-linecap:square;stroke-linejoin:miter;stroke-width:0.8;"/>
   </g>
   <g id="patch_6">
    <path d="M 57.6 41.472 
L 414.72 41.472 
" style="fill:none;stroke:#000000;stroke-linecap:square;stroke-linejoin:miter;stroke-width:0.8;"/>
   </g>
   <g id="text_14">
    <!-- Data Points -->
    <defs>
     <path d="M 19.671875 64.796875 
L 19.671875 8.109375 
L 31.59375 8.109375 
Q 46.6875 8.109375 53.6875 14.9375 
Q 60.6875 21.78125 60.6875 36.53125 
Q 60.6875 51.171875 53.6875 57.984375 
Q 46.6875 64.796875 31.59375 64.796875 
z
M 9.8125 72.90625 
L 30.078125 72.90625 
Q 51.265625 72.90625 61.171875 64.09375 
Q 71.09375 55.28125 71.09375 36.53125 
Q 71.09375 17.671875 61.125 8.828125 
Q 51.171875 0 30.078125 0 
L 9.8125 0 
z
" id="DejaVuSans-68"/>
     <path d="M 34.28125 27.484375 
Q 23.390625 27.484375 19.1875 25 
Q 14.984375 22.515625 14.984375 16.5 
Q 14.984375 11.71875 18.140625 8.90625 
Q 21.296875 6.109375 26.703125 6.109375 
Q 34.1875 6.109375 38.703125 11.40625 
Q 43.21875 16.703125 43.21875 25.484375 
L 43.21875 27.484375 
z
M 52.203125 31.203125 
L 52.203125 0 
L 43.21875 0 
L 43.21875 8.296875 
Q 40.140625 3.328125 35.546875 0.953125 
Q 30.953125 -1.421875 24.3125 -1.421875 
Q 15.921875 -1.421875 10.953125 3.296875 
Q 6 8.015625 6 15.921875 
Q 6 25.140625 12.171875 29.828125 
Q 18.359375 34.515625 30.609375 34.515625 
L 43.21875 34.515625 
L 43.21875 35.40625 
Q 43.21875 41.609375 39.140625 45 
Q 35.0625 48.390625 27.6875 48.390625 
Q 23 48.390625 18.546875 47.265625 
Q 14.109375 46.140625 10.015625 43.890625 
L 10.015625 52.203125 
Q 14.9375 54.109375 19.578125 55.046875 
Q 24.21875 56 28.609375 56 
Q 40.484375 56 46.34375 49.84375 
Q 52.203125 43.703125 52.203125 31.203125 
z
" id="DejaVuSans-97"/>
     <path d="M 18.3125 70.21875 
L 18.3125 54.6875 
L 36.8125 54.6875 
L 36.8125 47.703125 
L 18.3125 47.703125 
L 18.3125 18.015625 
Q 18.3125 11.328125 20.140625 9.421875 
Q 21.96875 7.515625 27.59375 7.515625 
L 36.8125 7.515625 
L 36.8125 0 
L 27.59375 0 
Q 17.1875 0 13.234375 3.875 
Q 9.28125 7.765625 9.28125 18.015625 
L 9.28125 47.703125 
L 2.6875 47.703125 
L 2.6875 54.6875 
L 9.28125 54.6875 
L 9.28125 70.21875 
z
" id="DejaVuSans-116"/>
     <path id="DejaVuSans-32"/>
     <path d="M 19.671875 64.796875 
L 19.671875 37.40625 
L 32.078125 37.40625 
Q 38.96875 37.40625 42.71875 40.96875 
Q 46.484375 44.53125 46.484375 51.125 
Q 46.484375 57.671875 42.71875 61.234375 
Q 38.96875 64.796875 32.078125 64.796875 
z
M 9.8125 72.90625 
L 32.078125 72.90625 
Q 44.34375 72.90625 50.609375 67.359375 
Q 56.890625 61.8125 56.890625 51.125 
Q 56.890625 40.328125 50.609375 34.8125 
Q 44.34375 29.296875 32.078125 29.296875 
L 19.671875 29.296875 
L 19.671875 0 
L 9.8125 0 
z
" id="DejaVuSans-80"/>
     <path d="M 30.609375 48.390625 
Q 23.390625 48.390625 19.1875 42.75 
Q 14.984375 37.109375 14.984375 27.296875 
Q 14.984375 17.484375 19.15625 11.84375 
Q 23.34375 6.203125 30.609375 6.203125 
Q 37.796875 6.203125 41.984375 11.859375 
Q 46.1875 17.53125 46.1875 27.296875 
Q 46.1875 37.015625 41.984375 42.703125 
Q 37.796875 48.390625 30.609375 48.390625 
z
M 30.609375 56 
Q 42.328125 56 49.015625 48.375 
Q 55.71875 40.765625 55.71875 27.296875 
Q 55.71875 13.875 49.015625 6.21875 
Q 42.328125 -1.421875 30.609375 -1.421875 
Q 18.84375 -1.421875 12.171875 6.21875 
Q 5.515625 13.875 5.515625 27.296875 
Q 5.515625 40.765625 12.171875 48.375 
Q 18.84375 56 30.609375 56 
z
" id="DejaVuSans-111"/>
     <path d="M 9.421875 54.6875 
L 18.40625 54.6875 
L 18.40625 0 
L 9.421875 0 
z
M 9.421875 75.984375 
L 18.40625 75.984375 
L 18.40625 64.59375 
L 9.421875 64.59375 
z
" id="DejaVuSans-105"/>
     <path d="M 54.890625 33.015625 
L 54.890625 0 
L 45.90625 0 
L 45.90625 32.71875 
Q 45.90625 40.484375 42.875 44.328125 
Q 39.84375 48.1875 33.796875 48.1875 
Q 26.515625 48.1875 22.3125 43.546875 
Q 18.109375 38.921875 18.109375 30.90625 
L 18.109375 0 
L 9.078125 0 
L 9.078125 54.6875 
L 18.109375 54.6875 
L 18.109375 46.1875 
Q 21.34375 51.125 25.703125 53.5625 
Q 30.078125 56 35.796875 56 
Q 45.21875 56 50.046875 50.171875 
Q 54.890625 44.34375 54.890625 33.015625 
z
" id="DejaVuSans-110"/>
     <path d="M 44.28125 53.078125 
L 44.28125 44.578125 
Q 40.484375 46.53125 36.375 47.5 
Q 32.28125 48.484375 27.875 48.484375 
Q 21.1875 48.484375 17.84375 46.4375 
Q 14.5 44.390625 14.5 40.28125 
Q 14.5 37.15625 16.890625 35.375 
Q 19.28125 33.59375 26.515625 31.984375 
L 29.59375 31.296875 
Q 39.15625 29.25 43.1875 25.515625 
Q 47.21875 21.78125 47.21875 15.09375 
Q 47.21875 7.46875 41.1875 3.015625 
Q 35.15625 -1.421875 24.609375 -1.421875 
Q 20.21875 -1.421875 15.453125 -0.5625 
Q 10.6875 0.296875 5.421875 2 
L 5.421875 11.28125 
Q 10.40625 8.6875 15.234375 7.390625 
Q 20.0625 6.109375 24.8125 6.109375 
Q 31.15625 6.109375 34.5625 8.28125 
Q 37.984375 10.453125 37.984375 14.40625 
Q 37.984375 18.0625 35.515625 20.015625 
Q 33.0625 21.96875 24.703125 23.78125 
L 21.578125 24.515625 
Q 13.234375 26.265625 9.515625 29.90625 
Q 5.8125 33.546875 5.8125 39.890625 
Q 5.8125 47.609375 11.28125 51.796875 
Q 16.75 56 26.8125 56 
Q 31.78125 56 36.171875 55.265625 
Q 40.578125 54.546875 44.28125 53.078125 
z
" id="DejaVuSans-115"/>
    </defs>
    <g transform="translate(201.69375 35.472)scale(0.12 -0.12)">
     <use xlink:href="#DejaVuSans-68"/>
     <use x="77.001953" xlink:href="#DejaVuSans-97"/>
     <use x="138.28125" xlink:href="#DejaVuSans-116"/>
     <use x="177.490234" xlink:href="#DejaVuSans-97"/>
     <use x="238.769531" xlink:href="#DejaVuSans-32"/>
     <use x="270.556641" xlink:href="#DejaVuSans-80"/>
     <use x="330.8125" xlink:href="#DejaVuSans-111"/>
     <use x="391.994141" xlink:href="#DejaVuSans-105"/>
     <use x="419.777344" xlink:href="#DejaVuSans-110"/>
     <use x="483.15625" xlink:href="#DejaVuSans-116"/>
     <use x="522.365234" xlink:href="#DejaVuSans-115"/>
    </g>
   </g>
  </g>
 </g>
 <defs>
  <clipPath id="p222077a4b5">
   <rect height="266.112" width="357.12" x="57.6" y="41.472"/>
  </clipPath>
 </defs>
</svg>
