<?xml version="1.0" encoding="utf-8" standalone="no"?>
<!DOCTYPE svg PUBLIC "-//W3C//DTD SVG 1.1//EN"
  "http://www.w3.org/Graphics/SVG/1.1/DTD/svg11.dtd">
<!-- Created with matplotlib (https://matplotlib.org/) -->
<svg height="345.6pt" version="1.1" viewBox="0 0 460.8 345.6" width="460.8pt" xmlns="http://www.w3.org/2000/svg" xmlns:xlink="http://www.w3.org/1999/xlink">
 <defs>
  <style type="text/css">
*{stroke-linecap:butt;stroke-linejoin:round;white-space:pre;}
  </style>
 </defs>
 <g id="figure_1">
  <g id="patch_1">
   <path d="M 0 345.6 
L 460.8 345.6 
L 460.8 0 
L 0 0 
z
" style="fill:#ffffff;"/>
  </g>
  <g id="axes_1">
   <g id="patch_2">
    <path d="M 57.6 307.584 
L 414.72 307.584 
L 414.72 41.472 
L 57.6 41.472 
z
" style="fill:#ffffff;"/>
   </g>
   <g id="PathCollection_1">
    <path clip-path="url(#p90da9d20c8)" d="M 63.552 307.584 
L 69.504 307.584 
L 75.456 307.584 
L 81.408 307.584 
L 87.36 307.584 
L 93.312 307.584 
L 99.264 307.584 
L 105.216 307.584 
L 111.168 307.584 
L 117.12 307.584 
L 123.072 307.584 
L 129.024 307.584 
L 134.976 307.584 
L 140.928 307.584 
L 146.88 307.584 
L 152.832 307.584 
L 158.784 307.584 
L 164.736 307.584 
L 170.688 307.584 
L 176.64 307.584 
L 182.592 307.584 
L 188.544 307.584 
L 194.496 307.584 
L 200.448 307.584 
L 206.4 307.584 
L 212.352 307.584 
L 218.304 307.584 
L 224.256 307.584 
L 230.208 307.584 
L 236.16 307.584 
L 242.112 307.584 
L 248.064 307.584 
L 254.016 307.584 
L 259.968 307.584 
L 265.92 307.584 
L 271.872 307.584 
L 277.824 307.584 
L 283.776 307.584 
L 289.728 307.584 
L 295.68 307.584 
L 301.632 307.584 
L 307.584 307.584 
L 313.536 307.584 
L 319.488 307.584 
L 325.44 307.584 
L 331.392 307.584 
L 337.344 307.584 
L 343.296 307.584 
L 349.248 307.584 
L 355.2 307.584 
L 361.152 307.584 
L 367.104 307.584 
L 373.056 307.584 
L 379.008 307.584 
L 384.96 307.584 
L 390.912 307.584 
L 396.864 307.584 
L 402.816 307.584 
L 408.768 307.584 
L 414.72 307.584 
L 414.72 303.1488 
L 414.72 298.7136 
L 414.72 294.2784 
L 414.72 289.8432 
L 414.72 285.408 
L 414.72 280.9728 
L 414.72 276.5376 
L 414.72 272.1024 
L 414.72 267.6672 
L 414.72 263.232 
L 414.72 258.7968 
L 414.72 254.3616 
L 414.72 249.9264 
L 414.72 245.4912 
L 414.72 241.056 
L 414.72 236.6208 
L 414.72 232.1856 
L 414.72 227.7504 
L 414.72 223.3152 
L 414.72 218.88 
L 414.72 214.4448 
L 414.72 210.0096 
L 414.72 205.5744 
L 414.72 201.1392 
L 414.72 196.704 
L 414.72 192.2688 
L 414.72 187.8336 
L 414.72 183.3984 
L 414.72 178.9632 
L 414.72 174.528 
L 414.72 170.0928 
L 414.72 165.6576 
L 414.72 161.2224 
L 414.72 156.7872 
L 414.72 152.352 
L 414.72 147.9168 
L 414.72 143.4816 
L 414.72 139.0464 
L 414.72 134.6112 
L 414.72 130.176 
L 414.72 125.7408 
L 414.72 121.3056 
L 414.72 116.8704 
L 414.72 112.4352 
L 414.72 108 
L 414.72 103.5648 
L 414.72 99.1296 
L 414.72 94.6944 
L 414.72 90.2592 
L 414.72 85.824 
L 414.72 81.3888 
L 414.72 76.9536 
L 414.72 72.5184 
L 414.72 68.0832 
L 414.72 63.648 
L 414.72 59.2128 
L 414.72 54.7776 
L 414.72 50.3424 
L 414.72 45.9072 
L 414.72 41.472 
L 408.768 41.472 
L 402.816 41.472 
L 396.864 41.472 
L 390.912 41.472 
L 384.96 41.472 
L 379.008 41.472 
L 373.056 41.472 
L 367.104 41.472 
L 361.152 41.472 
L 355.2 41.472 
L 349.248 41.472 
L 343.296 41.472 
L 337.344 41.472 
L 331.392 41.472 
L 325.44 41.472 
L 319.488 41.472 
L 313.536 41.472 
L 307.584 41.472 
L 301.632 41.472 
L 295.68 41.472 
L 289.728 41.472 
L 283.776 41.472 
L 277.824 41.472 
L 271.872 41.472 
L 265.92 41.472 
L 259.968 41.472 
L 254.016 41.472 
L 248.064 41.472 
L 242.112 41.472 
L 236.16 41.472 
L 230.208 41.472 
L 224.256 41.472 
L 218.304 41.472 
L 212.352 41.472 
L 206.4 41.472 
L 200.448 41.472 
L 194.496 41.472 
L 188.544 41.472 
L 182.592 41.472 
L 176.64 41.472 
L 170.688 41.472 
L 164.736 41.472 
L 158.784 41.472 
L 152.832 41.472 
L 146.88 41.472 
L 140.928 41.472 
L 134.976 41.472 
L 129.024 41.472 
L 123.072 41.472 
L 117.12 41.472 
L 111.168 41.472 
L 105.216 41.472 
L 99.264 41.472 
L 93.312 41.472 
L 87.36 41.472 
L 81.408 41.472 
L 75.456 41.472 
L 69.504 41.472 
L 63.552 41.472 
L 57.6 41.472 
L 57.6 45.9072 
L 57.6 50.3424 
L 57.6 54.7776 
L 57.6 59.2128 
L 57.6 63.648 
L 57.6 68.0832 
L 57.6 72.5184 
L 57.6 76.9536 
L 57.6 81.3888 
L 57.6 85.824 
L 57.6 90.2592 
L 57.6 94.6944 
L 57.6 99.1296 
L 57.6 103.5648 
L 57.6 108 
L 57.6 112.4352 
L 57.6 116.8704 
L 57.6 121.3056 
L 57.6 125.7408 
L 57.6 130.176 
L 57.6 134.6112 
L 57.6 139.0464 
L 57.6 143.4816 
L 57.6 147.9168 
L 57.6 152.352 
L 57.6 156.7872 
L 57.6 161.2224 
L 57.6 165.6576 
L 57.6 170.0928 
L 57.6 174.528 
L 57.6 178.9632 
L 57.6 183.3984 
L 57.6 187.8336 
L 57.6 192.2688 
L 57.6 196.704 
L 57.6 201.1392 
L 57.6 205.5744 
L 57.6 210.0096 
L 57.6 214.4448 
L 57.6 218.88 
L 57.6 223.3152 
L 57.6 227.7504 
L 57.6 232.1856 
L 57.6 236.6208 
L 57.6 241.056 
L 57.6 245.4912 
L 57.6 249.9264 
L 57.6 254.3616 
L 57.6 258.7968 
L 57.6 263.232 
L 57.6 267.6672 
L 57.6 272.1024 
L 57.6 276.5376 
L 57.6 280.9728 
L 57.6 285.408 
L 57.6 289.8432 
L 57.6 294.2784 
L 57.6 298.7136 
L 57.6 303.1488 
L 57.6 307.584 
z
M 231.1008 227.7504 
L 230.208 227.08512 
L 224.256 227.08512 
L 218.304 227.08512 
L 213.2448 223.3152 
L 213.2448 218.88 
L 212.352 218.21472 
L 206.4 218.21472 
L 200.448 218.21472 
L 195.3888 214.4448 
L 194.496 213.77952 
L 188.544 213.77952 
L 183.4848 210.0096 
L 182.592 209.34432 
L 177.5328 205.5744 
L 176.64 204.90912 
L 171.5808 201.1392 
L 170.688 200.47392 
L 164.736 200.47392 
L 159.6768 196.704 
L 158.784 196.03872 
L 152.832 196.03872 
L 147.7728 192.2688 
L 147.7728 187.8336 
L 147.7728 183.3984 
L 147.7728 178.9632 
L 146.88 178.29792 
L 141.8208 174.528 
L 141.8208 170.0928 
L 146.88 166.32288 
L 152.832 166.32288 
L 153.7248 165.6576 
L 153.7248 161.2224 
L 153.7248 156.7872 
L 153.7248 152.352 
L 153.7248 147.9168 
L 153.7248 143.4816 
L 158.784 139.71168 
L 159.6768 139.0464 
L 164.736 135.27648 
L 165.6288 134.6112 
L 165.6288 130.176 
L 170.688 126.40608 
L 171.5808 125.7408 
L 176.64 121.97088 
L 177.5328 121.3056 
L 177.5328 116.8704 
L 177.5328 112.4352 
L 182.592 108.66528 
L 183.4848 108 
L 188.544 104.23008 
L 193.6032 108 
L 194.496 108.66528 
L 195.3888 108 
L 200.448 104.23008 
L 206.4 104.23008 
L 211.4592 108 
L 212.352 108.66528 
L 218.304 108.66528 
L 224.256 108.66528 
L 230.208 108.66528 
L 236.16 108.66528 
L 241.2192 112.4352 
L 242.112 113.10048 
L 248.064 113.10048 
L 254.016 113.10048 
L 254.9088 112.4352 
L 259.968 108.66528 
L 265.0272 112.4352 
L 265.92 113.10048 
L 270.9792 116.8704 
L 271.872 117.53568 
L 276.9312 121.3056 
L 277.824 121.97088 
L 282.8832 125.7408 
L 282.8832 130.176 
L 283.776 130.84128 
L 289.728 130.84128 
L 294.7872 134.6112 
L 295.68 135.27648 
L 300.7392 139.0464 
L 301.632 139.71168 
L 306.6912 143.4816 
L 307.584 144.14688 
L 312.6432 147.9168 
L 312.6432 152.352 
L 313.536 153.01728 
L 318.5952 156.7872 
L 318.5952 161.2224 
L 318.5952 165.6576 
L 318.5952 170.0928 
L 318.5952 174.528 
L 318.5952 178.9632 
L 318.5952 183.3984 
L 318.5952 187.8336 
L 313.536 191.60352 
L 312.6432 192.2688 
L 307.584 196.03872 
L 301.632 196.03872 
L 300.7392 196.704 
L 295.68 200.47392 
L 294.7872 201.1392 
L 294.7872 205.5744 
L 289.728 209.34432 
L 283.776 209.34432 
L 282.8832 210.0096 
L 282.8832 214.4448 
L 277.824 218.21472 
L 271.872 218.21472 
L 270.9792 218.88 
L 265.92 222.64992 
L 265.0272 223.3152 
L 259.968 227.08512 
L 259.0752 227.7504 
L 254.016 231.52032 
L 248.064 231.52032 
L 242.112 231.52032 
L 236.16 231.52032 
z
" style="fill:#fab2b8;fill-opacity:0.5;"/>
   </g>
   <g id="PathCollection_2">
    <path clip-path="url(#p90da9d20c8)" d="M 236.16 231.52032 
L 242.112 231.52032 
L 248.064 231.52032 
L 254.016 231.52032 
L 259.0752 227.7504 
L 259.968 227.08512 
L 265.0272 223.3152 
L 265.92 222.64992 
L 270.9792 218.88 
L 271.872 218.21472 
L 277.824 218.21472 
L 282.8832 214.4448 
L 282.8832 210.0096 
L 283.776 209.34432 
L 289.728 209.34432 
L 294.7872 205.5744 
L 294.7872 201.1392 
L 295.68 200.47392 
L 300.7392 196.704 
L 301.632 196.03872 
L 307.584 196.03872 
L 312.6432 192.2688 
L 313.536 191.60352 
L 318.5952 187.8336 
L 318.5952 183.3984 
L 318.5952 178.9632 
L 318.5952 174.528 
L 318.5952 170.0928 
L 318.5952 165.6576 
L 318.5952 161.2224 
L 318.5952 156.7872 
L 313.536 153.01728 
L 312.6432 152.352 
L 312.6432 147.9168 
L 307.584 144.14688 
L 306.6912 143.4816 
L 301.632 139.71168 
L 300.7392 139.0464 
L 295.68 135.27648 
L 294.7872 134.6112 
L 289.728 130.84128 
L 283.776 130.84128 
L 282.8832 130.176 
L 282.8832 125.7408 
L 277.824 121.97088 
L 276.9312 121.3056 
L 271.872 117.53568 
L 270.9792 116.8704 
L 265.92 113.10048 
L 265.0272 112.4352 
L 259.968 108.66528 
L 254.9088 112.4352 
L 254.016 113.10048 
L 248.064 113.10048 
L 242.112 113.10048 
L 241.2192 112.4352 
L 236.16 108.66528 
L 230.208 108.66528 
L 224.256 108.66528 
L 218.304 108.66528 
L 212.352 108.66528 
L 211.4592 108 
L 206.4 104.23008 
L 200.448 104.23008 
L 195.3888 108 
L 194.496 108.66528 
L 193.6032 108 
L 188.544 104.23008 
L 183.4848 108 
L 182.592 108.66528 
L 177.5328 112.4352 
L 177.5328 116.8704 
L 177.5328 121.3056 
L 176.64 121.97088 
L 171.5808 125.7408 
L 170.688 126.40608 
L 165.6288 130.176 
L 165.6288 134.6112 
L 164.736 135.27648 
L 159.6768 139.0464 
L 158.784 139.71168 
L 153.7248 143.4816 
L 153.7248 147.9168 
L 153.7248 152.352 
L 153.7248 156.7872 
L 153.7248 161.2224 
L 153.7248 165.6576 
L 152.832 166.32288 
L 146.88 166.32288 
L 141.8208 170.0928 
L 141.8208 174.528 
L 146.88 178.29792 
L 147.7728 178.9632 
L 147.7728 183.3984 
L 147.7728 187.8336 
L 147.7728 192.2688 
L 152.832 196.03872 
L 158.784 196.03872 
L 159.6768 196.704 
L 164.736 200.47392 
L 170.688 200.47392 
L 171.5808 201.1392 
L 176.64 204.90912 
L 177.5328 205.5744 
L 182.592 209.34432 
L 183.4848 210.0096 
L 188.544 213.77952 
L 194.496 213.77952 
L 195.3888 214.4448 
L 200.448 218.21472 
L 206.4 218.21472 
L 212.352 218.21472 
L 213.2448 218.88 
L 213.2448 223.3152 
L 218.304 227.08512 
L 224.256 227.08512 
L 230.208 227.08512 
L 231.1008 227.7504 
z
M 231.9936 227.7504 
L 230.208 226.41984 
L 224.256 226.41984 
L 218.304 226.41984 
L 214.1376 223.3152 
L 214.1376 218.88 
L 212.352 217.54944 
L 206.4 217.54944 
L 200.448 217.54944 
L 196.2816 214.4448 
L 194.496 213.11424 
L 188.544 213.11424 
L 184.3776 210.0096 
L 182.592 208.67904 
L 178.4256 205.5744 
L 176.64 204.24384 
L 172.4736 201.1392 
L 170.688 199.80864 
L 164.736 199.80864 
L 160.5696 196.704 
L 158.784 195.37344 
L 152.832 195.37344 
L 148.6656 192.2688 
L 148.6656 187.8336 
L 148.6656 183.3984 
L 148.6656 178.9632 
L 146.88 177.63264 
L 142.7136 174.528 
L 142.7136 170.0928 
L 146.88 166.98816 
L 152.832 166.98816 
L 154.6176 165.6576 
L 154.6176 161.2224 
L 154.6176 156.7872 
L 154.6176 152.352 
L 154.6176 147.9168 
L 154.6176 143.4816 
L 158.784 140.37696 
L 160.5696 139.0464 
L 164.736 135.94176 
L 166.5216 134.6112 
L 166.5216 130.176 
L 170.688 127.07136 
L 172.4736 125.7408 
L 176.64 122.63616 
L 178.4256 121.3056 
L 178.4256 116.8704 
L 178.4256 112.4352 
L 182.592 109.33056 
L 184.3776 108 
L 188.544 104.89536 
L 192.7104 108 
L 194.496 109.33056 
L 196.2816 108 
L 200.448 104.89536 
L 206.4 104.89536 
L 210.5664 108 
L 212.352 109.33056 
L 218.304 109.33056 
L 224.256 109.33056 
L 230.208 109.33056 
L 236.16 109.33056 
L 240.3264 112.4352 
L 242.112 113.76576 
L 248.064 113.76576 
L 254.016 113.76576 
L 255.8016 112.4352 
L 259.968 109.33056 
L 264.1344 112.4352 
L 265.92 113.76576 
L 270.0864 116.8704 
L 271.872 118.20096 
L 276.0384 121.3056 
L 277.824 122.63616 
L 281.9904 125.7408 
L 281.9904 130.176 
L 283.776 131.50656 
L 289.728 131.50656 
L 293.8944 134.6112 
L 295.68 135.94176 
L 299.8464 139.0464 
L 301.632 140.37696 
L 305.7984 143.4816 
L 307.584 144.81216 
L 311.7504 147.9168 
L 311.7504 152.352 
L 313.536 153.68256 
L 317.7024 156.7872 
L 317.7024 161.2224 
L 317.7024 165.6576 
L 317.7024 170.0928 
L 317.7024 174.528 
L 317.7024 178.9632 
L 317.7024 183.3984 
L 317.7024 187.8336 
L 313.536 190.93824 
L 311.7504 192.2688 
L 307.584 195.37344 
L 301.632 195.37344 
L 299.8464 196.704 
L 295.68 199.80864 
L 293.8944 201.1392 
L 293.8944 205.5744 
L 289.728 208.67904 
L 283.776 208.67904 
L 281.9904 210.0096 
L 281.9904 214.4448 
L 277.824 217.54944 
L 271.872 217.54944 
L 270.0864 218.88 
L 265.92 221.98464 
L 264.1344 223.3152 
L 259.968 226.41984 
L 258.1824 227.7504 
L 254.016 230.85504 
L 248.064 230.85504 
L 242.112 230.85504 
L 236.16 230.85504 
z
" style="fill:#efb2c3;fill-opacity:0.5;"/>
   </g>
   <g id="PathCollection_3">
    <path clip-path="url(#p90da9d20c8)" d="M 236.16 230.85504 
L 242.112 230.85504 
L 248.064 230.85504 
L 254.016 230.85504 
L 258.1824 227.7504 
L 259.968 226.41984 
L 264.1344 223.3152 
L 265.92 221.98464 
L 270.0864 218.88 
L 271.872 217.54944 
L 277.824 217.54944 
L 281.9904 214.4448 
L 281.9904 210.0096 
L 283.776 208.67904 
L 289.728 208.67904 
L 293.8944 205.5744 
L 293.8944 201.1392 
L 295.68 199.80864 
L 299.8464 196.704 
L 301.632 195.37344 
L 307.584 195.37344 
L 311.7504 192.2688 
L 313.536 190.93824 
L 317.7024 187.8336 
L 317.7024 183.3984 
L 317.7024 178.9632 
L 317.7024 174.528 
L 317.7024 170.0928 
L 317.7024 165.6576 
L 317.7024 161.2224 
L 317.7024 156.7872 
L 313.536 153.68256 
L 311.7504 152.352 
L 311.7504 147.9168 
L 307.584 144.81216 
L 305.7984 143.4816 
L 301.632 140.37696 
L 299.8464 139.0464 
L 295.68 135.94176 
L 293.8944 134.6112 
L 289.728 131.50656 
L 283.776 131.50656 
L 281.9904 130.176 
L 281.9904 125.7408 
L 277.824 122.63616 
L 276.0384 121.3056 
L 271.872 118.20096 
L 270.0864 116.8704 
L 265.92 113.76576 
L 264.1344 112.4352 
L 259.968 109.33056 
L 255.8016 112.4352 
L 254.016 113.76576 
L 248.064 113.76576 
L 242.112 113.76576 
L 240.3264 112.4352 
L 236.16 109.33056 
L 230.208 109.33056 
L 224.256 109.33056 
L 218.304 109.33056 
L 212.352 109.33056 
L 210.5664 108 
L 206.4 104.89536 
L 200.448 104.89536 
L 196.2816 108 
L 194.496 109.33056 
L 192.7104 108 
L 188.544 104.89536 
L 184.3776 108 
L 182.592 109.33056 
L 178.4256 112.4352 
L 178.4256 116.8704 
L 178.4256 121.3056 
L 176.64 122.63616 
L 172.4736 125.7408 
L 170.688 127.07136 
L 166.5216 130.176 
L 166.5216 134.6112 
L 164.736 135.94176 
L 160.5696 139.0464 
L 158.784 140.37696 
L 154.6176 143.4816 
L 154.6176 147.9168 
L 154.6176 152.352 
L 154.6176 156.7872 
L 154.6176 161.2224 
L 154.6176 165.6576 
L 152.832 166.98816 
L 146.88 166.98816 
L 142.7136 170.0928 
L 142.7136 174.528 
L 146.88 177.63264 
L 148.6656 178.9632 
L 148.6656 183.3984 
L 148.6656 187.8336 
L 148.6656 192.2688 
L 152.832 195.37344 
L 158.784 195.37344 
L 160.5696 196.704 
L 164.736 199.80864 
L 170.688 199.80864 
L 172.4736 201.1392 
L 176.64 204.24384 
L 178.4256 205.5744 
L 182.592 208.67904 
L 184.3776 210.0096 
L 188.544 213.11424 
L 194.496 213.11424 
L 196.2816 214.4448 
L 200.448 217.54944 
L 206.4 217.54944 
L 212.352 217.54944 
L 214.1376 218.88 
L 214.1376 223.3152 
L 218.304 226.41984 
L 224.256 226.41984 
L 230.208 226.41984 
L 231.9936 227.7504 
z
M 232.8864 227.7504 
L 230.208 225.75456 
L 224.256 225.75456 
L 218.304 225.75456 
L 215.0304 223.3152 
L 215.0304 218.88 
L 212.352 216.88416 
L 206.4 216.88416 
L 200.448 216.88416 
L 197.1744 214.4448 
L 194.496 212.44896 
L 188.544 212.44896 
L 185.2704 210.0096 
L 182.592 208.01376 
L 179.3184 205.5744 
L 176.64 203.57856 
L 173.3664 201.1392 
L 170.688 199.14336 
L 164.736 199.14336 
L 161.4624 196.704 
L 158.784 194.70816 
L 152.832 194.70816 
L 149.5584 192.2688 
L 149.5584 187.8336 
L 149.5584 183.3984 
L 149.5584 178.9632 
L 146.88 176.96736 
L 143.6064 174.528 
L 143.6064 170.0928 
L 146.88 167.65344 
L 152.832 167.65344 
L 155.5104 165.6576 
L 155.5104 161.2224 
L 155.5104 156.7872 
L 155.5104 152.352 
L 155.5104 147.9168 
L 155.5104 143.4816 
L 158.784 141.04224 
L 161.4624 139.0464 
L 164.736 136.60704 
L 167.4144 134.6112 
L 167.4144 130.176 
L 170.688 127.73664 
L 173.3664 125.7408 
L 176.64 123.30144 
L 179.3184 121.3056 
L 179.3184 116.8704 
L 179.3184 112.4352 
L 182.592 109.99584 
L 185.2704 108 
L 188.544 105.56064 
L 191.8176 108 
L 194.496 109.99584 
L 197.1744 108 
L 200.448 105.56064 
L 206.4 105.56064 
L 209.6736 108 
L 212.352 109.99584 
L 218.304 109.99584 
L 224.256 109.99584 
L 230.208 109.99584 
L 236.16 109.99584 
L 239.4336 112.4352 
L 242.112 114.43104 
L 248.064 114.43104 
L 254.016 114.43104 
L 256.6944 112.4352 
L 259.968 109.99584 
L 263.2416 112.4352 
L 265.92 114.43104 
L 269.1936 116.8704 
L 271.872 118.86624 
L 275.1456 121.3056 
L 277.824 123.30144 
L 281.0976 125.7408 
L 281.0976 130.176 
L 283.776 132.17184 
L 289.728 132.17184 
L 293.0016 134.6112 
L 295.68 136.60704 
L 298.9536 139.0464 
L 301.632 141.04224 
L 304.9056 143.4816 
L 307.584 145.47744 
L 310.8576 147.9168 
L 310.8576 152.352 
L 313.536 154.34784 
L 316.8096 156.7872 
L 316.8096 161.2224 
L 316.8096 165.6576 
L 316.8096 170.0928 
L 316.8096 174.528 
L 316.8096 178.9632 
L 316.8096 183.3984 
L 316.8096 187.8336 
L 313.536 190.27296 
L 310.8576 192.2688 
L 307.584 194.70816 
L 301.632 194.70816 
L 298.9536 196.704 
L 295.68 199.14336 
L 293.0016 201.1392 
L 293.0016 205.5744 
L 289.728 208.01376 
L 283.776 208.01376 
L 281.0976 210.0096 
L 281.0976 214.4448 
L 277.824 216.88416 
L 271.872 216.88416 
L 269.1936 218.88 
L 265.92 221.31936 
L 263.2416 223.3152 
L 259.968 225.75456 
L 257.2896 227.7504 
L 254.016 230.18976 
L 248.064 230.18976 
L 242.112 230.18976 
L 236.16 230.18976 
z
" style="fill:#e4b2ce;fill-opacity:0.5;"/>
   </g>
   <g id="PathCollection_4">
    <path clip-path="url(#p90da9d20c8)" d="M 236.16 230.18976 
L 242.112 230.18976 
L 248.064 230.18976 
L 254.016 230.18976 
L 257.2896 227.7504 
L 259.968 225.75456 
L 263.2416 223.3152 
L 265.92 221.31936 
L 269.1936 218.88 
L 271.872 216.88416 
L 277.824 216.88416 
L 281.0976 214.4448 
L 281.0976 210.0096 
L 283.776 208.01376 
L 289.728 208.01376 
L 293.0016 205.5744 
L 293.0016 201.1392 
L 295.68 199.14336 
L 298.9536 196.704 
L 301.632 194.70816 
L 307.584 194.70816 
L 310.8576 192.2688 
L 313.536 190.27296 
L 316.8096 187.8336 
L 316.8096 183.3984 
L 316.8096 178.9632 
L 316.8096 174.528 
L 316.8096 170.0928 
L 316.8096 165.6576 
L 316.8096 161.2224 
L 316.8096 156.7872 
L 313.536 154.34784 
L 310.8576 152.352 
L 310.8576 147.9168 
L 307.584 145.47744 
L 304.9056 143.4816 
L 301.632 141.04224 
L 298.9536 139.0464 
L 295.68 136.60704 
L 293.0016 134.6112 
L 289.728 132.17184 
L 283.776 132.17184 
L 281.0976 130.176 
L 281.0976 125.7408 
L 277.824 123.30144 
L 275.1456 121.3056 
L 271.872 118.86624 
L 269.1936 116.8704 
L 265.92 114.43104 
L 263.2416 112.4352 
L 259.968 109.99584 
L 256.6944 112.4352 
L 254.016 114.43104 
L 248.064 114.43104 
L 242.112 114.43104 
L 239.4336 112.4352 
L 236.16 109.99584 
L 230.208 109.99584 
L 224.256 109.99584 
L 218.304 109.99584 
L 212.352 109.99584 
L 209.6736 108 
L 206.4 105.56064 
L 200.448 105.56064 
L 197.1744 108 
L 194.496 109.99584 
L 191.8176 108 
L 188.544 105.56064 
L 185.2704 108 
L 182.592 109.99584 
L 179.3184 112.4352 
L 179.3184 116.8704 
L 179.3184 121.3056 
L 176.64 123.30144 
L 173.3664 125.7408 
L 170.688 127.73664 
L 167.4144 130.176 
L 167.4144 134.6112 
L 164.736 136.60704 
L 161.4624 139.0464 
L 158.784 141.04224 
L 155.5104 143.4816 
L 155.5104 147.9168 
L 155.5104 152.352 
L 155.5104 156.7872 
L 155.5104 161.2224 
L 155.5104 165.6576 
L 152.832 167.65344 
L 146.88 167.65344 
L 143.6064 170.0928 
L 143.6064 174.528 
L 146.88 176.96736 
L 149.5584 178.9632 
L 149.5584 183.3984 
L 149.5584 187.8336 
L 149.5584 192.2688 
L 152.832 194.70816 
L 158.784 194.70816 
L 161.4624 196.704 
L 164.736 199.14336 
L 170.688 199.14336 
L 173.3664 201.1392 
L 176.64 203.57856 
L 179.3184 205.5744 
L 182.592 208.01376 
L 185.2704 210.0096 
L 188.544 212.44896 
L 194.496 212.44896 
L 197.1744 214.4448 
L 200.448 216.88416 
L 206.4 216.88416 
L 212.352 216.88416 
L 215.0304 218.88 
L 215.0304 223.3152 
L 218.304 225.75456 
L 224.256 225.75456 
L 230.208 225.75456 
L 232.8864 227.7504 
z
M 233.7792 227.7504 
L 230.208 225.08928 
L 224.256 225.08928 
L 218.304 225.08928 
L 215.9232 223.3152 
L 215.9232 218.88 
L 212.352 216.21888 
L 206.4 216.21888 
L 200.448 216.21888 
L 198.0672 214.4448 
L 194.496 211.78368 
L 188.544 211.78368 
L 186.1632 210.0096 
L 182.592 207.34848 
L 180.2112 205.5744 
L 176.64 202.91328 
L 174.2592 201.1392 
L 170.688 198.47808 
L 164.736 198.47808 
L 162.3552 196.704 
L 158.784 194.04288 
L 152.832 194.04288 
L 150.4512 192.2688 
L 150.4512 187.8336 
L 150.4512 183.3984 
L 150.4512 178.9632 
L 146.88 176.30208 
L 144.4992 174.528 
L 144.4992 170.0928 
L 146.88 168.31872 
L 152.832 168.31872 
L 156.4032 165.6576 
L 156.4032 161.2224 
L 156.4032 156.7872 
L 156.4032 152.352 
L 156.4032 147.9168 
L 156.4032 143.4816 
L 158.784 141.70752 
L 162.3552 139.0464 
L 164.736 137.27232 
L 168.3072 134.6112 
L 168.3072 130.176 
L 170.688 128.40192 
L 174.2592 125.7408 
L 176.64 123.96672 
L 180.2112 121.3056 
L 180.2112 116.8704 
L 180.2112 112.4352 
L 182.592 110.66112 
L 186.1632 108 
L 188.544 106.22592 
L 190.9248 108 
L 194.496 110.66112 
L 198.0672 108 
L 200.448 106.22592 
L 206.4 106.22592 
L 208.7808 108 
L 212.352 110.66112 
L 218.304 110.66112 
L 224.256 110.66112 
L 230.208 110.66112 
L 236.16 110.66112 
L 238.5408 112.4352 
L 242.112 115.09632 
L 248.064 115.09632 
L 254.016 115.09632 
L 257.5872 112.4352 
L 259.968 110.66112 
L 262.3488 112.4352 
L 265.92 115.09632 
L 268.3008 116.8704 
L 271.872 119.53152 
L 274.2528 121.3056 
L 277.824 123.96672 
L 280.2048 125.7408 
L 280.2048 130.176 
L 283.776 132.83712 
L 289.728 132.83712 
L 292.1088 134.6112 
L 295.68 137.27232 
L 298.0608 139.0464 
L 301.632 141.70752 
L 304.0128 143.4816 
L 307.584 146.14272 
L 309.9648 147.9168 
L 309.9648 152.352 
L 313.536 155.01312 
L 315.9168 156.7872 
L 315.9168 161.2224 
L 315.9168 165.6576 
L 315.9168 170.0928 
L 315.9168 174.528 
L 315.9168 178.9632 
L 315.9168 183.3984 
L 315.9168 187.8336 
L 313.536 189.60768 
L 309.9648 192.2688 
L 307.584 194.04288 
L 301.632 194.04288 
L 298.0608 196.704 
L 295.68 198.47808 
L 292.1088 201.1392 
L 292.1088 205.5744 
L 289.728 207.34848 
L 283.776 207.34848 
L 280.2048 210.0096 
L 280.2048 214.4448 
L 277.824 216.21888 
L 271.872 216.21888 
L 268.3008 218.88 
L 265.92 220.65408 
L 262.3488 223.3152 
L 259.968 225.08928 
L 256.3968 227.7504 
L 254.016 229.52448 
L 248.064 229.52448 
L 242.112 229.52448 
L 236.16 229.52448 
z
" style="fill:#d9b2d9;fill-opacity:0.5;"/>
   </g>
   <g id="PathCollection_5">
    <path clip-path="url(#p90da9d20c8)" d="M 236.16 229.52448 
L 242.112 229.52448 
L 248.064 229.52448 
L 254.016 229.52448 
L 256.3968 227.7504 
L 259.968 225.08928 
L 262.3488 223.3152 
L 265.92 220.65408 
L 268.3008 218.88 
L 271.872 216.21888 
L 277.824 216.21888 
L 280.2048 214.4448 
L 280.2048 210.0096 
L 283.776 207.34848 
L 289.728 207.34848 
L 292.1088 205.5744 
L 292.1088 201.1392 
L 295.68 198.47808 
L 298.0608 196.704 
L 301.632 194.04288 
L 307.584 194.04288 
L 309.9648 192.2688 
L 313.536 189.60768 
L 315.9168 187.8336 
L 315.9168 183.3984 
L 315.9168 178.9632 
L 315.9168 174.528 
L 315.9168 170.0928 
L 315.9168 165.6576 
L 315.9168 161.2224 
L 315.9168 156.7872 
L 313.536 155.01312 
L 309.9648 152.352 
L 309.9648 147.9168 
L 307.584 146.14272 
L 304.0128 143.4816 
L 301.632 141.70752 
L 298.0608 139.0464 
L 295.68 137.27232 
L 292.1088 134.6112 
L 289.728 132.83712 
L 283.776 132.83712 
L 280.2048 130.176 
L 280.2048 125.7408 
L 277.824 123.96672 
L 274.2528 121.3056 
L 271.872 119.53152 
L 268.3008 116.8704 
L 265.92 115.09632 
L 262.3488 112.4352 
L 259.968 110.66112 
L 257.5872 112.4352 
L 254.016 115.09632 
L 248.064 115.09632 
L 242.112 115.09632 
L 238.5408 112.4352 
L 236.16 110.66112 
L 230.208 110.66112 
L 224.256 110.66112 
L 218.304 110.66112 
L 212.352 110.66112 
L 208.7808 108 
L 206.4 106.22592 
L 200.448 106.22592 
L 198.0672 108 
L 194.496 110.66112 
L 190.9248 108 
L 188.544 106.22592 
L 186.1632 108 
L 182.592 110.66112 
L 180.2112 112.4352 
L 180.2112 116.8704 
L 180.2112 121.3056 
L 176.64 123.96672 
L 174.2592 125.7408 
L 170.688 128.40192 
L 168.3072 130.176 
L 168.3072 134.6112 
L 164.736 137.27232 
L 162.3552 139.0464 
L 158.784 141.70752 
L 156.4032 143.4816 
L 156.4032 147.9168 
L 156.4032 152.352 
L 156.4032 156.7872 
L 156.4032 161.2224 
L 156.4032 165.6576 
L 152.832 168.31872 
L 146.88 168.31872 
L 144.4992 170.0928 
L 144.4992 174.528 
L 146.88 176.30208 
L 150.4512 178.9632 
L 150.4512 183.3984 
L 150.4512 187.8336 
L 150.4512 192.2688 
L 152.832 194.04288 
L 158.784 194.04288 
L 162.3552 196.704 
L 164.736 198.47808 
L 170.688 198.47808 
L 174.2592 201.1392 
L 176.64 202.91328 
L 180.2112 205.5744 
L 182.592 207.34848 
L 186.1632 210.0096 
L 188.544 211.78368 
L 194.496 211.78368 
L 198.0672 214.4448 
L 200.448 216.21888 
L 206.4 216.21888 
L 212.352 216.21888 
L 215.9232 218.88 
L 215.9232 223.3152 
L 218.304 225.08928 
L 224.256 225.08928 
L 230.208 225.08928 
L 233.7792 227.7504 
z
M 234.672 227.7504 
L 230.208 224.424 
L 224.256 224.424 
L 218.304 224.424 
L 216.816 223.3152 
L 216.816 218.88 
L 212.352 215.5536 
L 206.4 215.5536 
L 200.448 215.5536 
L 198.96 214.4448 
L 194.496 211.1184 
L 188.544 211.1184 
L 187.056 210.0096 
L 182.592 206.6832 
L 181.104 205.5744 
L 176.64 202.248 
L 175.152 201.1392 
L 170.688 197.8128 
L 164.736 197.8128 
L 163.248 196.704 
L 158.784 193.3776 
L 152.832 193.3776 
L 151.344 192.2688 
L 151.344 187.8336 
L 151.344 183.3984 
L 151.344 178.9632 
L 146.88 175.6368 
L 145.392 174.528 
L 145.392 170.0928 
L 146.88 168.984 
L 152.832 168.984 
L 157.296 165.6576 
L 157.296 161.2224 
L 157.296 156.7872 
L 157.296 152.352 
L 157.296 147.9168 
L 157.296 143.4816 
L 158.784 142.3728 
L 163.248 139.0464 
L 164.736 137.9376 
L 169.2 134.6112 
L 169.2 130.176 
L 170.688 129.0672 
L 175.152 125.7408 
L 176.64 124.632 
L 181.104 121.3056 
L 181.104 116.8704 
L 181.104 112.4352 
L 182.592 111.3264 
L 187.056 108 
L 188.544 106.8912 
L 190.032 108 
L 194.496 111.3264 
L 198.96 108 
L 200.448 106.8912 
L 206.4 106.8912 
L 207.888 108 
L 212.352 111.3264 
L 218.304 111.3264 
L 224.256 111.3264 
L 230.208 111.3264 
L 236.16 111.3264 
L 237.648 112.4352 
L 242.112 115.7616 
L 248.064 115.7616 
L 254.016 115.7616 
L 258.48 112.4352 
L 259.968 111.3264 
L 261.456 112.4352 
L 265.92 115.7616 
L 267.408 116.8704 
L 271.872 120.1968 
L 273.36 121.3056 
L 277.824 124.632 
L 279.312 125.7408 
L 279.312 130.176 
L 283.776 133.5024 
L 289.728 133.5024 
L 291.216 134.6112 
L 295.68 137.9376 
L 297.168 139.0464 
L 301.632 142.3728 
L 303.12 143.4816 
L 307.584 146.808 
L 309.072 147.9168 
L 309.072 152.352 
L 313.536 155.6784 
L 315.024 156.7872 
L 315.024 161.2224 
L 315.024 165.6576 
L 315.024 170.0928 
L 315.024 174.528 
L 315.024 178.9632 
L 315.024 183.3984 
L 315.024 187.8336 
L 313.536 188.9424 
L 309.072 192.2688 
L 307.584 193.3776 
L 301.632 193.3776 
L 297.168 196.704 
L 295.68 197.8128 
L 291.216 201.1392 
L 291.216 205.5744 
L 289.728 206.6832 
L 283.776 206.6832 
L 279.312 210.0096 
L 279.312 214.4448 
L 277.824 215.5536 
L 271.872 215.5536 
L 267.408 218.88 
L 265.92 219.9888 
L 261.456 223.3152 
L 259.968 224.424 
L 255.504 227.7504 
L 254.016 228.8592 
L 248.064 228.8592 
L 242.112 228.8592 
L 236.16 228.8592 
z
" style="fill:#ceb2e4;fill-opacity:0.5;"/>
   </g>
   <g id="PathCollection_6">
    <path clip-path="url(#p90da9d20c8)" d="M 236.16 228.8592 
L 242.112 228.8592 
L 248.064 228.8592 
L 254.016 228.8592 
L 255.504 227.7504 
L 259.968 224.424 
L 261.456 223.3152 
L 265.92 219.9888 
L 267.408 218.88 
L 271.872 215.5536 
L 277.824 215.5536 
L 279.312 214.4448 
L 279.312 210.0096 
L 283.776 206.6832 
L 289.728 206.6832 
L 291.216 205.5744 
L 291.216 201.1392 
L 295.68 197.8128 
L 297.168 196.704 
L 301.632 193.3776 
L 307.584 193.3776 
L 309.072 192.2688 
L 313.536 188.9424 
L 315.024 187.8336 
L 315.024 183.3984 
L 315.024 178.9632 
L 315.024 174.528 
L 315.024 170.0928 
L 315.024 165.6576 
L 315.024 161.2224 
L 315.024 156.7872 
L 313.536 155.6784 
L 309.072 152.352 
L 309.072 147.9168 
L 307.584 146.808 
L 303.12 143.4816 
L 301.632 142.3728 
L 297.168 139.0464 
L 295.68 137.9376 
L 291.216 134.6112 
L 289.728 133.5024 
L 283.776 133.5024 
L 279.312 130.176 
L 279.312 125.7408 
L 277.824 124.632 
L 273.36 121.3056 
L 271.872 120.1968 
L 267.408 116.8704 
L 265.92 115.7616 
L 261.456 112.4352 
L 259.968 111.3264 
L 258.48 112.4352 
L 254.016 115.7616 
L 248.064 115.7616 
L 242.112 115.7616 
L 237.648 112.4352 
L 236.16 111.3264 
L 230.208 111.3264 
L 224.256 111.3264 
L 218.304 111.3264 
L 212.352 111.3264 
L 207.888 108 
L 206.4 106.8912 
L 200.448 106.8912 
L 198.96 108 
L 194.496 111.3264 
L 190.032 108 
L 188.544 106.8912 
L 187.056 108 
L 182.592 111.3264 
L 181.104 112.4352 
L 181.104 116.8704 
L 181.104 121.3056 
L 176.64 124.632 
L 175.152 125.7408 
L 170.688 129.0672 
L 169.2 130.176 
L 169.2 134.6112 
L 164.736 137.9376 
L 163.248 139.0464 
L 158.784 142.3728 
L 157.296 143.4816 
L 157.296 147.9168 
L 157.296 152.352 
L 157.296 156.7872 
L 157.296 161.2224 
L 157.296 165.6576 
L 152.832 168.984 
L 146.88 168.984 
L 145.392 170.0928 
L 145.392 174.528 
L 146.88 175.6368 
L 151.344 178.9632 
L 151.344 183.3984 
L 151.344 187.8336 
L 151.344 192.2688 
L 152.832 193.3776 
L 158.784 193.3776 
L 163.248 196.704 
L 164.736 197.8128 
L 170.688 197.8128 
L 175.152 201.1392 
L 176.64 202.248 
L 181.104 205.5744 
L 182.592 206.6832 
L 187.056 210.0096 
L 188.544 211.1184 
L 194.496 211.1184 
L 198.96 214.4448 
L 200.448 215.5536 
L 206.4 215.5536 
L 212.352 215.5536 
L 216.816 218.88 
L 216.816 223.3152 
L 218.304 224.424 
L 224.256 224.424 
L 230.208 224.424 
L 234.672 227.7504 
z
M 235.5648 227.7504 
L 230.208 223.75872 
L 224.256 223.75872 
L 218.304 223.75872 
L 217.7088 223.3152 
L 217.7088 218.88 
L 212.352 214.88832 
L 206.4 214.88832 
L 200.448 214.88832 
L 199.8528 214.4448 
L 194.496 210.45312 
L 188.544 210.45312 
L 187.9488 210.0096 
L 182.592 206.01792 
L 181.9968 205.5744 
L 176.64 201.58272 
L 176.0448 201.1392 
L 170.688 197.14752 
L 164.736 197.14752 
L 164.1408 196.704 
L 158.784 192.71232 
L 152.832 192.71232 
L 152.2368 192.2688 
L 152.2368 187.8336 
L 152.2368 183.3984 
L 152.2368 178.9632 
L 146.88 174.97152 
L 146.2848 174.528 
L 146.2848 170.0928 
L 146.88 169.64928 
L 152.832 169.64928 
L 158.1888 165.6576 
L 158.1888 161.2224 
L 158.1888 156.7872 
L 158.1888 152.352 
L 158.1888 147.9168 
L 158.1888 143.4816 
L 158.784 143.03808 
L 164.1408 139.0464 
L 164.736 138.60288 
L 170.0928 134.6112 
L 170.0928 130.176 
L 170.688 129.73248 
L 176.0448 125.7408 
L 176.64 125.29728 
L 181.9968 121.3056 
L 181.9968 116.8704 
L 181.9968 112.4352 
L 182.592 111.99168 
L 187.9488 108 
L 188.544 107.55648 
L 189.1392 108 
L 194.496 111.99168 
L 199.8528 108 
L 200.448 107.55648 
L 206.4 107.55648 
L 206.9952 108 
L 212.352 111.99168 
L 218.304 111.99168 
L 224.256 111.99168 
L 230.208 111.99168 
L 236.16 111.99168 
L 236.7552 112.4352 
L 242.112 116.42688 
L 248.064 116.42688 
L 254.016 116.42688 
L 259.3728 112.4352 
L 259.968 111.99168 
L 260.5632 112.4352 
L 265.92 116.42688 
L 266.5152 116.8704 
L 271.872 120.86208 
L 272.4672 121.3056 
L 277.824 125.29728 
L 278.4192 125.7408 
L 278.4192 130.176 
L 283.776 134.16768 
L 289.728 134.16768 
L 290.3232 134.6112 
L 295.68 138.60288 
L 296.2752 139.0464 
L 301.632 143.03808 
L 302.2272 143.4816 
L 307.584 147.47328 
L 308.1792 147.9168 
L 308.1792 152.352 
L 313.536 156.34368 
L 314.1312 156.7872 
L 314.1312 161.2224 
L 314.1312 165.6576 
L 314.1312 170.0928 
L 314.1312 174.528 
L 314.1312 178.9632 
L 314.1312 183.3984 
L 314.1312 187.8336 
L 313.536 188.27712 
L 308.1792 192.2688 
L 307.584 192.71232 
L 301.632 192.71232 
L 296.2752 196.704 
L 295.68 197.14752 
L 290.3232 201.1392 
L 290.3232 205.5744 
L 289.728 206.01792 
L 283.776 206.01792 
L 278.4192 210.0096 
L 278.4192 214.4448 
L 277.824 214.88832 
L 271.872 214.88832 
L 266.5152 218.88 
L 265.92 219.32352 
L 260.5632 223.3152 
L 259.968 223.75872 
L 254.6112 227.7504 
L 254.016 228.19392 
L 248.064 228.19392 
L 242.112 228.19392 
L 236.16 228.19392 
z
" style="fill:#c3b2ef;fill-opacity:0.5;"/>
   </g>
   <g id="PathCollection_7">
    <path clip-path="url(#p90da9d20c8)" d="M 236.16 228.19392 
L 242.112 228.19392 
L 248.064 228.19392 
L 254.016 228.19392 
L 254.6112 227.7504 
L 259.968 223.75872 
L 260.5632 223.3152 
L 265.92 219.32352 
L 266.5152 218.88 
L 271.872 214.88832 
L 277.824 214.88832 
L 278.4192 214.4448 
L 278.4192 210.0096 
L 283.776 206.01792 
L 289.728 206.01792 
L 290.3232 205.5744 
L 290.3232 201.1392 
L 295.68 197.14752 
L 296.2752 196.704 
L 301.632 192.71232 
L 307.584 192.71232 
L 308.1792 192.2688 
L 313.536 188.27712 
L 314.1312 187.8336 
L 314.1312 183.3984 
L 314.1312 178.9632 
L 314.1312 174.528 
L 314.1312 170.0928 
L 314.1312 165.6576 
L 314.1312 161.2224 
L 314.1312 156.7872 
L 313.536 156.34368 
L 308.1792 152.352 
L 308.1792 147.9168 
L 307.584 147.47328 
L 302.2272 143.4816 
L 301.632 143.03808 
L 296.2752 139.0464 
L 295.68 138.60288 
L 290.3232 134.6112 
L 289.728 134.16768 
L 283.776 134.16768 
L 278.4192 130.176 
L 278.4192 125.7408 
L 277.824 125.29728 
L 272.4672 121.3056 
L 271.872 120.86208 
L 266.5152 116.8704 
L 265.92 116.42688 
L 260.5632 112.4352 
L 259.968 111.99168 
L 259.3728 112.4352 
L 254.016 116.42688 
L 248.064 116.42688 
L 242.112 116.42688 
L 236.7552 112.4352 
L 236.16 111.99168 
L 230.208 111.99168 
L 224.256 111.99168 
L 218.304 111.99168 
L 212.352 111.99168 
L 206.9952 108 
L 206.4 107.55648 
L 200.448 107.55648 
L 199.8528 108 
L 194.496 111.99168 
L 189.1392 108 
L 188.544 107.55648 
L 187.9488 108 
L 182.592 111.99168 
L 181.9968 112.4352 
L 181.9968 116.8704 
L 181.9968 121.3056 
L 176.64 125.29728 
L 176.0448 125.7408 
L 170.688 129.73248 
L 170.0928 130.176 
L 170.0928 134.6112 
L 164.736 138.60288 
L 164.1408 139.0464 
L 158.784 143.03808 
L 158.1888 143.4816 
L 158.1888 147.9168 
L 158.1888 152.352 
L 158.1888 156.7872 
L 158.1888 161.2224 
L 158.1888 165.6576 
L 152.832 169.64928 
L 146.88 169.64928 
L 146.2848 170.0928 
L 146.2848 174.528 
L 146.88 174.97152 
L 152.2368 178.9632 
L 152.2368 183.3984 
L 152.2368 187.8336 
L 152.2368 192.2688 
L 152.832 192.71232 
L 158.784 192.71232 
L 164.1408 196.704 
L 164.736 197.14752 
L 170.688 197.14752 
L 176.0448 201.1392 
L 176.64 201.58272 
L 181.9968 205.5744 
L 182.592 206.01792 
L 187.9488 210.0096 
L 188.544 210.45312 
L 194.496 210.45312 
L 199.8528 214.4448 
L 200.448 214.88832 
L 206.4 214.88832 
L 212.352 214.88832 
L 217.7088 218.88 
L 217.7088 223.3152 
L 218.304 223.75872 
L 224.256 223.75872 
L 230.208 223.75872 
L 235.5648 227.7504 
z
" style="fill:#b8b2fa;fill-opacity:0.5;"/>
   </g>
   <g id="PathCollection_8">
    <defs>
     <path d="M 0 3 
C 0.795609 3 1.55874 2.683901 2.12132 2.12132 
C 2.683901 1.55874 3 0.795609 3 0 
C 3 -0.795609 2.683901 -1.55874 2.12132 -2.12132 
C 1.55874 -2.683901 0.795609 -3 0 -3 
C -0.795609 -3 -1.55874 -2.683901 -2.12132 -2.12132 
C -2.683901 -1.55874 -3 -0.795609 -3 0 
C -3 0.795609 -2.683901 1.55874 -2.12132 2.12132 
C -1.55874 2.683901 -0.795609 3 0 3 
z
" id="m77b98a0fcc" style="stroke:#1a1a1a;stroke-opacity:0.8;"/>
    </defs>
    <g clip-path="url(#p90da9d20c8)">
     <use style="fill:#ff0000;fill-opacity:0.8;stroke:#1a1a1a;stroke-opacity:0.8;" x="333.145664" xlink:href="#m77b98a0fcc" y="154.298142"/>
     <use style="fill:#ff0000;fill-opacity:0.8;stroke:#1a1a1a;stroke-opacity:0.8;" x="147.132606" xlink:href="#m77b98a0fcc" y="205.233139"/>
     <use style="fill:#ff0000;fill-opacity:0.8;stroke:#1a1a1a;stroke-opacity:0.8;" x="123.814546" xlink:href="#m77b98a0fcc" y="161.40891"/>
     <use style="fill:#ff0000;fill-opacity:0.8;stroke:#1a1a1a;stroke-opacity:0.8;" x="245.630306" xlink:href="#m77b98a0fcc" y="88.626886"/>
     <use style="fill:#ff0000;fill-opacity:0.8;stroke:#1a1a1a;stroke-opacity:0.8;" x="299.19284" xlink:href="#m77b98a0fcc" y="219.677678"/>
     <use style="fill:#ff0000;fill-opacity:0.8;stroke:#1a1a1a;stroke-opacity:0.8;" x="140.058107" xlink:href="#m77b98a0fcc" y="134.928804"/>
     <use style="fill:#ff0000;fill-opacity:0.8;stroke:#1a1a1a;stroke-opacity:0.8;" x="249.391063" xlink:href="#m77b98a0fcc" y="263.232"/>
     <use style="fill:#ff0000;fill-opacity:0.8;stroke:#1a1a1a;stroke-opacity:0.8;" x="246.899884" xlink:href="#m77b98a0fcc" y="84.549077"/>
     <use style="fill:#ff0000;fill-opacity:0.8;stroke:#1a1a1a;stroke-opacity:0.8;" x="300.139719" xlink:href="#m77b98a0fcc" y="119.571812"/>
     <use style="fill:#ff0000;fill-opacity:0.8;stroke:#1a1a1a;stroke-opacity:0.8;" x="190.479781" xlink:href="#m77b98a0fcc" y="114.636003"/>
     <use style="fill:#ff0000;fill-opacity:0.8;stroke:#1a1a1a;stroke-opacity:0.8;" x="150.086653" xlink:href="#m77b98a0fcc" y="121.262211"/>
     <use style="fill:#ff0000;fill-opacity:0.8;stroke:#1a1a1a;stroke-opacity:0.8;" x="117.12" xlink:href="#m77b98a0fcc" y="203.272118"/>
     <use style="fill:#ff0000;fill-opacity:0.8;stroke:#1a1a1a;stroke-opacity:0.8;" x="241.180706" xlink:href="#m77b98a0fcc" y="105.448063"/>
     <use style="fill:#ff0000;fill-opacity:0.8;stroke:#1a1a1a;stroke-opacity:0.8;" x="291.856452" xlink:href="#m77b98a0fcc" y="237.315728"/>
     <use style="fill:#ff0000;fill-opacity:0.8;stroke:#1a1a1a;stroke-opacity:0.8;" x="329.306836" xlink:href="#m77b98a0fcc" y="129.676408"/>
     <use style="fill:#ff0000;fill-opacity:0.8;stroke:#1a1a1a;stroke-opacity:0.8;" x="213.823626" xlink:href="#m77b98a0fcc" y="85.353582"/>
     <use style="fill:#ff0000;fill-opacity:0.8;stroke:#1a1a1a;stroke-opacity:0.8;" x="330.969275" xlink:href="#m77b98a0fcc" y="194.417682"/>
     <use style="fill:#ff0000;fill-opacity:0.8;stroke:#1a1a1a;stroke-opacity:0.8;" x="215.335918" xlink:href="#m77b98a0fcc" y="248.418303"/>
     <use style="fill:#ff0000;fill-opacity:0.8;stroke:#1a1a1a;stroke-opacity:0.8;" x="321.305685" xlink:href="#m77b98a0fcc" y="186.701545"/>
     <use style="fill:#ff0000;fill-opacity:0.8;stroke:#1a1a1a;stroke-opacity:0.8;" x="190.740452" xlink:href="#m77b98a0fcc" y="235.773233"/>
     <use style="fill:#ff0000;fill-opacity:0.8;stroke:#1a1a1a;stroke-opacity:0.8;" x="313.486805" xlink:href="#m77b98a0fcc" y="215.960859"/>
     <use style="fill:#ff0000;fill-opacity:0.8;stroke:#1a1a1a;stroke-opacity:0.8;" x="313.855114" xlink:href="#m77b98a0fcc" y="128.895447"/>
     <use style="fill:#ff0000;fill-opacity:0.8;stroke:#1a1a1a;stroke-opacity:0.8;" x="232.83679" xlink:href="#m77b98a0fcc" y="230.473413"/>
     <use style="fill:#ff0000;fill-opacity:0.8;stroke:#1a1a1a;stroke-opacity:0.8;" x="358.042527" xlink:href="#m77b98a0fcc" y="160.907034"/>
     <use style="fill:#ff0000;fill-opacity:0.8;stroke:#1a1a1a;stroke-opacity:0.8;" x="186.926866" xlink:href="#m77b98a0fcc" y="229.861198"/>
     <use style="fill:#ff0000;fill-opacity:0.8;stroke:#1a1a1a;stroke-opacity:0.8;" x="184.550554" xlink:href="#m77b98a0fcc" y="90.145901"/>
     <use style="fill:#ff0000;fill-opacity:0.8;stroke:#1a1a1a;stroke-opacity:0.8;" x="177.291716" xlink:href="#m77b98a0fcc" y="220.923156"/>
     <use style="fill:#ff0000;fill-opacity:0.8;stroke:#1a1a1a;stroke-opacity:0.8;" x="301.33562" xlink:href="#m77b98a0fcc" y="105.084809"/>
     <use style="fill:#ff0000;fill-opacity:0.8;stroke:#1a1a1a;stroke-opacity:0.8;" x="286.405797" xlink:href="#m77b98a0fcc" y="109.172007"/>
     <use style="fill:#ff0000;fill-opacity:0.8;stroke:#1a1a1a;stroke-opacity:0.8;" x="331.012198" xlink:href="#m77b98a0fcc" y="218.763049"/>
     <use style="fill:#ff0000;fill-opacity:0.8;stroke:#1a1a1a;stroke-opacity:0.8;" x="322.35772" xlink:href="#m77b98a0fcc" y="127.359007"/>
     <use style="fill:#ff0000;fill-opacity:0.8;stroke:#1a1a1a;stroke-opacity:0.8;" x="154.318063" xlink:href="#m77b98a0fcc" y="210.279952"/>
     <use style="fill:#ff0000;fill-opacity:0.8;stroke:#1a1a1a;stroke-opacity:0.8;" x="208.726598" xlink:href="#m77b98a0fcc" y="240.562548"/>
     <use style="fill:#ff0000;fill-opacity:0.8;stroke:#1a1a1a;stroke-opacity:0.8;" x="138.05764" xlink:href="#m77b98a0fcc" y="162.501841"/>
     <use style="fill:#ff0000;fill-opacity:0.8;stroke:#1a1a1a;stroke-opacity:0.8;" x="283.485808" xlink:href="#m77b98a0fcc" y="231.310993"/>
     <use style="fill:#ff0000;fill-opacity:0.8;stroke:#1a1a1a;stroke-opacity:0.8;" x="345.93567" xlink:href="#m77b98a0fcc" y="195.906925"/>
     <use style="fill:#ff0000;fill-opacity:0.8;stroke:#1a1a1a;stroke-opacity:0.8;" x="291.052481" xlink:href="#m77b98a0fcc" y="100.95677"/>
     <use style="fill:#ff0000;fill-opacity:0.8;stroke:#1a1a1a;stroke-opacity:0.8;" x="135.421105" xlink:href="#m77b98a0fcc" y="141.581418"/>
     <use style="fill:#ff0000;fill-opacity:0.8;stroke:#1a1a1a;stroke-opacity:0.8;" x="343.700219" xlink:href="#m77b98a0fcc" y="174.579311"/>
     <use style="fill:#ff0000;fill-opacity:0.8;stroke:#1a1a1a;stroke-opacity:0.8;" x="218.316105" xlink:href="#m77b98a0fcc" y="101.573127"/>
     <use style="fill:#ff0000;fill-opacity:0.8;stroke:#1a1a1a;stroke-opacity:0.8;" x="231.309499" xlink:href="#m77b98a0fcc" y="250.743997"/>
     <use style="fill:#ff0000;fill-opacity:0.8;stroke:#1a1a1a;stroke-opacity:0.8;" x="152.867745" xlink:href="#m77b98a0fcc" y="120.197345"/>
     <use style="fill:#ff0000;fill-opacity:0.8;stroke:#1a1a1a;stroke-opacity:0.8;" x="156.186893" xlink:href="#m77b98a0fcc" y="109.817687"/>
    </g>
   </g>
   <g id="PathCollection_9">
    <defs>
     <path d="M 0 3 
C 0.795609 3 1.55874 2.683901 2.12132 2.12132 
C 2.683901 1.55874 3 0.795609 3 0 
C 3 -0.795609 2.683901 -1.55874 2.12132 -2.12132 
C 1.55874 -2.683901 0.795609 -3 0 -3 
C -0.795609 -3 -1.55874 -2.683901 -2.12132 -2.12132 
C -2.683901 -1.55874 -3 -0.795609 -3 0 
C -3 0.795609 -2.683901 1.55874 -2.12132 2.12132 
C -1.55874 2.683901 -0.795609 3 0 3 
z
" id="m7f1050ee92" style="stroke:#1a1a1a;stroke-opacity:0.8;"/>
    </defs>
    <g clip-path="url(#p90da9d20c8)">
     <use style="fill:#0000ff;fill-opacity:0.8;stroke:#1a1a1a;stroke-opacity:0.8;" x="167.121246" xlink:href="#m7f1050ee92" y="192.809441"/>
     <use style="fill:#0000ff;fill-opacity:0.8;stroke:#1a1a1a;stroke-opacity:0.8;" x="194.343858" xlink:href="#m7f1050ee92" y="187.048797"/>
     <use style="fill:#0000ff;fill-opacity:0.8;stroke:#1a1a1a;stroke-opacity:0.8;" x="270.57835" xlink:href="#m7f1050ee92" y="177.941573"/>
     <use style="fill:#0000ff;fill-opacity:0.8;stroke:#1a1a1a;stroke-opacity:0.8;" x="266.104619" xlink:href="#m7f1050ee92" y="206.663219"/>
     <use style="fill:#0000ff;fill-opacity:0.8;stroke:#1a1a1a;stroke-opacity:0.8;" x="268.878849" xlink:href="#m7f1050ee92" y="150.280912"/>
     <use style="fill:#0000ff;fill-opacity:0.8;stroke:#1a1a1a;stroke-opacity:0.8;" x="289.109762" xlink:href="#m7f1050ee92" y="159.665606"/>
     <use style="fill:#0000ff;fill-opacity:0.8;stroke:#1a1a1a;stroke-opacity:0.8;" x="194.149173" xlink:href="#m7f1050ee92" y="143.314595"/>
     <use style="fill:#0000ff;fill-opacity:0.8;stroke:#1a1a1a;stroke-opacity:0.8;" x="239.699679" xlink:href="#m7f1050ee92" y="197.975779"/>
     <use style="fill:#0000ff;fill-opacity:0.8;stroke:#1a1a1a;stroke-opacity:0.8;" x="183.552389" xlink:href="#m7f1050ee92" y="137.981314"/>
     <use style="fill:#0000ff;fill-opacity:0.8;stroke:#1a1a1a;stroke-opacity:0.8;" x="216.270374" xlink:href="#m7f1050ee92" y="181.608363"/>
     <use style="fill:#0000ff;fill-opacity:0.8;stroke:#1a1a1a;stroke-opacity:0.8;" x="294.093341" xlink:href="#m7f1050ee92" y="175.433757"/>
     <use style="fill:#0000ff;fill-opacity:0.8;stroke:#1a1a1a;stroke-opacity:0.8;" x="273.241331" xlink:href="#m7f1050ee92" y="151.492707"/>
     <use style="fill:#0000ff;fill-opacity:0.8;stroke:#1a1a1a;stroke-opacity:0.8;" x="228.823416" xlink:href="#m7f1050ee92" y="208.688025"/>
     <use style="fill:#0000ff;fill-opacity:0.8;stroke:#1a1a1a;stroke-opacity:0.8;" x="265.303704" xlink:href="#m7f1050ee92" y="185.348672"/>
     <use style="fill:#0000ff;fill-opacity:0.8;stroke:#1a1a1a;stroke-opacity:0.8;" x="209.973812" xlink:href="#m7f1050ee92" y="121.020161"/>
     <use style="fill:#0000ff;fill-opacity:0.8;stroke:#1a1a1a;stroke-opacity:0.8;" x="180.665799" xlink:href="#m7f1050ee92" y="202.759054"/>
     <use style="fill:#0000ff;fill-opacity:0.8;stroke:#1a1a1a;stroke-opacity:0.8;" x="193.819263" xlink:href="#m7f1050ee92" y="137.444871"/>
     <use style="fill:#0000ff;fill-opacity:0.8;stroke:#1a1a1a;stroke-opacity:0.8;" x="240.059203" xlink:href="#m7f1050ee92" y="200.233779"/>
     <use style="fill:#0000ff;fill-opacity:0.8;stroke:#1a1a1a;stroke-opacity:0.8;" x="237.343257" xlink:href="#m7f1050ee92" y="139.303221"/>
     <use style="fill:#0000ff;fill-opacity:0.8;stroke:#1a1a1a;stroke-opacity:0.8;" x="186.976761" xlink:href="#m7f1050ee92" y="176.338573"/>
     <use style="fill:#0000ff;fill-opacity:0.8;stroke:#1a1a1a;stroke-opacity:0.8;" x="244.438334" xlink:href="#m7f1050ee92" y="135.284878"/>
     <use style="fill:#0000ff;fill-opacity:0.8;stroke:#1a1a1a;stroke-opacity:0.8;" x="290.736018" xlink:href="#m7f1050ee92" y="175.598032"/>
     <use style="fill:#0000ff;fill-opacity:0.8;stroke:#1a1a1a;stroke-opacity:0.8;" x="201.578929" xlink:href="#m7f1050ee92" y="128.590818"/>
     <use style="fill:#0000ff;fill-opacity:0.8;stroke:#1a1a1a;stroke-opacity:0.8;" x="184.778648" xlink:href="#m7f1050ee92" y="149.594394"/>
     <use style="fill:#0000ff;fill-opacity:0.8;stroke:#1a1a1a;stroke-opacity:0.8;" x="251.358409" xlink:href="#m7f1050ee92" y="200.678472"/>
     <use style="fill:#0000ff;fill-opacity:0.8;stroke:#1a1a1a;stroke-opacity:0.8;" x="257.363835" xlink:href="#m7f1050ee92" y="217.052354"/>
     <use style="fill:#0000ff;fill-opacity:0.8;stroke:#1a1a1a;stroke-opacity:0.8;" x="243.756315" xlink:href="#m7f1050ee92" y="131.399283"/>
     <use style="fill:#0000ff;fill-opacity:0.8;stroke:#1a1a1a;stroke-opacity:0.8;" x="203.232512" xlink:href="#m7f1050ee92" y="122.848321"/>
     <use style="fill:#0000ff;fill-opacity:0.8;stroke:#1a1a1a;stroke-opacity:0.8;" x="211.811109" xlink:href="#m7f1050ee92" y="207.266317"/>
     <use style="fill:#0000ff;fill-opacity:0.8;stroke:#1a1a1a;stroke-opacity:0.8;" x="234.520037" xlink:href="#m7f1050ee92" y="204.483843"/>
     <use style="fill:#0000ff;fill-opacity:0.8;stroke:#1a1a1a;stroke-opacity:0.8;" x="278.387485" xlink:href="#m7f1050ee92" y="146.465129"/>
     <use style="fill:#0000ff;fill-opacity:0.8;stroke:#1a1a1a;stroke-opacity:0.8;" x="258.232412" xlink:href="#m7f1050ee92" y="137.862912"/>
     <use style="fill:#0000ff;fill-opacity:0.8;stroke:#1a1a1a;stroke-opacity:0.8;" x="268.08403" xlink:href="#m7f1050ee92" y="185.699176"/>
     <use style="fill:#0000ff;fill-opacity:0.8;stroke:#1a1a1a;stroke-opacity:0.8;" x="173.580822" xlink:href="#m7f1050ee92" y="168.257846"/>
     <use style="fill:#0000ff;fill-opacity:0.8;stroke:#1a1a1a;stroke-opacity:0.8;" x="194.923064" xlink:href="#m7f1050ee92" y="162.454942"/>
     <use style="fill:#0000ff;fill-opacity:0.8;stroke:#1a1a1a;stroke-opacity:0.8;" x="284.534348" xlink:href="#m7f1050ee92" y="186.507824"/>
     <use style="fill:#0000ff;fill-opacity:0.8;stroke:#1a1a1a;stroke-opacity:0.8;" x="177.340559" xlink:href="#m7f1050ee92" y="153.105463"/>
     <use style="fill:#0000ff;fill-opacity:0.8;stroke:#1a1a1a;stroke-opacity:0.8;" x="184.567934" xlink:href="#m7f1050ee92" y="148.439415"/>
     <use style="fill:#0000ff;fill-opacity:0.8;stroke:#1a1a1a;stroke-opacity:0.8;" x="281.405212" xlink:href="#m7f1050ee92" y="153.812446"/>
    </g>
   </g>
   <g id="matplotlib.axis_1">
    <g id="xtick_1">
     <g id="line2d_1">
      <defs>
       <path d="M 0 0 
L 0 3.5 
" id="mac7c4eb872" style="stroke:#000000;stroke-width:0.8;"/>
      </defs>
      <g>
       <use style="stroke:#000000;stroke-width:0.8;" x="57.657413" xlink:href="#mac7c4eb872" y="307.584"/>
      </g>
     </g>
     <g id="text_1">
      <!-- −3 -->
      <defs>
       <path d="M 10.59375 35.5 
L 73.1875 35.5 
L 73.1875 27.203125 
L 10.59375 27.203125 
z
" id="DejaVuSans-8722"/>
       <path d="M 40.578125 39.3125 
Q 47.65625 37.796875 51.625 33 
Q 55.609375 28.21875 55.609375 21.1875 
Q 55.609375 10.40625 48.1875 4.484375 
Q 40.765625 -1.421875 27.09375 -1.421875 
Q 22.515625 -1.421875 17.65625 -0.515625 
Q 12.796875 0.390625 7.625 2.203125 
L 7.625 11.71875 
Q 11.71875 9.328125 16.59375 8.109375 
Q 21.484375 6.890625 26.8125 6.890625 
Q 36.078125 6.890625 40.9375 10.546875 
Q 45.796875 14.203125 45.796875 21.1875 
Q 45.796875 27.640625 41.28125 31.265625 
Q 36.765625 34.90625 28.71875 34.90625 
L 20.21875 34.90625 
L 20.21875 43.015625 
L 29.109375 43.015625 
Q 36.375 43.015625 40.234375 45.921875 
Q 44.09375 48.828125 44.09375 54.296875 
Q 44.09375 59.90625 40.109375 62.90625 
Q 36.140625 65.921875 28.71875 65.921875 
Q 24.65625 65.921875 20.015625 65.03125 
Q 15.375 64.15625 9.8125 62.3125 
L 9.8125 71.09375 
Q 15.4375 72.65625 20.34375 73.4375 
Q 25.25 74.21875 29.59375 74.21875 
Q 40.828125 74.21875 47.359375 69.109375 
Q 53.90625 64.015625 53.90625 55.328125 
Q 53.90625 49.265625 50.4375 45.09375 
Q 46.96875 40.921875 40.578125 39.3125 
z
" id="DejaVuSans-51"/>
      </defs>
      <g transform="translate(50.286319 322.182437)scale(0.1 -0.1)">
       <use xlink:href="#DejaVuSans-8722"/>
       <use x="83.789062" xlink:href="#DejaVuSans-51"/>
      </g>
     </g>
    </g>
    <g id="xtick_2">
     <g id="line2d_2">
      <g>
       <use style="stroke:#000000;stroke-width:0.8;" x="117.177413" xlink:href="#mac7c4eb872" y="307.584"/>
      </g>
     </g>
     <g id="text_2">
      <!-- −2 -->
      <defs>
       <path d="M 19.1875 8.296875 
L 53.609375 8.296875 
L 53.609375 0 
L 7.328125 0 
L 7.328125 8.296875 
Q 12.9375 14.109375 22.625 23.890625 
Q 32.328125 33.6875 34.8125 36.53125 
Q 39.546875 41.84375 41.421875 45.53125 
Q 43.3125 49.21875 43.3125 52.78125 
Q 43.3125 58.59375 39.234375 62.25 
Q 35.15625 65.921875 28.609375 65.921875 
Q 23.96875 65.921875 18.8125 64.3125 
Q 13.671875 62.703125 7.8125 59.421875 
L 7.8125 69.390625 
Q 13.765625 71.78125 18.9375 73 
Q 24.125 74.21875 28.421875 74.21875 
Q 39.75 74.21875 46.484375 68.546875 
Q 53.21875 62.890625 53.21875 53.421875 
Q 53.21875 48.921875 51.53125 44.890625 
Q 49.859375 40.875 45.40625 35.40625 
Q 44.1875 33.984375 37.640625 27.21875 
Q 31.109375 20.453125 19.1875 8.296875 
z
" id="DejaVuSans-50"/>
      </defs>
      <g transform="translate(109.806319 322.182437)scale(0.1 -0.1)">
       <use xlink:href="#DejaVuSans-8722"/>
       <use x="83.789062" xlink:href="#DejaVuSans-50"/>
      </g>
     </g>
    </g>
    <g id="xtick_3">
     <g id="line2d_3">
      <g>
       <use style="stroke:#000000;stroke-width:0.8;" x="176.697413" xlink:href="#mac7c4eb872" y="307.584"/>
      </g>
     </g>
     <g id="text_3">
      <!-- −1 -->
      <defs>
       <path d="M 12.40625 8.296875 
L 28.515625 8.296875 
L 28.515625 63.921875 
L 10.984375 60.40625 
L 10.984375 69.390625 
L 28.421875 72.90625 
L 38.28125 72.90625 
L 38.28125 8.296875 
L 54.390625 8.296875 
L 54.390625 0 
L 12.40625 0 
z
" id="DejaVuSans-49"/>
      </defs>
      <g transform="translate(169.326319 322.182437)scale(0.1 -0.1)">
       <use xlink:href="#DejaVuSans-8722"/>
       <use x="83.789062" xlink:href="#DejaVuSans-49"/>
      </g>
     </g>
    </g>
    <g id="xtick_4">
     <g id="line2d_4">
      <g>
       <use style="stroke:#000000;stroke-width:0.8;" x="236.217413" xlink:href="#mac7c4eb872" y="307.584"/>
      </g>
     </g>
     <g id="text_4">
      <!-- 0 -->
      <defs>
       <path d="M 31.78125 66.40625 
Q 24.171875 66.40625 20.328125 58.90625 
Q 16.5 51.421875 16.5 36.375 
Q 16.5 21.390625 20.328125 13.890625 
Q 24.171875 6.390625 31.78125 6.390625 
Q 39.453125 6.390625 43.28125 13.890625 
Q 47.125 21.390625 47.125 36.375 
Q 47.125 51.421875 43.28125 58.90625 
Q 39.453125 66.40625 31.78125 66.40625 
z
M 31.78125 74.21875 
Q 44.046875 74.21875 50.515625 64.515625 
Q 56.984375 54.828125 56.984375 36.375 
Q 56.984375 17.96875 50.515625 8.265625 
Q 44.046875 -1.421875 31.78125 -1.421875 
Q 19.53125 -1.421875 13.0625 8.265625 
Q 6.59375 17.96875 6.59375 36.375 
Q 6.59375 54.828125 13.0625 64.515625 
Q 19.53125 74.21875 31.78125 74.21875 
z
" id="DejaVuSans-48"/>
      </defs>
      <g transform="translate(233.036163 322.182437)scale(0.1 -0.1)">
       <use xlink:href="#DejaVuSans-48"/>
      </g>
     </g>
    </g>
    <g id="xtick_5">
     <g id="line2d_5">
      <g>
       <use style="stroke:#000000;stroke-width:0.8;" x="295.737413" xlink:href="#mac7c4eb872" y="307.584"/>
      </g>
     </g>
     <g id="text_5">
      <!-- 1 -->
      <g transform="translate(292.556163 322.182437)scale(0.1 -0.1)">
       <use xlink:href="#DejaVuSans-49"/>
      </g>
     </g>
    </g>
    <g id="xtick_6">
     <g id="line2d_6">
      <g>
       <use style="stroke:#000000;stroke-width:0.8;" x="355.257413" xlink:href="#mac7c4eb872" y="307.584"/>
      </g>
     </g>
     <g id="text_6">
      <!-- 2 -->
      <g transform="translate(352.076163 322.182437)scale(0.1 -0.1)">
       <use xlink:href="#DejaVuSans-50"/>
      </g>
     </g>
    </g>
   </g>
   <g id="matplotlib.axis_2">
    <g id="ytick_1">
     <g id="line2d_7">
      <defs>
       <path d="M 0 0 
L -3.5 0 
" id="med4497d868" style="stroke:#000000;stroke-width:0.8;"/>
      </defs>
      <g>
       <use style="stroke:#000000;stroke-width:0.8;" x="57.6" xlink:href="#med4497d868" y="300.374456"/>
      </g>
     </g>
     <g id="text_7">
      <!-- −3 -->
      <g transform="translate(35.857813 304.173675)scale(0.1 -0.1)">
       <use xlink:href="#DejaVuSans-8722"/>
       <use x="83.789062" xlink:href="#DejaVuSans-51"/>
      </g>
     </g>
    </g>
    <g id="ytick_2">
     <g id="line2d_8">
      <g>
       <use style="stroke:#000000;stroke-width:0.8;" x="57.6" xlink:href="#med4497d868" y="256.022456"/>
      </g>
     </g>
     <g id="text_8">
      <!-- −2 -->
      <g transform="translate(35.857813 259.821675)scale(0.1 -0.1)">
       <use xlink:href="#DejaVuSans-8722"/>
       <use x="83.789062" xlink:href="#DejaVuSans-50"/>
      </g>
     </g>
    </g>
    <g id="ytick_3">
     <g id="line2d_9">
      <g>
       <use style="stroke:#000000;stroke-width:0.8;" x="57.6" xlink:href="#med4497d868" y="211.670456"/>
      </g>
     </g>
     <g id="text_9">
      <!-- −1 -->
      <g transform="translate(35.857813 215.469675)scale(0.1 -0.1)">
       <use xlink:href="#DejaVuSans-8722"/>
       <use x="83.789062" xlink:href="#DejaVuSans-49"/>
      </g>
     </g>
    </g>
    <g id="ytick_4">
     <g id="line2d_10">
      <g>
       <use style="stroke:#000000;stroke-width:0.8;" x="57.6" xlink:href="#med4497d868" y="167.318456"/>
      </g>
     </g>
     <g id="text_10">
      <!-- 0 -->
      <g transform="translate(44.2375 171.117675)scale(0.1 -0.1)">
       <use xlink:href="#DejaVuSans-48"/>
      </g>
     </g>
    </g>
    <g id="ytick_5">
     <g id="line2d_11">
      <g>
       <use style="stroke:#000000;stroke-width:0.8;" x="57.6" xlink:href="#med4497d868" y="122.966456"/>
      </g>
     </g>
     <g id="text_11">
      <!-- 1 -->
      <g transform="translate(44.2375 126.765675)scale(0.1 -0.1)">
       <use xlink:href="#DejaVuSans-49"/>
      </g>
     </g>
    </g>
    <g id="ytick_6">
     <g id="line2d_12">
      <g>
       <use style="stroke:#000000;stroke-width:0.8;" x="57.6" xlink:href="#med4497d868" y="78.614456"/>
      </g>
     </g>
     <g id="text_12">
      <!-- 2 -->
      <g transform="translate(44.2375 82.413675)scale(0.1 -0.1)">
       <use xlink:href="#DejaVuSans-50"/>
      </g>
     </g>
    </g>
   </g>
   <g id="LineCollection_1">
    <path clip-path="url(#p90da9d20c8)" d="M 236.16 229.968 
L 242.112 229.968 
L 248.064 229.968 
L 254.016 229.968 
L 256.992 227.7504 
L 259.968 225.5328 
L 262.944 223.3152 
L 265.92 221.0976 
L 268.896 218.88 
L 271.872 216.6624 
L 277.824 216.6624 
L 280.8 214.4448 
L 280.8 210.0096 
L 283.776 207.792 
L 289.728 207.792 
L 292.704 205.5744 
L 292.704 201.1392 
L 295.68 198.9216 
L 298.656 196.704 
L 301.632 194.4864 
L 307.584 194.4864 
L 310.56 192.2688 
L 313.536 190.0512 
L 316.512 187.8336 
L 316.512 183.3984 
L 316.512 178.9632 
L 316.512 174.528 
L 316.512 170.0928 
L 316.512 165.6576 
L 316.512 161.2224 
L 316.512 156.7872 
L 313.536 154.5696 
L 310.56 152.352 
L 310.56 147.9168 
L 307.584 145.6992 
L 304.608 143.4816 
L 301.632 141.264 
L 298.656 139.0464 
L 295.68 136.8288 
L 292.704 134.6112 
L 289.728 132.3936 
L 283.776 132.3936 
L 280.8 130.176 
L 280.8 125.7408 
L 277.824 123.5232 
L 274.848 121.3056 
L 271.872 119.088 
L 268.896 116.8704 
L 265.92 114.6528 
L 262.944 112.4352 
L 259.968 110.2176 
L 256.992 112.4352 
L 254.016 114.6528 
L 248.064 114.6528 
L 242.112 114.6528 
L 239.136 112.4352 
L 236.16 110.2176 
L 230.208 110.2176 
L 224.256 110.2176 
L 218.304 110.2176 
L 212.352 110.2176 
L 209.376 108 
L 206.4 105.7824 
L 200.448 105.7824 
L 197.472 108 
L 194.496 110.2176 
L 191.52 108 
L 188.544 105.7824 
L 185.568 108 
L 182.592 110.2176 
L 179.616 112.4352 
L 179.616 116.8704 
L 179.616 121.3056 
L 176.64 123.5232 
L 173.664 125.7408 
L 170.688 127.9584 
L 167.712 130.176 
L 167.712 134.6112 
L 164.736 136.8288 
L 161.76 139.0464 
L 158.784 141.264 
L 155.808 143.4816 
L 155.808 147.9168 
L 155.808 152.352 
L 155.808 156.7872 
L 155.808 161.2224 
L 155.808 165.6576 
L 152.832 167.8752 
L 146.88 167.8752 
L 143.904 170.0928 
L 143.904 174.528 
L 146.88 176.7456 
L 149.856 178.9632 
L 149.856 183.3984 
L 149.856 187.8336 
L 149.856 192.2688 
L 152.832 194.4864 
L 158.784 194.4864 
L 161.76 196.704 
L 164.736 198.9216 
L 170.688 198.9216 
L 173.664 201.1392 
L 176.64 203.3568 
L 179.616 205.5744 
L 182.592 207.792 
L 185.568 210.0096 
L 188.544 212.2272 
L 194.496 212.2272 
L 197.472 214.4448 
L 200.448 216.6624 
L 206.4 216.6624 
L 212.352 216.6624 
L 215.328 218.88 
L 215.328 223.3152 
L 218.304 225.5328 
L 224.256 225.5328 
L 230.208 225.5328 
L 233.184 227.7504 
L 236.16 229.968 
" style="fill:none;stroke:#ffffff;"/>
   </g>
   <g id="patch_3">
    <path d="M 57.6 307.584 
L 57.6 41.472 
" style="fill:none;stroke:#000000;stroke-linecap:square;stroke-linejoin:miter;stroke-width:0.8;"/>
   </g>
   <g id="patch_4">
    <path d="M 414.72 307.584 
L 414.72 41.472 
" style="fill:none;stroke:#000000;stroke-linecap:square;stroke-linejoin:miter;stroke-width:0.8;"/>
   </g>
   <g id="patch_5">
    <path d="M 57.6 307.584 
L 414.72 307.584 
" style="fill:none;stroke:#000000;stroke-linecap:square;stroke-linejoin:miter;stroke-width:0.8;"/>
   </g>
   <g id="patch_6">
    <path d="M 57.6 41.472 
L 414.72 41.472 
" style="fill:none;stroke:#000000;stroke-linecap:square;stroke-linejoin:miter;stroke-width:0.8;"/>
   </g>
   <g id="text_13">
    <!-- Training Set -->
    <defs>
     <path d="M -0.296875 72.90625 
L 61.375 72.90625 
L 61.375 64.59375 
L 35.5 64.59375 
L 35.5 0 
L 25.59375 0 
L 25.59375 64.59375 
L -0.296875 64.59375 
z
" id="DejaVuSans-84"/>
     <path d="M 41.109375 46.296875 
Q 39.59375 47.171875 37.8125 47.578125 
Q 36.03125 48 33.890625 48 
Q 26.265625 48 22.1875 43.046875 
Q 18.109375 38.09375 18.109375 28.8125 
L 18.109375 0 
L 9.078125 0 
L 9.078125 54.6875 
L 18.109375 54.6875 
L 18.109375 46.1875 
Q 20.953125 51.171875 25.484375 53.578125 
Q 30.03125 56 36.53125 56 
Q 37.453125 56 38.578125 55.875 
Q 39.703125 55.765625 41.0625 55.515625 
z
" id="DejaVuSans-114"/>
     <path d="M 34.28125 27.484375 
Q 23.390625 27.484375 19.1875 25 
Q 14.984375 22.515625 14.984375 16.5 
Q 14.984375 11.71875 18.140625 8.90625 
Q 21.296875 6.109375 26.703125 6.109375 
Q 34.1875 6.109375 38.703125 11.40625 
Q 43.21875 16.703125 43.21875 25.484375 
L 43.21875 27.484375 
z
M 52.203125 31.203125 
L 52.203125 0 
L 43.21875 0 
L 43.21875 8.296875 
Q 40.140625 3.328125 35.546875 0.953125 
Q 30.953125 -1.421875 24.3125 -1.421875 
Q 15.921875 -1.421875 10.953125 3.296875 
Q 6 8.015625 6 15.921875 
Q 6 25.140625 12.171875 29.828125 
Q 18.359375 34.515625 30.609375 34.515625 
L 43.21875 34.515625 
L 43.21875 35.40625 
Q 43.21875 41.609375 39.140625 45 
Q 35.0625 48.390625 27.6875 48.390625 
Q 23 48.390625 18.546875 47.265625 
Q 14.109375 46.140625 10.015625 43.890625 
L 10.015625 52.203125 
Q 14.9375 54.109375 19.578125 55.046875 
Q 24.21875 56 28.609375 56 
Q 40.484375 56 46.34375 49.84375 
Q 52.203125 43.703125 52.203125 31.203125 
z
" id="DejaVuSans-97"/>
     <path d="M 9.421875 54.6875 
L 18.40625 54.6875 
L 18.40625 0 
L 9.421875 0 
z
M 9.421875 75.984375 
L 18.40625 75.984375 
L 18.40625 64.59375 
L 9.421875 64.59375 
z
" id="DejaVuSans-105"/>
     <path d="M 54.890625 33.015625 
L 54.890625 0 
L 45.90625 0 
L 45.90625 32.71875 
Q 45.90625 40.484375 42.875 44.328125 
Q 39.84375 48.1875 33.796875 48.1875 
Q 26.515625 48.1875 22.3125 43.546875 
Q 18.109375 38.921875 18.109375 30.90625 
L 18.109375 0 
L 9.078125 0 
L 9.078125 54.6875 
L 18.109375 54.6875 
L 18.109375 46.1875 
Q 21.34375 51.125 25.703125 53.5625 
Q 30.078125 56 35.796875 56 
Q 45.21875 56 50.046875 50.171875 
Q 54.890625 44.34375 54.890625 33.015625 
z
" id="DejaVuSans-110"/>
     <path d="M 45.40625 27.984375 
Q 45.40625 37.75 41.375 43.109375 
Q 37.359375 48.484375 30.078125 48.484375 
Q 22.859375 48.484375 18.828125 43.109375 
Q 14.796875 37.75 14.796875 27.984375 
Q 14.796875 18.265625 18.828125 12.890625 
Q 22.859375 7.515625 30.078125 7.515625 
Q 37.359375 7.515625 41.375 12.890625 
Q 45.40625 18.265625 45.40625 27.984375 
z
M 54.390625 6.78125 
Q 54.390625 -7.171875 48.1875 -13.984375 
Q 42 -20.796875 29.203125 -20.796875 
Q 24.46875 -20.796875 20.265625 -20.09375 
Q 16.0625 -19.390625 12.109375 -17.921875 
L 12.109375 -9.1875 
Q 16.0625 -11.328125 19.921875 -12.34375 
Q 23.78125 -13.375 27.78125 -13.375 
Q 36.625 -13.375 41.015625 -8.765625 
Q 45.40625 -4.15625 45.40625 5.171875 
L 45.40625 9.625 
Q 42.625 4.78125 38.28125 2.390625 
Q 33.9375 0 27.875 0 
Q 17.828125 0 11.671875 7.65625 
Q 5.515625 15.328125 5.515625 27.984375 
Q 5.515625 40.671875 11.671875 48.328125 
Q 17.828125 56 27.875 56 
Q 33.9375 56 38.28125 53.609375 
Q 42.625 51.21875 45.40625 46.390625 
L 45.40625 54.6875 
L 54.390625 54.6875 
z
" id="DejaVuSans-103"/>
     <path id="DejaVuSans-32"/>
     <path d="M 53.515625 70.515625 
L 53.515625 60.890625 
Q 47.90625 63.578125 42.921875 64.890625 
Q 37.9375 66.21875 33.296875 66.21875 
Q 25.25 66.21875 20.875 63.09375 
Q 16.5 59.96875 16.5 54.203125 
Q 16.5 49.359375 19.40625 46.890625 
Q 22.3125 44.4375 30.421875 42.921875 
L 36.375 41.703125 
Q 47.40625 39.59375 52.65625 34.296875 
Q 57.90625 29 57.90625 20.125 
Q 57.90625 9.515625 50.796875 4.046875 
Q 43.703125 -1.421875 29.984375 -1.421875 
Q 24.8125 -1.421875 18.96875 -0.25 
Q 13.140625 0.921875 6.890625 3.21875 
L 6.890625 13.375 
Q 12.890625 10.015625 18.65625 8.296875 
Q 24.421875 6.59375 29.984375 6.59375 
Q 38.421875 6.59375 43.015625 9.90625 
Q 47.609375 13.234375 47.609375 19.390625 
Q 47.609375 24.75 44.3125 27.78125 
Q 41.015625 30.8125 33.5 32.328125 
L 27.484375 33.5 
Q 16.453125 35.6875 11.515625 40.375 
Q 6.59375 45.0625 6.59375 53.421875 
Q 6.59375 63.09375 13.40625 68.65625 
Q 20.21875 74.21875 32.171875 74.21875 
Q 37.3125 74.21875 42.625 73.28125 
Q 47.953125 72.359375 53.515625 70.515625 
z
" id="DejaVuSans-83"/>
     <path d="M 56.203125 29.59375 
L 56.203125 25.203125 
L 14.890625 25.203125 
Q 15.484375 15.921875 20.484375 11.0625 
Q 25.484375 6.203125 34.421875 6.203125 
Q 39.59375 6.203125 44.453125 7.46875 
Q 49.3125 8.734375 54.109375 11.28125 
L 54.109375 2.78125 
Q 49.265625 0.734375 44.1875 -0.34375 
Q 39.109375 -1.421875 33.890625 -1.421875 
Q 20.796875 -1.421875 13.15625 6.1875 
Q 5.515625 13.8125 5.515625 26.8125 
Q 5.515625 40.234375 12.765625 48.109375 
Q 20.015625 56 32.328125 56 
Q 43.359375 56 49.78125 48.890625 
Q 56.203125 41.796875 56.203125 29.59375 
z
M 47.21875 32.234375 
Q 47.125 39.59375 43.09375 43.984375 
Q 39.0625 48.390625 32.421875 48.390625 
Q 24.90625 48.390625 20.390625 44.140625 
Q 15.875 39.890625 15.1875 32.171875 
z
" id="DejaVuSans-101"/>
     <path d="M 18.3125 70.21875 
L 18.3125 54.6875 
L 36.8125 54.6875 
L 36.8125 47.703125 
L 18.3125 47.703125 
L 18.3125 18.015625 
Q 18.3125 11.328125 20.140625 9.421875 
Q 21.96875 7.515625 27.59375 7.515625 
L 36.8125 7.515625 
L 36.8125 0 
L 27.59375 0 
Q 17.1875 0 13.234375 3.875 
Q 9.28125 7.765625 9.28125 18.015625 
L 9.28125 47.703125 
L 2.6875 47.703125 
L 2.6875 54.6875 
L 9.28125 54.6875 
L 9.28125 70.21875 
z
" id="DejaVuSans-116"/>
    </defs>
    <g transform="translate(199.857188 35.472)scale(0.12 -0.12)">
     <use xlink:href="#DejaVuSans-84"/>
     <use x="60.865234" xlink:href="#DejaVuSans-114"/>
     <use x="101.978516" xlink:href="#DejaVuSans-97"/>
     <use x="163.257812" xlink:href="#DejaVuSans-105"/>
     <use x="191.041016" xlink:href="#DejaVuSans-110"/>
     <use x="254.419922" xlink:href="#DejaVuSans-105"/>
     <use x="282.203125" xlink:href="#DejaVuSans-110"/>
     <use x="345.582031" xlink:href="#DejaVuSans-103"/>
     <use x="409.058594" xlink:href="#DejaVuSans-32"/>
     <use x="440.845703" xlink:href="#DejaVuSans-83"/>
     <use x="504.322266" xlink:href="#DejaVuSans-101"/>
     <use x="565.845703" xlink:href="#DejaVuSans-116"/>
    </g>
   </g>
   <g id="legend_1">
    <g id="patch_7">
     <path d="M 369.3575 78.82825 
L 407.72 78.82825 
Q 409.72 78.82825 409.72 76.82825 
L 409.72 48.472 
Q 409.72 46.472 407.72 46.472 
L 369.3575 46.472 
Q 367.3575 46.472 367.3575 48.472 
L 367.3575 76.82825 
Q 367.3575 78.82825 369.3575 78.82825 
z
" style="fill:#ffffff;opacity:0.8;stroke:#cccccc;stroke-linejoin:miter;"/>
    </g>
    <g id="PathCollection_10">
     <g>
      <use style="fill:#ff0000;fill-opacity:0.8;stroke:#1a1a1a;stroke-opacity:0.8;" x="381.3575" xlink:href="#m77b98a0fcc" y="55.445437"/>
     </g>
    </g>
    <g id="text_14">
     <!-- 0 -->
     <g transform="translate(399.3575 58.070437)scale(0.1 -0.1)">
      <use xlink:href="#DejaVuSans-48"/>
     </g>
    </g>
    <g id="PathCollection_11">
     <g>
      <use style="fill:#0000ff;fill-opacity:0.8;stroke:#1a1a1a;stroke-opacity:0.8;" x="381.3575" xlink:href="#m7f1050ee92" y="70.123562"/>
     </g>
    </g>
    <g id="text_15">
     <!-- 1 -->
     <g transform="translate(399.3575 72.748562)scale(0.1 -0.1)">
      <use xlink:href="#DejaVuSans-49"/>
     </g>
    </g>
   </g>
  </g>
 </g>
 <defs>
  <clipPath id="p90da9d20c8">
   <rect height="266.112" width="357.12" x="57.6" y="41.472"/>
  </clipPath>
 </defs>
</svg>
