<?xml version="1.0" encoding="utf-8" standalone="no"?>
<!DOCTYPE svg PUBLIC "-//W3C//DTD SVG 1.1//EN"
  "http://www.w3.org/Graphics/SVG/1.1/DTD/svg11.dtd">
<!-- Created with matplotlib (https://matplotlib.org/) -->
<svg height="345.6pt" version="1.1" viewBox="0 0 460.8 345.6" width="460.8pt" xmlns="http://www.w3.org/2000/svg" xmlns:xlink="http://www.w3.org/1999/xlink">
 <defs>
  <style type="text/css">
*{stroke-linecap:butt;stroke-linejoin:round;white-space:pre;}
  </style>
 </defs>
 <g id="figure_1">
  <g id="patch_1">
   <path d="M 0 345.6 
L 460.8 345.6 
L 460.8 0 
L 0 0 
z
" style="fill:#ffffff;"/>
  </g>
  <g id="axes_1">
   <g id="patch_2">
    <path d="M 57.6 307.584 
L 414.72 307.584 
L 414.72 41.472 
L 57.6 41.472 
z
" style="fill:#ffffff;"/>
   </g>
   <g id="PathCollection_1">
    <path clip-path="url(#p92f8dbcbec)" d="M 63.757241 307.584 
L 69.914483 307.584 
L 76.071724 307.584 
L 82.228966 307.584 
L 88.386207 307.584 
L 89.309793 307.584 
L 94.543448 303.81408 
L 95.467034 303.1488 
L 100.70069 299.37888 
L 101.624276 298.7136 
L 101.624276 294.2784 
L 106.857931 290.50848 
L 107.781517 289.8432 
L 113.015172 286.07328 
L 113.938759 285.408 
L 119.172414 281.63808 
L 120.096 280.9728 
L 120.096 276.5376 
L 125.329655 272.76768 
L 126.253241 272.1024 
L 131.486897 268.33248 
L 132.410483 267.6672 
L 137.644138 263.89728 
L 138.567724 263.232 
L 138.567724 258.7968 
L 138.567724 254.3616 
L 143.801379 250.59168 
L 144.724966 249.9264 
L 144.724966 245.4912 
L 149.958621 241.72128 
L 150.882207 241.056 
L 156.115862 237.28608 
L 157.039448 236.6208 
L 162.273103 232.85088 
L 163.19669 232.1856 
L 168.430345 228.41568 
L 169.353931 227.7504 
L 169.353931 223.3152 
L 169.353931 218.88 
L 169.353931 214.4448 
L 169.353931 210.0096 
L 169.353931 205.5744 
L 169.353931 201.1392 
L 169.353931 196.704 
L 168.430345 196.03872 
L 163.19669 192.2688 
L 163.19669 187.8336 
L 168.430345 184.06368 
L 169.353931 183.3984 
L 174.587586 179.62848 
L 175.511172 178.9632 
L 174.587586 178.29792 
L 169.353931 174.528 
L 169.353931 170.0928 
L 174.587586 166.32288 
L 175.511172 165.6576 
L 174.587586 164.99232 
L 169.353931 161.2224 
L 174.587586 157.45248 
L 175.511172 156.7872 
L 175.511172 152.352 
L 180.744828 148.58208 
L 181.668414 147.9168 
L 181.668414 143.4816 
L 186.902069 139.71168 
L 187.825655 139.0464 
L 187.825655 134.6112 
L 193.05931 130.84128 
L 199.216552 130.84128 
L 204.450207 134.6112 
L 205.373793 135.27648 
L 211.531034 135.27648 
L 216.76469 139.0464 
L 217.688276 139.71168 
L 222.921931 143.4816 
L 222.921931 147.9168 
L 223.845517 148.58208 
L 229.079172 152.352 
L 229.079172 156.7872 
L 229.079172 161.2224 
L 229.079172 165.6576 
L 229.079172 170.0928 
L 229.079172 174.528 
L 230.002759 175.19328 
L 235.236414 178.9632 
L 236.16 179.62848 
L 241.393655 183.3984 
L 242.317241 184.06368 
L 247.550897 187.8336 
L 248.474483 188.49888 
L 253.708138 192.2688 
L 254.631724 192.93408 
L 260.788966 192.93408 
L 266.022621 196.704 
L 266.022621 201.1392 
L 266.946207 201.80448 
L 267.869793 201.1392 
L 273.103448 197.36928 
L 279.26069 197.36928 
L 280.184276 196.704 
L 285.417931 192.93408 
L 291.575172 192.93408 
L 292.498759 192.2688 
L 297.732414 188.49888 
L 298.656 187.8336 
L 303.889655 184.06368 
L 304.813241 183.3984 
L 303.889655 182.73312 
L 298.656 178.9632 
L 298.656 174.528 
L 298.656 170.0928 
L 298.656 165.6576 
L 298.656 161.2224 
L 297.732414 160.55712 
L 292.498759 156.7872 
L 297.732414 153.01728 
L 298.656 152.352 
L 298.656 147.9168 
L 303.889655 144.14688 
L 304.813241 143.4816 
L 304.813241 139.0464 
L 304.813241 134.6112 
L 310.046897 130.84128 
L 310.970483 130.176 
L 310.970483 125.7408 
L 310.970483 121.3056 
L 310.970483 116.8704 
L 316.204138 113.10048 
L 317.127724 112.4352 
L 322.361379 108.66528 
L 323.284966 108 
L 323.284966 103.5648 
L 328.518621 99.79488 
L 329.442207 99.1296 
L 334.675862 95.35968 
L 335.599448 94.6944 
L 335.599448 90.2592 
L 340.833103 86.48928 
L 341.75669 85.824 
L 346.990345 82.05408 
L 347.913931 81.3888 
L 347.913931 76.9536 
L 353.147586 73.18368 
L 354.071172 72.5184 
L 359.304828 68.74848 
L 360.228414 68.0832 
L 360.228414 63.648 
L 365.462069 59.87808 
L 366.385655 59.2128 
L 371.61931 55.44288 
L 372.542897 54.7776 
L 372.542897 50.3424 
L 377.776552 46.57248 
L 378.700138 45.9072 
L 383.933793 42.13728 
L 384.857379 41.472 
L 383.933793 41.472 
L 377.776552 41.472 
L 371.61931 41.472 
L 365.462069 41.472 
L 359.304828 41.472 
L 353.147586 41.472 
L 346.990345 41.472 
L 340.833103 41.472 
L 334.675862 41.472 
L 328.518621 41.472 
L 322.361379 41.472 
L 316.204138 41.472 
L 310.046897 41.472 
L 303.889655 41.472 
L 297.732414 41.472 
L 291.575172 41.472 
L 285.417931 41.472 
L 279.26069 41.472 
L 273.103448 41.472 
L 266.946207 41.472 
L 260.788966 41.472 
L 254.631724 41.472 
L 248.474483 41.472 
L 242.317241 41.472 
L 236.16 41.472 
L 230.002759 41.472 
L 223.845517 41.472 
L 217.688276 41.472 
L 211.531034 41.472 
L 205.373793 41.472 
L 199.216552 41.472 
L 193.05931 41.472 
L 186.902069 41.472 
L 180.744828 41.472 
L 174.587586 41.472 
L 168.430345 41.472 
L 162.273103 41.472 
L 156.115862 41.472 
L 149.958621 41.472 
L 143.801379 41.472 
L 137.644138 41.472 
L 131.486897 41.472 
L 125.329655 41.472 
L 119.172414 41.472 
L 113.015172 41.472 
L 106.857931 41.472 
L 100.70069 41.472 
L 94.543448 41.472 
L 88.386207 41.472 
L 82.228966 41.472 
L 76.071724 41.472 
L 69.914483 41.472 
L 63.757241 41.472 
L 57.6 41.472 
L 57.6 45.9072 
L 57.6 50.3424 
L 57.6 54.7776 
L 57.6 59.2128 
L 57.6 63.648 
L 57.6 68.0832 
L 57.6 72.5184 
L 57.6 76.9536 
L 57.6 81.3888 
L 57.6 85.824 
L 57.6 90.2592 
L 57.6 94.6944 
L 57.6 99.1296 
L 57.6 103.5648 
L 57.6 108 
L 57.6 112.4352 
L 57.6 116.8704 
L 57.6 121.3056 
L 57.6 125.7408 
L 57.6 130.176 
L 57.6 134.6112 
L 57.6 139.0464 
L 57.6 143.4816 
L 57.6 147.9168 
L 57.6 152.352 
L 57.6 156.7872 
L 57.6 161.2224 
L 57.6 165.6576 
L 57.6 170.0928 
L 57.6 174.528 
L 57.6 178.9632 
L 57.6 183.3984 
L 57.6 187.8336 
L 57.6 192.2688 
L 57.6 196.704 
L 57.6 201.1392 
L 57.6 205.5744 
L 57.6 210.0096 
L 57.6 214.4448 
L 57.6 218.88 
L 57.6 223.3152 
L 57.6 227.7504 
L 57.6 232.1856 
L 57.6 236.6208 
L 57.6 241.056 
L 57.6 245.4912 
L 57.6 249.9264 
L 57.6 254.3616 
L 57.6 258.7968 
L 57.6 263.232 
L 57.6 267.6672 
L 57.6 272.1024 
L 57.6 276.5376 
L 57.6 280.9728 
L 57.6 285.408 
L 57.6 289.8432 
L 57.6 294.2784 
L 57.6 298.7136 
L 57.6 303.1488 
L 57.6 307.584 
z
" style="fill:#fab2b8;fill-opacity:0.5;"/>
   </g>
   <g id="PathCollection_2">
    <path clip-path="url(#p92f8dbcbec)" d="M 94.543448 304.47936 
L 96.390621 303.1488 
L 100.70069 300.04416 
L 102.547862 298.7136 
L 102.547862 294.2784 
L 106.857931 291.17376 
L 108.705103 289.8432 
L 113.015172 286.73856 
L 114.862345 285.408 
L 119.172414 282.30336 
L 121.019586 280.9728 
L 121.019586 276.5376 
L 125.329655 273.43296 
L 127.176828 272.1024 
L 131.486897 268.99776 
L 133.334069 267.6672 
L 137.644138 264.56256 
L 139.49131 263.232 
L 139.49131 258.7968 
L 139.49131 254.3616 
L 143.801379 251.25696 
L 145.648552 249.9264 
L 145.648552 245.4912 
L 149.958621 242.38656 
L 151.805793 241.056 
L 156.115862 237.95136 
L 157.963034 236.6208 
L 162.273103 233.51616 
L 164.120276 232.1856 
L 168.430345 229.08096 
L 170.277517 227.7504 
L 170.277517 223.3152 
L 170.277517 218.88 
L 170.277517 214.4448 
L 170.277517 210.0096 
L 170.277517 205.5744 
L 170.277517 201.1392 
L 170.277517 196.704 
L 168.430345 195.37344 
L 164.120276 192.2688 
L 164.120276 187.8336 
L 168.430345 184.72896 
L 170.277517 183.3984 
L 174.587586 180.29376 
L 176.434759 178.9632 
L 174.587586 177.63264 
L 170.277517 174.528 
L 170.277517 170.0928 
L 174.587586 166.98816 
L 176.434759 165.6576 
L 174.587586 164.32704 
L 170.277517 161.2224 
L 174.587586 158.11776 
L 176.434759 156.7872 
L 176.434759 152.352 
L 180.744828 149.24736 
L 182.592 147.9168 
L 182.592 143.4816 
L 186.902069 140.37696 
L 188.749241 139.0464 
L 188.749241 134.6112 
L 193.05931 131.50656 
L 199.216552 131.50656 
L 203.526621 134.6112 
L 205.373793 135.94176 
L 211.531034 135.94176 
L 215.841103 139.0464 
L 217.688276 140.37696 
L 221.998345 143.4816 
L 221.998345 147.9168 
L 223.845517 149.24736 
L 228.155586 152.352 
L 228.155586 156.7872 
L 228.155586 161.2224 
L 228.155586 165.6576 
L 228.155586 170.0928 
L 228.155586 174.528 
L 230.002759 175.85856 
L 234.312828 178.9632 
L 236.16 180.29376 
L 240.470069 183.3984 
L 242.317241 184.72896 
L 246.62731 187.8336 
L 248.474483 189.16416 
L 252.784552 192.2688 
L 254.631724 193.59936 
L 260.788966 193.59936 
L 265.099034 196.704 
L 265.099034 201.1392 
L 266.946207 202.46976 
L 268.793379 201.1392 
L 273.103448 198.03456 
L 279.26069 198.03456 
L 281.107862 196.704 
L 285.417931 193.59936 
L 291.575172 193.59936 
L 293.422345 192.2688 
L 297.732414 189.16416 
L 299.579586 187.8336 
L 303.889655 184.72896 
L 305.736828 183.3984 
L 303.889655 182.06784 
L 299.579586 178.9632 
L 299.579586 174.528 
L 299.579586 170.0928 
L 299.579586 165.6576 
L 299.579586 161.2224 
L 297.732414 159.89184 
L 293.422345 156.7872 
L 297.732414 153.68256 
L 299.579586 152.352 
L 299.579586 147.9168 
L 303.889655 144.81216 
L 305.736828 143.4816 
L 305.736828 139.0464 
L 305.736828 134.6112 
L 310.046897 131.50656 
L 311.894069 130.176 
L 311.894069 125.7408 
L 311.894069 121.3056 
L 311.894069 116.8704 
L 316.204138 113.76576 
L 318.05131 112.4352 
L 322.361379 109.33056 
L 324.208552 108 
L 324.208552 103.5648 
L 328.518621 100.46016 
L 330.365793 99.1296 
L 334.675862 96.02496 
L 336.523034 94.6944 
L 336.523034 90.2592 
L 340.833103 87.15456 
L 342.680276 85.824 
L 346.990345 82.71936 
L 348.837517 81.3888 
L 348.837517 76.9536 
L 353.147586 73.84896 
L 354.994759 72.5184 
L 359.304828 69.41376 
L 361.152 68.0832 
L 361.152 63.648 
L 365.462069 60.54336 
L 367.309241 59.2128 
L 371.61931 56.10816 
L 373.466483 54.7776 
L 373.466483 50.3424 
L 377.776552 47.23776 
L 379.623724 45.9072 
L 383.933793 42.80256 
L 385.780966 41.472 
L 384.857379 41.472 
L 383.933793 42.13728 
L 378.700138 45.9072 
L 377.776552 46.57248 
L 372.542897 50.3424 
L 372.542897 54.7776 
L 371.61931 55.44288 
L 366.385655 59.2128 
L 365.462069 59.87808 
L 360.228414 63.648 
L 360.228414 68.0832 
L 359.304828 68.74848 
L 354.071172 72.5184 
L 353.147586 73.18368 
L 347.913931 76.9536 
L 347.913931 81.3888 
L 346.990345 82.05408 
L 341.75669 85.824 
L 340.833103 86.48928 
L 335.599448 90.2592 
L 335.599448 94.6944 
L 334.675862 95.35968 
L 329.442207 99.1296 
L 328.518621 99.79488 
L 323.284966 103.5648 
L 323.284966 108 
L 322.361379 108.66528 
L 317.127724 112.4352 
L 316.204138 113.10048 
L 310.970483 116.8704 
L 310.970483 121.3056 
L 310.970483 125.7408 
L 310.970483 130.176 
L 310.046897 130.84128 
L 304.813241 134.6112 
L 304.813241 139.0464 
L 304.813241 143.4816 
L 303.889655 144.14688 
L 298.656 147.9168 
L 298.656 152.352 
L 297.732414 153.01728 
L 292.498759 156.7872 
L 297.732414 160.55712 
L 298.656 161.2224 
L 298.656 165.6576 
L 298.656 170.0928 
L 298.656 174.528 
L 298.656 178.9632 
L 303.889655 182.73312 
L 304.813241 183.3984 
L 303.889655 184.06368 
L 298.656 187.8336 
L 297.732414 188.49888 
L 292.498759 192.2688 
L 291.575172 192.93408 
L 285.417931 192.93408 
L 280.184276 196.704 
L 279.26069 197.36928 
L 273.103448 197.36928 
L 267.869793 201.1392 
L 266.946207 201.80448 
L 266.022621 201.1392 
L 266.022621 196.704 
L 260.788966 192.93408 
L 254.631724 192.93408 
L 253.708138 192.2688 
L 248.474483 188.49888 
L 247.550897 187.8336 
L 242.317241 184.06368 
L 241.393655 183.3984 
L 236.16 179.62848 
L 235.236414 178.9632 
L 230.002759 175.19328 
L 229.079172 174.528 
L 229.079172 170.0928 
L 229.079172 165.6576 
L 229.079172 161.2224 
L 229.079172 156.7872 
L 229.079172 152.352 
L 223.845517 148.58208 
L 222.921931 147.9168 
L 222.921931 143.4816 
L 217.688276 139.71168 
L 216.76469 139.0464 
L 211.531034 135.27648 
L 205.373793 135.27648 
L 204.450207 134.6112 
L 199.216552 130.84128 
L 193.05931 130.84128 
L 187.825655 134.6112 
L 187.825655 139.0464 
L 186.902069 139.71168 
L 181.668414 143.4816 
L 181.668414 147.9168 
L 180.744828 148.58208 
L 175.511172 152.352 
L 175.511172 156.7872 
L 174.587586 157.45248 
L 169.353931 161.2224 
L 174.587586 164.99232 
L 175.511172 165.6576 
L 174.587586 166.32288 
L 169.353931 170.0928 
L 169.353931 174.528 
L 174.587586 178.29792 
L 175.511172 178.9632 
L 174.587586 179.62848 
L 169.353931 183.3984 
L 168.430345 184.06368 
L 163.19669 187.8336 
L 163.19669 192.2688 
L 168.430345 196.03872 
L 169.353931 196.704 
L 169.353931 201.1392 
L 169.353931 205.5744 
L 169.353931 210.0096 
L 169.353931 214.4448 
L 169.353931 218.88 
L 169.353931 223.3152 
L 169.353931 227.7504 
L 168.430345 228.41568 
L 163.19669 232.1856 
L 162.273103 232.85088 
L 157.039448 236.6208 
L 156.115862 237.28608 
L 150.882207 241.056 
L 149.958621 241.72128 
L 144.724966 245.4912 
L 144.724966 249.9264 
L 143.801379 250.59168 
L 138.567724 254.3616 
L 138.567724 258.7968 
L 138.567724 263.232 
L 137.644138 263.89728 
L 132.410483 267.6672 
L 131.486897 268.33248 
L 126.253241 272.1024 
L 125.329655 272.76768 
L 120.096 276.5376 
L 120.096 280.9728 
L 119.172414 281.63808 
L 113.938759 285.408 
L 113.015172 286.07328 
L 107.781517 289.8432 
L 106.857931 290.50848 
L 101.624276 294.2784 
L 101.624276 298.7136 
L 100.70069 299.37888 
L 95.467034 303.1488 
L 94.543448 303.81408 
L 89.309793 307.584 
L 90.233379 307.584 
z
" style="fill:#efb2c3;fill-opacity:0.5;"/>
   </g>
   <g id="PathCollection_3">
    <path clip-path="url(#p92f8dbcbec)" d="M 94.543448 305.14464 
L 97.314207 303.1488 
L 100.70069 300.70944 
L 103.471448 298.7136 
L 103.471448 294.2784 
L 106.857931 291.83904 
L 109.62869 289.8432 
L 113.015172 287.40384 
L 115.785931 285.408 
L 119.172414 282.96864 
L 121.943172 280.9728 
L 121.943172 276.5376 
L 125.329655 274.09824 
L 128.100414 272.1024 
L 131.486897 269.66304 
L 134.257655 267.6672 
L 137.644138 265.22784 
L 140.414897 263.232 
L 140.414897 258.7968 
L 140.414897 254.3616 
L 143.801379 251.92224 
L 146.572138 249.9264 
L 146.572138 245.4912 
L 149.958621 243.05184 
L 152.729379 241.056 
L 156.115862 238.61664 
L 158.886621 236.6208 
L 162.273103 234.18144 
L 165.043862 232.1856 
L 168.430345 229.74624 
L 171.201103 227.7504 
L 171.201103 223.3152 
L 171.201103 218.88 
L 171.201103 214.4448 
L 171.201103 210.0096 
L 171.201103 205.5744 
L 171.201103 201.1392 
L 171.201103 196.704 
L 168.430345 194.70816 
L 165.043862 192.2688 
L 165.043862 187.8336 
L 168.430345 185.39424 
L 171.201103 183.3984 
L 174.587586 180.95904 
L 177.358345 178.9632 
L 174.587586 176.96736 
L 171.201103 174.528 
L 171.201103 170.0928 
L 174.587586 167.65344 
L 177.358345 165.6576 
L 174.587586 163.66176 
L 171.201103 161.2224 
L 174.587586 158.78304 
L 177.358345 156.7872 
L 177.358345 152.352 
L 180.744828 149.91264 
L 183.515586 147.9168 
L 183.515586 143.4816 
L 186.902069 141.04224 
L 189.672828 139.0464 
L 189.672828 134.6112 
L 193.05931 132.17184 
L 199.216552 132.17184 
L 202.603034 134.6112 
L 205.373793 136.60704 
L 211.531034 136.60704 
L 214.917517 139.0464 
L 217.688276 141.04224 
L 221.074759 143.4816 
L 221.074759 147.9168 
L 223.845517 149.91264 
L 227.232 152.352 
L 227.232 156.7872 
L 227.232 161.2224 
L 227.232 165.6576 
L 227.232 170.0928 
L 227.232 174.528 
L 230.002759 176.52384 
L 233.389241 178.9632 
L 236.16 180.95904 
L 239.546483 183.3984 
L 242.317241 185.39424 
L 245.703724 187.8336 
L 248.474483 189.82944 
L 251.860966 192.2688 
L 254.631724 194.26464 
L 260.788966 194.26464 
L 264.175448 196.704 
L 264.175448 201.1392 
L 266.946207 203.13504 
L 269.716966 201.1392 
L 273.103448 198.69984 
L 279.26069 198.69984 
L 282.031448 196.704 
L 285.417931 194.26464 
L 291.575172 194.26464 
L 294.345931 192.2688 
L 297.732414 189.82944 
L 300.503172 187.8336 
L 303.889655 185.39424 
L 306.660414 183.3984 
L 303.889655 181.40256 
L 300.503172 178.9632 
L 300.503172 174.528 
L 300.503172 170.0928 
L 300.503172 165.6576 
L 300.503172 161.2224 
L 297.732414 159.22656 
L 294.345931 156.7872 
L 297.732414 154.34784 
L 300.503172 152.352 
L 300.503172 147.9168 
L 303.889655 145.47744 
L 306.660414 143.4816 
L 306.660414 139.0464 
L 306.660414 134.6112 
L 310.046897 132.17184 
L 312.817655 130.176 
L 312.817655 125.7408 
L 312.817655 121.3056 
L 312.817655 116.8704 
L 316.204138 114.43104 
L 318.974897 112.4352 
L 322.361379 109.99584 
L 325.132138 108 
L 325.132138 103.5648 
L 328.518621 101.12544 
L 331.289379 99.1296 
L 334.675862 96.69024 
L 337.446621 94.6944 
L 337.446621 90.2592 
L 340.833103 87.81984 
L 343.603862 85.824 
L 346.990345 83.38464 
L 349.761103 81.3888 
L 349.761103 76.9536 
L 353.147586 74.51424 
L 355.918345 72.5184 
L 359.304828 70.07904 
L 362.075586 68.0832 
L 362.075586 63.648 
L 365.462069 61.20864 
L 368.232828 59.2128 
L 371.61931 56.77344 
L 374.390069 54.7776 
L 374.390069 50.3424 
L 377.776552 47.90304 
L 380.54731 45.9072 
L 383.933793 43.46784 
L 386.704552 41.472 
L 385.780966 41.472 
L 383.933793 42.80256 
L 379.623724 45.9072 
L 377.776552 47.23776 
L 373.466483 50.3424 
L 373.466483 54.7776 
L 371.61931 56.10816 
L 367.309241 59.2128 
L 365.462069 60.54336 
L 361.152 63.648 
L 361.152 68.0832 
L 359.304828 69.41376 
L 354.994759 72.5184 
L 353.147586 73.84896 
L 348.837517 76.9536 
L 348.837517 81.3888 
L 346.990345 82.71936 
L 342.680276 85.824 
L 340.833103 87.15456 
L 336.523034 90.2592 
L 336.523034 94.6944 
L 334.675862 96.02496 
L 330.365793 99.1296 
L 328.518621 100.46016 
L 324.208552 103.5648 
L 324.208552 108 
L 322.361379 109.33056 
L 318.05131 112.4352 
L 316.204138 113.76576 
L 311.894069 116.8704 
L 311.894069 121.3056 
L 311.894069 125.7408 
L 311.894069 130.176 
L 310.046897 131.50656 
L 305.736828 134.6112 
L 305.736828 139.0464 
L 305.736828 143.4816 
L 303.889655 144.81216 
L 299.579586 147.9168 
L 299.579586 152.352 
L 297.732414 153.68256 
L 293.422345 156.7872 
L 297.732414 159.89184 
L 299.579586 161.2224 
L 299.579586 165.6576 
L 299.579586 170.0928 
L 299.579586 174.528 
L 299.579586 178.9632 
L 303.889655 182.06784 
L 305.736828 183.3984 
L 303.889655 184.72896 
L 299.579586 187.8336 
L 297.732414 189.16416 
L 293.422345 192.2688 
L 291.575172 193.59936 
L 285.417931 193.59936 
L 281.107862 196.704 
L 279.26069 198.03456 
L 273.103448 198.03456 
L 268.793379 201.1392 
L 266.946207 202.46976 
L 265.099034 201.1392 
L 265.099034 196.704 
L 260.788966 193.59936 
L 254.631724 193.59936 
L 252.784552 192.2688 
L 248.474483 189.16416 
L 246.62731 187.8336 
L 242.317241 184.72896 
L 240.470069 183.3984 
L 236.16 180.29376 
L 234.312828 178.9632 
L 230.002759 175.85856 
L 228.155586 174.528 
L 228.155586 170.0928 
L 228.155586 165.6576 
L 228.155586 161.2224 
L 228.155586 156.7872 
L 228.155586 152.352 
L 223.845517 149.24736 
L 221.998345 147.9168 
L 221.998345 143.4816 
L 217.688276 140.37696 
L 215.841103 139.0464 
L 211.531034 135.94176 
L 205.373793 135.94176 
L 203.526621 134.6112 
L 199.216552 131.50656 
L 193.05931 131.50656 
L 188.749241 134.6112 
L 188.749241 139.0464 
L 186.902069 140.37696 
L 182.592 143.4816 
L 182.592 147.9168 
L 180.744828 149.24736 
L 176.434759 152.352 
L 176.434759 156.7872 
L 174.587586 158.11776 
L 170.277517 161.2224 
L 174.587586 164.32704 
L 176.434759 165.6576 
L 174.587586 166.98816 
L 170.277517 170.0928 
L 170.277517 174.528 
L 174.587586 177.63264 
L 176.434759 178.9632 
L 174.587586 180.29376 
L 170.277517 183.3984 
L 168.430345 184.72896 
L 164.120276 187.8336 
L 164.120276 192.2688 
L 168.430345 195.37344 
L 170.277517 196.704 
L 170.277517 201.1392 
L 170.277517 205.5744 
L 170.277517 210.0096 
L 170.277517 214.4448 
L 170.277517 218.88 
L 170.277517 223.3152 
L 170.277517 227.7504 
L 168.430345 229.08096 
L 164.120276 232.1856 
L 162.273103 233.51616 
L 157.963034 236.6208 
L 156.115862 237.95136 
L 151.805793 241.056 
L 149.958621 242.38656 
L 145.648552 245.4912 
L 145.648552 249.9264 
L 143.801379 251.25696 
L 139.49131 254.3616 
L 139.49131 258.7968 
L 139.49131 263.232 
L 137.644138 264.56256 
L 133.334069 267.6672 
L 131.486897 268.99776 
L 127.176828 272.1024 
L 125.329655 273.43296 
L 121.019586 276.5376 
L 121.019586 280.9728 
L 119.172414 282.30336 
L 114.862345 285.408 
L 113.015172 286.73856 
L 108.705103 289.8432 
L 106.857931 291.17376 
L 102.547862 294.2784 
L 102.547862 298.7136 
L 100.70069 300.04416 
L 96.390621 303.1488 
L 94.543448 304.47936 
L 90.233379 307.584 
L 91.156966 307.584 
z
" style="fill:#e4b2ce;fill-opacity:0.5;"/>
   </g>
   <g id="PathCollection_4">
    <path clip-path="url(#p92f8dbcbec)" d="M 94.543448 305.80992 
L 98.237793 303.1488 
L 100.70069 301.37472 
L 104.395034 298.7136 
L 104.395034 294.2784 
L 106.857931 292.50432 
L 110.552276 289.8432 
L 113.015172 288.06912 
L 116.709517 285.408 
L 119.172414 283.63392 
L 122.866759 280.9728 
L 122.866759 276.5376 
L 125.329655 274.76352 
L 129.024 272.1024 
L 131.486897 270.32832 
L 135.181241 267.6672 
L 137.644138 265.89312 
L 141.338483 263.232 
L 141.338483 258.7968 
L 141.338483 254.3616 
L 143.801379 252.58752 
L 147.495724 249.9264 
L 147.495724 245.4912 
L 149.958621 243.71712 
L 153.652966 241.056 
L 156.115862 239.28192 
L 159.810207 236.6208 
L 162.273103 234.84672 
L 165.967448 232.1856 
L 168.430345 230.41152 
L 172.12469 227.7504 
L 172.12469 223.3152 
L 172.12469 218.88 
L 172.12469 214.4448 
L 172.12469 210.0096 
L 172.12469 205.5744 
L 172.12469 201.1392 
L 172.12469 196.704 
L 168.430345 194.04288 
L 165.967448 192.2688 
L 165.967448 187.8336 
L 168.430345 186.05952 
L 172.12469 183.3984 
L 174.587586 181.62432 
L 178.281931 178.9632 
L 174.587586 176.30208 
L 172.12469 174.528 
L 172.12469 170.0928 
L 174.587586 168.31872 
L 178.281931 165.6576 
L 174.587586 162.99648 
L 172.12469 161.2224 
L 174.587586 159.44832 
L 178.281931 156.7872 
L 178.281931 152.352 
L 180.744828 150.57792 
L 184.439172 147.9168 
L 184.439172 143.4816 
L 186.902069 141.70752 
L 190.596414 139.0464 
L 190.596414 134.6112 
L 193.05931 132.83712 
L 199.216552 132.83712 
L 201.679448 134.6112 
L 205.373793 137.27232 
L 211.531034 137.27232 
L 213.993931 139.0464 
L 217.688276 141.70752 
L 220.151172 143.4816 
L 220.151172 147.9168 
L 223.845517 150.57792 
L 226.308414 152.352 
L 226.308414 156.7872 
L 226.308414 161.2224 
L 226.308414 165.6576 
L 226.308414 170.0928 
L 226.308414 174.528 
L 230.002759 177.18912 
L 232.465655 178.9632 
L 236.16 181.62432 
L 238.622897 183.3984 
L 242.317241 186.05952 
L 244.780138 187.8336 
L 248.474483 190.49472 
L 250.937379 192.2688 
L 254.631724 194.92992 
L 260.788966 194.92992 
L 263.251862 196.704 
L 263.251862 201.1392 
L 266.946207 203.80032 
L 270.640552 201.1392 
L 273.103448 199.36512 
L 279.26069 199.36512 
L 282.955034 196.704 
L 285.417931 194.92992 
L 291.575172 194.92992 
L 295.269517 192.2688 
L 297.732414 190.49472 
L 301.426759 187.8336 
L 303.889655 186.05952 
L 307.584 183.3984 
L 303.889655 180.73728 
L 301.426759 178.9632 
L 301.426759 174.528 
L 301.426759 170.0928 
L 301.426759 165.6576 
L 301.426759 161.2224 
L 297.732414 158.56128 
L 295.269517 156.7872 
L 297.732414 155.01312 
L 301.426759 152.352 
L 301.426759 147.9168 
L 303.889655 146.14272 
L 307.584 143.4816 
L 307.584 139.0464 
L 307.584 134.6112 
L 310.046897 132.83712 
L 313.741241 130.176 
L 313.741241 125.7408 
L 313.741241 121.3056 
L 313.741241 116.8704 
L 316.204138 115.09632 
L 319.898483 112.4352 
L 322.361379 110.66112 
L 326.055724 108 
L 326.055724 103.5648 
L 328.518621 101.79072 
L 332.212966 99.1296 
L 334.675862 97.35552 
L 338.370207 94.6944 
L 338.370207 90.2592 
L 340.833103 88.48512 
L 344.527448 85.824 
L 346.990345 84.04992 
L 350.68469 81.3888 
L 350.68469 76.9536 
L 353.147586 75.17952 
L 356.841931 72.5184 
L 359.304828 70.74432 
L 362.999172 68.0832 
L 362.999172 63.648 
L 365.462069 61.87392 
L 369.156414 59.2128 
L 371.61931 57.43872 
L 375.313655 54.7776 
L 375.313655 50.3424 
L 377.776552 48.56832 
L 381.470897 45.9072 
L 383.933793 44.13312 
L 387.628138 41.472 
L 386.704552 41.472 
L 383.933793 43.46784 
L 380.54731 45.9072 
L 377.776552 47.90304 
L 374.390069 50.3424 
L 374.390069 54.7776 
L 371.61931 56.77344 
L 368.232828 59.2128 
L 365.462069 61.20864 
L 362.075586 63.648 
L 362.075586 68.0832 
L 359.304828 70.07904 
L 355.918345 72.5184 
L 353.147586 74.51424 
L 349.761103 76.9536 
L 349.761103 81.3888 
L 346.990345 83.38464 
L 343.603862 85.824 
L 340.833103 87.81984 
L 337.446621 90.2592 
L 337.446621 94.6944 
L 334.675862 96.69024 
L 331.289379 99.1296 
L 328.518621 101.12544 
L 325.132138 103.5648 
L 325.132138 108 
L 322.361379 109.99584 
L 318.974897 112.4352 
L 316.204138 114.43104 
L 312.817655 116.8704 
L 312.817655 121.3056 
L 312.817655 125.7408 
L 312.817655 130.176 
L 310.046897 132.17184 
L 306.660414 134.6112 
L 306.660414 139.0464 
L 306.660414 143.4816 
L 303.889655 145.47744 
L 300.503172 147.9168 
L 300.503172 152.352 
L 297.732414 154.34784 
L 294.345931 156.7872 
L 297.732414 159.22656 
L 300.503172 161.2224 
L 300.503172 165.6576 
L 300.503172 170.0928 
L 300.503172 174.528 
L 300.503172 178.9632 
L 303.889655 181.40256 
L 306.660414 183.3984 
L 303.889655 185.39424 
L 300.503172 187.8336 
L 297.732414 189.82944 
L 294.345931 192.2688 
L 291.575172 194.26464 
L 285.417931 194.26464 
L 282.031448 196.704 
L 279.26069 198.69984 
L 273.103448 198.69984 
L 269.716966 201.1392 
L 266.946207 203.13504 
L 264.175448 201.1392 
L 264.175448 196.704 
L 260.788966 194.26464 
L 254.631724 194.26464 
L 251.860966 192.2688 
L 248.474483 189.82944 
L 245.703724 187.8336 
L 242.317241 185.39424 
L 239.546483 183.3984 
L 236.16 180.95904 
L 233.389241 178.9632 
L 230.002759 176.52384 
L 227.232 174.528 
L 227.232 170.0928 
L 227.232 165.6576 
L 227.232 161.2224 
L 227.232 156.7872 
L 227.232 152.352 
L 223.845517 149.91264 
L 221.074759 147.9168 
L 221.074759 143.4816 
L 217.688276 141.04224 
L 214.917517 139.0464 
L 211.531034 136.60704 
L 205.373793 136.60704 
L 202.603034 134.6112 
L 199.216552 132.17184 
L 193.05931 132.17184 
L 189.672828 134.6112 
L 189.672828 139.0464 
L 186.902069 141.04224 
L 183.515586 143.4816 
L 183.515586 147.9168 
L 180.744828 149.91264 
L 177.358345 152.352 
L 177.358345 156.7872 
L 174.587586 158.78304 
L 171.201103 161.2224 
L 174.587586 163.66176 
L 177.358345 165.6576 
L 174.587586 167.65344 
L 171.201103 170.0928 
L 171.201103 174.528 
L 174.587586 176.96736 
L 177.358345 178.9632 
L 174.587586 180.95904 
L 171.201103 183.3984 
L 168.430345 185.39424 
L 165.043862 187.8336 
L 165.043862 192.2688 
L 168.430345 194.70816 
L 171.201103 196.704 
L 171.201103 201.1392 
L 171.201103 205.5744 
L 171.201103 210.0096 
L 171.201103 214.4448 
L 171.201103 218.88 
L 171.201103 223.3152 
L 171.201103 227.7504 
L 168.430345 229.74624 
L 165.043862 232.1856 
L 162.273103 234.18144 
L 158.886621 236.6208 
L 156.115862 238.61664 
L 152.729379 241.056 
L 149.958621 243.05184 
L 146.572138 245.4912 
L 146.572138 249.9264 
L 143.801379 251.92224 
L 140.414897 254.3616 
L 140.414897 258.7968 
L 140.414897 263.232 
L 137.644138 265.22784 
L 134.257655 267.6672 
L 131.486897 269.66304 
L 128.100414 272.1024 
L 125.329655 274.09824 
L 121.943172 276.5376 
L 121.943172 280.9728 
L 119.172414 282.96864 
L 115.785931 285.408 
L 113.015172 287.40384 
L 109.62869 289.8432 
L 106.857931 291.83904 
L 103.471448 294.2784 
L 103.471448 298.7136 
L 100.70069 300.70944 
L 97.314207 303.1488 
L 94.543448 305.14464 
L 91.156966 307.584 
L 92.080552 307.584 
z
" style="fill:#d9b2d9;fill-opacity:0.5;"/>
   </g>
   <g id="PathCollection_5">
    <path clip-path="url(#p92f8dbcbec)" d="M 94.543448 306.4752 
L 99.161379 303.1488 
L 100.70069 302.04 
L 105.318621 298.7136 
L 105.318621 294.2784 
L 106.857931 293.1696 
L 111.475862 289.8432 
L 113.015172 288.7344 
L 117.633103 285.408 
L 119.172414 284.2992 
L 123.790345 280.9728 
L 123.790345 276.5376 
L 125.329655 275.4288 
L 129.947586 272.1024 
L 131.486897 270.9936 
L 136.104828 267.6672 
L 137.644138 266.5584 
L 142.262069 263.232 
L 142.262069 258.7968 
L 142.262069 254.3616 
L 143.801379 253.2528 
L 148.41931 249.9264 
L 148.41931 245.4912 
L 149.958621 244.3824 
L 154.576552 241.056 
L 156.115862 239.9472 
L 160.733793 236.6208 
L 162.273103 235.512 
L 166.891034 232.1856 
L 168.430345 231.0768 
L 173.048276 227.7504 
L 173.048276 223.3152 
L 173.048276 218.88 
L 173.048276 214.4448 
L 173.048276 210.0096 
L 173.048276 205.5744 
L 173.048276 201.1392 
L 173.048276 196.704 
L 168.430345 193.3776 
L 166.891034 192.2688 
L 166.891034 187.8336 
L 168.430345 186.7248 
L 173.048276 183.3984 
L 174.587586 182.2896 
L 179.205517 178.9632 
L 174.587586 175.6368 
L 173.048276 174.528 
L 173.048276 170.0928 
L 174.587586 168.984 
L 179.205517 165.6576 
L 174.587586 162.3312 
L 173.048276 161.2224 
L 174.587586 160.1136 
L 179.205517 156.7872 
L 179.205517 152.352 
L 180.744828 151.2432 
L 185.362759 147.9168 
L 185.362759 143.4816 
L 186.902069 142.3728 
L 191.52 139.0464 
L 191.52 134.6112 
L 193.05931 133.5024 
L 199.216552 133.5024 
L 200.755862 134.6112 
L 205.373793 137.9376 
L 211.531034 137.9376 
L 213.070345 139.0464 
L 217.688276 142.3728 
L 219.227586 143.4816 
L 219.227586 147.9168 
L 223.845517 151.2432 
L 225.384828 152.352 
L 225.384828 156.7872 
L 225.384828 161.2224 
L 225.384828 165.6576 
L 225.384828 170.0928 
L 225.384828 174.528 
L 230.002759 177.8544 
L 231.542069 178.9632 
L 236.16 182.2896 
L 237.69931 183.3984 
L 242.317241 186.7248 
L 243.856552 187.8336 
L 248.474483 191.16 
L 250.013793 192.2688 
L 254.631724 195.5952 
L 260.788966 195.5952 
L 262.328276 196.704 
L 262.328276 201.1392 
L 266.946207 204.4656 
L 271.564138 201.1392 
L 273.103448 200.0304 
L 279.26069 200.0304 
L 283.878621 196.704 
L 285.417931 195.5952 
L 291.575172 195.5952 
L 296.193103 192.2688 
L 297.732414 191.16 
L 302.350345 187.8336 
L 303.889655 186.7248 
L 308.507586 183.3984 
L 303.889655 180.072 
L 302.350345 178.9632 
L 302.350345 174.528 
L 302.350345 170.0928 
L 302.350345 165.6576 
L 302.350345 161.2224 
L 297.732414 157.896 
L 296.193103 156.7872 
L 297.732414 155.6784 
L 302.350345 152.352 
L 302.350345 147.9168 
L 303.889655 146.808 
L 308.507586 143.4816 
L 308.507586 139.0464 
L 308.507586 134.6112 
L 310.046897 133.5024 
L 314.664828 130.176 
L 314.664828 125.7408 
L 314.664828 121.3056 
L 314.664828 116.8704 
L 316.204138 115.7616 
L 320.822069 112.4352 
L 322.361379 111.3264 
L 326.97931 108 
L 326.97931 103.5648 
L 328.518621 102.456 
L 333.136552 99.1296 
L 334.675862 98.0208 
L 339.293793 94.6944 
L 339.293793 90.2592 
L 340.833103 89.1504 
L 345.451034 85.824 
L 346.990345 84.7152 
L 351.608276 81.3888 
L 351.608276 76.9536 
L 353.147586 75.8448 
L 357.765517 72.5184 
L 359.304828 71.4096 
L 363.922759 68.0832 
L 363.922759 63.648 
L 365.462069 62.5392 
L 370.08 59.2128 
L 371.61931 58.104 
L 376.237241 54.7776 
L 376.237241 50.3424 
L 377.776552 49.2336 
L 382.394483 45.9072 
L 383.933793 44.7984 
L 388.551724 41.472 
L 387.628138 41.472 
L 383.933793 44.13312 
L 381.470897 45.9072 
L 377.776552 48.56832 
L 375.313655 50.3424 
L 375.313655 54.7776 
L 371.61931 57.43872 
L 369.156414 59.2128 
L 365.462069 61.87392 
L 362.999172 63.648 
L 362.999172 68.0832 
L 359.304828 70.74432 
L 356.841931 72.5184 
L 353.147586 75.17952 
L 350.68469 76.9536 
L 350.68469 81.3888 
L 346.990345 84.04992 
L 344.527448 85.824 
L 340.833103 88.48512 
L 338.370207 90.2592 
L 338.370207 94.6944 
L 334.675862 97.35552 
L 332.212966 99.1296 
L 328.518621 101.79072 
L 326.055724 103.5648 
L 326.055724 108 
L 322.361379 110.66112 
L 319.898483 112.4352 
L 316.204138 115.09632 
L 313.741241 116.8704 
L 313.741241 121.3056 
L 313.741241 125.7408 
L 313.741241 130.176 
L 310.046897 132.83712 
L 307.584 134.6112 
L 307.584 139.0464 
L 307.584 143.4816 
L 303.889655 146.14272 
L 301.426759 147.9168 
L 301.426759 152.352 
L 297.732414 155.01312 
L 295.269517 156.7872 
L 297.732414 158.56128 
L 301.426759 161.2224 
L 301.426759 165.6576 
L 301.426759 170.0928 
L 301.426759 174.528 
L 301.426759 178.9632 
L 303.889655 180.73728 
L 307.584 183.3984 
L 303.889655 186.05952 
L 301.426759 187.8336 
L 297.732414 190.49472 
L 295.269517 192.2688 
L 291.575172 194.92992 
L 285.417931 194.92992 
L 282.955034 196.704 
L 279.26069 199.36512 
L 273.103448 199.36512 
L 270.640552 201.1392 
L 266.946207 203.80032 
L 263.251862 201.1392 
L 263.251862 196.704 
L 260.788966 194.92992 
L 254.631724 194.92992 
L 250.937379 192.2688 
L 248.474483 190.49472 
L 244.780138 187.8336 
L 242.317241 186.05952 
L 238.622897 183.3984 
L 236.16 181.62432 
L 232.465655 178.9632 
L 230.002759 177.18912 
L 226.308414 174.528 
L 226.308414 170.0928 
L 226.308414 165.6576 
L 226.308414 161.2224 
L 226.308414 156.7872 
L 226.308414 152.352 
L 223.845517 150.57792 
L 220.151172 147.9168 
L 220.151172 143.4816 
L 217.688276 141.70752 
L 213.993931 139.0464 
L 211.531034 137.27232 
L 205.373793 137.27232 
L 201.679448 134.6112 
L 199.216552 132.83712 
L 193.05931 132.83712 
L 190.596414 134.6112 
L 190.596414 139.0464 
L 186.902069 141.70752 
L 184.439172 143.4816 
L 184.439172 147.9168 
L 180.744828 150.57792 
L 178.281931 152.352 
L 178.281931 156.7872 
L 174.587586 159.44832 
L 172.12469 161.2224 
L 174.587586 162.99648 
L 178.281931 165.6576 
L 174.587586 168.31872 
L 172.12469 170.0928 
L 172.12469 174.528 
L 174.587586 176.30208 
L 178.281931 178.9632 
L 174.587586 181.62432 
L 172.12469 183.3984 
L 168.430345 186.05952 
L 165.967448 187.8336 
L 165.967448 192.2688 
L 168.430345 194.04288 
L 172.12469 196.704 
L 172.12469 201.1392 
L 172.12469 205.5744 
L 172.12469 210.0096 
L 172.12469 214.4448 
L 172.12469 218.88 
L 172.12469 223.3152 
L 172.12469 227.7504 
L 168.430345 230.41152 
L 165.967448 232.1856 
L 162.273103 234.84672 
L 159.810207 236.6208 
L 156.115862 239.28192 
L 153.652966 241.056 
L 149.958621 243.71712 
L 147.495724 245.4912 
L 147.495724 249.9264 
L 143.801379 252.58752 
L 141.338483 254.3616 
L 141.338483 258.7968 
L 141.338483 263.232 
L 137.644138 265.89312 
L 135.181241 267.6672 
L 131.486897 270.32832 
L 129.024 272.1024 
L 125.329655 274.76352 
L 122.866759 276.5376 
L 122.866759 280.9728 
L 119.172414 283.63392 
L 116.709517 285.408 
L 113.015172 288.06912 
L 110.552276 289.8432 
L 106.857931 292.50432 
L 104.395034 294.2784 
L 104.395034 298.7136 
L 100.70069 301.37472 
L 98.237793 303.1488 
L 94.543448 305.80992 
L 92.080552 307.584 
L 93.004138 307.584 
z
" style="fill:#ceb2e4;fill-opacity:0.5;"/>
   </g>
   <g id="PathCollection_6">
    <path clip-path="url(#p92f8dbcbec)" d="M 94.543448 307.14048 
L 100.084966 303.1488 
L 100.70069 302.70528 
L 106.242207 298.7136 
L 106.242207 294.2784 
L 106.857931 293.83488 
L 112.399448 289.8432 
L 113.015172 289.39968 
L 118.55669 285.408 
L 119.172414 284.96448 
L 124.713931 280.9728 
L 124.713931 276.5376 
L 125.329655 276.09408 
L 130.871172 272.1024 
L 131.486897 271.65888 
L 137.028414 267.6672 
L 137.644138 267.22368 
L 143.185655 263.232 
L 143.185655 258.7968 
L 143.185655 254.3616 
L 143.801379 253.91808 
L 149.342897 249.9264 
L 149.342897 245.4912 
L 149.958621 245.04768 
L 155.500138 241.056 
L 156.115862 240.61248 
L 161.657379 236.6208 
L 162.273103 236.17728 
L 167.814621 232.1856 
L 168.430345 231.74208 
L 173.971862 227.7504 
L 173.971862 223.3152 
L 173.971862 218.88 
L 173.971862 214.4448 
L 173.971862 210.0096 
L 173.971862 205.5744 
L 173.971862 201.1392 
L 173.971862 196.704 
L 168.430345 192.71232 
L 167.814621 192.2688 
L 167.814621 187.8336 
L 168.430345 187.39008 
L 173.971862 183.3984 
L 174.587586 182.95488 
L 180.129103 178.9632 
L 174.587586 174.97152 
L 173.971862 174.528 
L 173.971862 170.0928 
L 174.587586 169.64928 
L 180.129103 165.6576 
L 174.587586 161.66592 
L 173.971862 161.2224 
L 174.587586 160.77888 
L 180.129103 156.7872 
L 180.129103 152.352 
L 180.744828 151.90848 
L 186.286345 147.9168 
L 186.286345 143.4816 
L 186.902069 143.03808 
L 192.443586 139.0464 
L 192.443586 134.6112 
L 193.05931 134.16768 
L 199.216552 134.16768 
L 199.832276 134.6112 
L 205.373793 138.60288 
L 211.531034 138.60288 
L 212.146759 139.0464 
L 217.688276 143.03808 
L 218.304 143.4816 
L 218.304 147.9168 
L 223.845517 151.90848 
L 224.461241 152.352 
L 224.461241 156.7872 
L 224.461241 161.2224 
L 224.461241 165.6576 
L 224.461241 170.0928 
L 224.461241 174.528 
L 230.002759 178.51968 
L 230.618483 178.9632 
L 236.16 182.95488 
L 236.775724 183.3984 
L 242.317241 187.39008 
L 242.932966 187.8336 
L 248.474483 191.82528 
L 249.090207 192.2688 
L 254.631724 196.26048 
L 260.788966 196.26048 
L 261.40469 196.704 
L 261.40469 201.1392 
L 266.946207 205.13088 
L 272.487724 201.1392 
L 273.103448 200.69568 
L 279.26069 200.69568 
L 284.802207 196.704 
L 285.417931 196.26048 
L 291.575172 196.26048 
L 297.11669 192.2688 
L 297.732414 191.82528 
L 303.273931 187.8336 
L 303.889655 187.39008 
L 309.431172 183.3984 
L 303.889655 179.40672 
L 303.273931 178.9632 
L 303.273931 174.528 
L 303.273931 170.0928 
L 303.273931 165.6576 
L 303.273931 161.2224 
L 297.732414 157.23072 
L 297.11669 156.7872 
L 297.732414 156.34368 
L 303.273931 152.352 
L 303.273931 147.9168 
L 303.889655 147.47328 
L 309.431172 143.4816 
L 309.431172 139.0464 
L 309.431172 134.6112 
L 310.046897 134.16768 
L 315.588414 130.176 
L 315.588414 125.7408 
L 315.588414 121.3056 
L 315.588414 116.8704 
L 316.204138 116.42688 
L 321.745655 112.4352 
L 322.361379 111.99168 
L 327.902897 108 
L 327.902897 103.5648 
L 328.518621 103.12128 
L 334.060138 99.1296 
L 334.675862 98.68608 
L 340.217379 94.6944 
L 340.217379 90.2592 
L 340.833103 89.81568 
L 346.374621 85.824 
L 346.990345 85.38048 
L 352.531862 81.3888 
L 352.531862 76.9536 
L 353.147586 76.51008 
L 358.689103 72.5184 
L 359.304828 72.07488 
L 364.846345 68.0832 
L 364.846345 63.648 
L 365.462069 63.20448 
L 371.003586 59.2128 
L 371.61931 58.76928 
L 377.160828 54.7776 
L 377.160828 50.3424 
L 377.776552 49.89888 
L 383.318069 45.9072 
L 383.933793 45.46368 
L 389.47531 41.472 
L 388.551724 41.472 
L 383.933793 44.7984 
L 382.394483 45.9072 
L 377.776552 49.2336 
L 376.237241 50.3424 
L 376.237241 54.7776 
L 371.61931 58.104 
L 370.08 59.2128 
L 365.462069 62.5392 
L 363.922759 63.648 
L 363.922759 68.0832 
L 359.304828 71.4096 
L 357.765517 72.5184 
L 353.147586 75.8448 
L 351.608276 76.9536 
L 351.608276 81.3888 
L 346.990345 84.7152 
L 345.451034 85.824 
L 340.833103 89.1504 
L 339.293793 90.2592 
L 339.293793 94.6944 
L 334.675862 98.0208 
L 333.136552 99.1296 
L 328.518621 102.456 
L 326.97931 103.5648 
L 326.97931 108 
L 322.361379 111.3264 
L 320.822069 112.4352 
L 316.204138 115.7616 
L 314.664828 116.8704 
L 314.664828 121.3056 
L 314.664828 125.7408 
L 314.664828 130.176 
L 310.046897 133.5024 
L 308.507586 134.6112 
L 308.507586 139.0464 
L 308.507586 143.4816 
L 303.889655 146.808 
L 302.350345 147.9168 
L 302.350345 152.352 
L 297.732414 155.6784 
L 296.193103 156.7872 
L 297.732414 157.896 
L 302.350345 161.2224 
L 302.350345 165.6576 
L 302.350345 170.0928 
L 302.350345 174.528 
L 302.350345 178.9632 
L 303.889655 180.072 
L 308.507586 183.3984 
L 303.889655 186.7248 
L 302.350345 187.8336 
L 297.732414 191.16 
L 296.193103 192.2688 
L 291.575172 195.5952 
L 285.417931 195.5952 
L 283.878621 196.704 
L 279.26069 200.0304 
L 273.103448 200.0304 
L 271.564138 201.1392 
L 266.946207 204.4656 
L 262.328276 201.1392 
L 262.328276 196.704 
L 260.788966 195.5952 
L 254.631724 195.5952 
L 250.013793 192.2688 
L 248.474483 191.16 
L 243.856552 187.8336 
L 242.317241 186.7248 
L 237.69931 183.3984 
L 236.16 182.2896 
L 231.542069 178.9632 
L 230.002759 177.8544 
L 225.384828 174.528 
L 225.384828 170.0928 
L 225.384828 165.6576 
L 225.384828 161.2224 
L 225.384828 156.7872 
L 225.384828 152.352 
L 223.845517 151.2432 
L 219.227586 147.9168 
L 219.227586 143.4816 
L 217.688276 142.3728 
L 213.070345 139.0464 
L 211.531034 137.9376 
L 205.373793 137.9376 
L 200.755862 134.6112 
L 199.216552 133.5024 
L 193.05931 133.5024 
L 191.52 134.6112 
L 191.52 139.0464 
L 186.902069 142.3728 
L 185.362759 143.4816 
L 185.362759 147.9168 
L 180.744828 151.2432 
L 179.205517 152.352 
L 179.205517 156.7872 
L 174.587586 160.1136 
L 173.048276 161.2224 
L 174.587586 162.3312 
L 179.205517 165.6576 
L 174.587586 168.984 
L 173.048276 170.0928 
L 173.048276 174.528 
L 174.587586 175.6368 
L 179.205517 178.9632 
L 174.587586 182.2896 
L 173.048276 183.3984 
L 168.430345 186.7248 
L 166.891034 187.8336 
L 166.891034 192.2688 
L 168.430345 193.3776 
L 173.048276 196.704 
L 173.048276 201.1392 
L 173.048276 205.5744 
L 173.048276 210.0096 
L 173.048276 214.4448 
L 173.048276 218.88 
L 173.048276 223.3152 
L 173.048276 227.7504 
L 168.430345 231.0768 
L 166.891034 232.1856 
L 162.273103 235.512 
L 160.733793 236.6208 
L 156.115862 239.9472 
L 154.576552 241.056 
L 149.958621 244.3824 
L 148.41931 245.4912 
L 148.41931 249.9264 
L 143.801379 253.2528 
L 142.262069 254.3616 
L 142.262069 258.7968 
L 142.262069 263.232 
L 137.644138 266.5584 
L 136.104828 267.6672 
L 131.486897 270.9936 
L 129.947586 272.1024 
L 125.329655 275.4288 
L 123.790345 276.5376 
L 123.790345 280.9728 
L 119.172414 284.2992 
L 117.633103 285.408 
L 113.015172 288.7344 
L 111.475862 289.8432 
L 106.857931 293.1696 
L 105.318621 294.2784 
L 105.318621 298.7136 
L 100.70069 302.04 
L 99.161379 303.1488 
L 94.543448 306.4752 
L 93.004138 307.584 
L 93.927724 307.584 
z
" style="fill:#c3b2ef;fill-opacity:0.5;"/>
   </g>
   <g id="PathCollection_7">
    <path clip-path="url(#p92f8dbcbec)" d="M 94.543448 307.584 
L 100.70069 307.584 
L 106.857931 307.584 
L 113.015172 307.584 
L 119.172414 307.584 
L 125.329655 307.584 
L 131.486897 307.584 
L 137.644138 307.584 
L 143.801379 307.584 
L 149.958621 307.584 
L 156.115862 307.584 
L 162.273103 307.584 
L 168.430345 307.584 
L 174.587586 307.584 
L 180.744828 307.584 
L 186.902069 307.584 
L 193.05931 307.584 
L 199.216552 307.584 
L 205.373793 307.584 
L 211.531034 307.584 
L 217.688276 307.584 
L 223.845517 307.584 
L 230.002759 307.584 
L 236.16 307.584 
L 242.317241 307.584 
L 248.474483 307.584 
L 254.631724 307.584 
L 260.788966 307.584 
L 266.946207 307.584 
L 273.103448 307.584 
L 279.26069 307.584 
L 285.417931 307.584 
L 291.575172 307.584 
L 297.732414 307.584 
L 303.889655 307.584 
L 310.046897 307.584 
L 316.204138 307.584 
L 322.361379 307.584 
L 328.518621 307.584 
L 334.675862 307.584 
L 340.833103 307.584 
L 346.990345 307.584 
L 353.147586 307.584 
L 359.304828 307.584 
L 365.462069 307.584 
L 371.61931 307.584 
L 377.776552 307.584 
L 383.933793 307.584 
L 390.091034 307.584 
L 396.248276 307.584 
L 402.405517 307.584 
L 408.562759 307.584 
L 414.72 307.584 
L 414.72 303.1488 
L 414.72 298.7136 
L 414.72 294.2784 
L 414.72 289.8432 
L 414.72 285.408 
L 414.72 280.9728 
L 414.72 276.5376 
L 414.72 272.1024 
L 414.72 267.6672 
L 414.72 263.232 
L 414.72 258.7968 
L 414.72 254.3616 
L 414.72 249.9264 
L 414.72 245.4912 
L 414.72 241.056 
L 414.72 236.6208 
L 414.72 232.1856 
L 414.72 227.7504 
L 414.72 223.3152 
L 414.72 218.88 
L 414.72 214.4448 
L 414.72 210.0096 
L 414.72 205.5744 
L 414.72 201.1392 
L 414.72 196.704 
L 414.72 192.2688 
L 414.72 187.8336 
L 414.72 183.3984 
L 414.72 178.9632 
L 414.72 174.528 
L 414.72 170.0928 
L 414.72 165.6576 
L 414.72 161.2224 
L 414.72 156.7872 
L 414.72 152.352 
L 414.72 147.9168 
L 414.72 143.4816 
L 414.72 139.0464 
L 414.72 134.6112 
L 414.72 130.176 
L 414.72 125.7408 
L 414.72 121.3056 
L 414.72 116.8704 
L 414.72 112.4352 
L 414.72 108 
L 414.72 103.5648 
L 414.72 99.1296 
L 414.72 94.6944 
L 414.72 90.2592 
L 414.72 85.824 
L 414.72 81.3888 
L 414.72 76.9536 
L 414.72 72.5184 
L 414.72 68.0832 
L 414.72 63.648 
L 414.72 59.2128 
L 414.72 54.7776 
L 414.72 50.3424 
L 414.72 45.9072 
L 414.72 41.472 
L 408.562759 41.472 
L 402.405517 41.472 
L 396.248276 41.472 
L 390.091034 41.472 
L 389.47531 41.472 
L 383.933793 45.46368 
L 383.318069 45.9072 
L 377.776552 49.89888 
L 377.160828 50.3424 
L 377.160828 54.7776 
L 371.61931 58.76928 
L 371.003586 59.2128 
L 365.462069 63.20448 
L 364.846345 63.648 
L 364.846345 68.0832 
L 359.304828 72.07488 
L 358.689103 72.5184 
L 353.147586 76.51008 
L 352.531862 76.9536 
L 352.531862 81.3888 
L 346.990345 85.38048 
L 346.374621 85.824 
L 340.833103 89.81568 
L 340.217379 90.2592 
L 340.217379 94.6944 
L 334.675862 98.68608 
L 334.060138 99.1296 
L 328.518621 103.12128 
L 327.902897 103.5648 
L 327.902897 108 
L 322.361379 111.99168 
L 321.745655 112.4352 
L 316.204138 116.42688 
L 315.588414 116.8704 
L 315.588414 121.3056 
L 315.588414 125.7408 
L 315.588414 130.176 
L 310.046897 134.16768 
L 309.431172 134.6112 
L 309.431172 139.0464 
L 309.431172 143.4816 
L 303.889655 147.47328 
L 303.273931 147.9168 
L 303.273931 152.352 
L 297.732414 156.34368 
L 297.11669 156.7872 
L 297.732414 157.23072 
L 303.273931 161.2224 
L 303.273931 165.6576 
L 303.273931 170.0928 
L 303.273931 174.528 
L 303.273931 178.9632 
L 303.889655 179.40672 
L 309.431172 183.3984 
L 303.889655 187.39008 
L 303.273931 187.8336 
L 297.732414 191.82528 
L 297.11669 192.2688 
L 291.575172 196.26048 
L 285.417931 196.26048 
L 284.802207 196.704 
L 279.26069 200.69568 
L 273.103448 200.69568 
L 272.487724 201.1392 
L 266.946207 205.13088 
L 261.40469 201.1392 
L 261.40469 196.704 
L 260.788966 196.26048 
L 254.631724 196.26048 
L 249.090207 192.2688 
L 248.474483 191.82528 
L 242.932966 187.8336 
L 242.317241 187.39008 
L 236.775724 183.3984 
L 236.16 182.95488 
L 230.618483 178.9632 
L 230.002759 178.51968 
L 224.461241 174.528 
L 224.461241 170.0928 
L 224.461241 165.6576 
L 224.461241 161.2224 
L 224.461241 156.7872 
L 224.461241 152.352 
L 223.845517 151.90848 
L 218.304 147.9168 
L 218.304 143.4816 
L 217.688276 143.03808 
L 212.146759 139.0464 
L 211.531034 138.60288 
L 205.373793 138.60288 
L 199.832276 134.6112 
L 199.216552 134.16768 
L 193.05931 134.16768 
L 192.443586 134.6112 
L 192.443586 139.0464 
L 186.902069 143.03808 
L 186.286345 143.4816 
L 186.286345 147.9168 
L 180.744828 151.90848 
L 180.129103 152.352 
L 180.129103 156.7872 
L 174.587586 160.77888 
L 173.971862 161.2224 
L 174.587586 161.66592 
L 180.129103 165.6576 
L 174.587586 169.64928 
L 173.971862 170.0928 
L 173.971862 174.528 
L 174.587586 174.97152 
L 180.129103 178.9632 
L 174.587586 182.95488 
L 173.971862 183.3984 
L 168.430345 187.39008 
L 167.814621 187.8336 
L 167.814621 192.2688 
L 168.430345 192.71232 
L 173.971862 196.704 
L 173.971862 201.1392 
L 173.971862 205.5744 
L 173.971862 210.0096 
L 173.971862 214.4448 
L 173.971862 218.88 
L 173.971862 223.3152 
L 173.971862 227.7504 
L 168.430345 231.74208 
L 167.814621 232.1856 
L 162.273103 236.17728 
L 161.657379 236.6208 
L 156.115862 240.61248 
L 155.500138 241.056 
L 149.958621 245.04768 
L 149.342897 245.4912 
L 149.342897 249.9264 
L 143.801379 253.91808 
L 143.185655 254.3616 
L 143.185655 258.7968 
L 143.185655 263.232 
L 137.644138 267.22368 
L 137.028414 267.6672 
L 131.486897 271.65888 
L 130.871172 272.1024 
L 125.329655 276.09408 
L 124.713931 276.5376 
L 124.713931 280.9728 
L 119.172414 284.96448 
L 118.55669 285.408 
L 113.015172 289.39968 
L 112.399448 289.8432 
L 106.857931 293.83488 
L 106.242207 294.2784 
L 106.242207 298.7136 
L 100.70069 302.70528 
L 100.084966 303.1488 
L 94.543448 307.14048 
L 93.927724 307.584 
z
" style="fill:#b8b2fa;fill-opacity:0.5;"/>
   </g>
   <g id="PathCollection_8">
    <defs>
     <path d="M 0 3 
C 0.795609 3 1.55874 2.683901 2.12132 2.12132 
C 2.683901 1.55874 3 0.795609 3 0 
C 3 -0.795609 2.683901 -1.55874 2.12132 -2.12132 
C 1.55874 -2.683901 0.795609 -3 0 -3 
C -0.795609 -3 -1.55874 -2.683901 -2.12132 -2.12132 
C -2.683901 -1.55874 -3 -0.795609 -3 0 
C -3 0.795609 -2.683901 1.55874 -2.12132 2.12132 
C -1.55874 2.683901 -0.795609 3 0 3 
z
" id="mf262c86424" style="stroke:#1a1a1a;stroke-opacity:0.8;"/>
    </defs>
    <g clip-path="url(#p92f8dbcbec)">
     <use style="fill:#ff0000;fill-opacity:0.8;stroke:#1a1a1a;stroke-opacity:0.8;" x="248.146283" xlink:href="#mf262c86424" y="151.899254"/>
     <use style="fill:#ff0000;fill-opacity:0.8;stroke:#1a1a1a;stroke-opacity:0.8;" x="136.724601" xlink:href="#mf262c86424" y="167.227211"/>
     <use style="fill:#ff0000;fill-opacity:0.8;stroke:#1a1a1a;stroke-opacity:0.8;" x="276.560441" xlink:href="#mf262c86424" y="166.199555"/>
     <use style="fill:#ff0000;fill-opacity:0.8;stroke:#1a1a1a;stroke-opacity:0.8;" x="253.87432" xlink:href="#mf262c86424" y="135.933145"/>
     <use style="fill:#ff0000;fill-opacity:0.8;stroke:#1a1a1a;stroke-opacity:0.8;" x="222.403285" xlink:href="#mf262c86424" y="98.807102"/>
     <use style="fill:#ff0000;fill-opacity:0.8;stroke:#1a1a1a;stroke-opacity:0.8;" x="178.26669" xlink:href="#mf262c86424" y="106.405932"/>
     <use style="fill:#ff0000;fill-opacity:0.8;stroke:#1a1a1a;stroke-opacity:0.8;" x="219.788034" xlink:href="#mf262c86424" y="113.636282"/>
     <use style="fill:#ff0000;fill-opacity:0.8;stroke:#1a1a1a;stroke-opacity:0.8;" x="144.387613" xlink:href="#mf262c86424" y="213.380491"/>
     <use style="fill:#ff0000;fill-opacity:0.8;stroke:#1a1a1a;stroke-opacity:0.8;" x="256.531917" xlink:href="#mf262c86424" y="159.316983"/>
     <use style="fill:#ff0000;fill-opacity:0.8;stroke:#1a1a1a;stroke-opacity:0.8;" x="180.32391" xlink:href="#mf262c86424" y="127.505437"/>
     <use style="fill:#ff0000;fill-opacity:0.8;stroke:#1a1a1a;stroke-opacity:0.8;" x="247.722898" xlink:href="#mf262c86424" y="121.947242"/>
     <use style="fill:#ff0000;fill-opacity:0.8;stroke:#1a1a1a;stroke-opacity:0.8;" x="166.33942" xlink:href="#mf262c86424" y="138.793517"/>
     <use style="fill:#ff0000;fill-opacity:0.8;stroke:#1a1a1a;stroke-opacity:0.8;" x="149.370989" xlink:href="#mf262c86424" y="194.172764"/>
     <use style="fill:#ff0000;fill-opacity:0.8;stroke:#1a1a1a;stroke-opacity:0.8;" x="151.740164" xlink:href="#mf262c86424" y="117.765776"/>
     <use style="fill:#ff0000;fill-opacity:0.8;stroke:#1a1a1a;stroke-opacity:0.8;" x="203.340638" xlink:href="#mf262c86424" y="112.156076"/>
     <use style="fill:#ff0000;fill-opacity:0.8;stroke:#1a1a1a;stroke-opacity:0.8;" x="191.987888" xlink:href="#mf262c86424" y="111.545904"/>
     <use style="fill:#ff0000;fill-opacity:0.8;stroke:#1a1a1a;stroke-opacity:0.8;" x="165.78193" xlink:href="#mf262c86424" y="133.987985"/>
     <use style="fill:#ff0000;fill-opacity:0.8;stroke:#1a1a1a;stroke-opacity:0.8;" x="137.831079" xlink:href="#mf262c86424" y="190.031086"/>
     <use style="fill:#ff0000;fill-opacity:0.8;stroke:#1a1a1a;stroke-opacity:0.8;" x="262.714911" xlink:href="#mf262c86424" y="169.366823"/>
     <use style="fill:#ff0000;fill-opacity:0.8;stroke:#1a1a1a;stroke-opacity:0.8;" x="270.23676" xlink:href="#mf262c86424" y="194.680244"/>
     <use style="fill:#ff0000;fill-opacity:0.8;stroke:#1a1a1a;stroke-opacity:0.8;" x="196.753892" xlink:href="#mf262c86424" y="97.796766"/>
     <use style="fill:#ff0000;fill-opacity:0.8;stroke:#1a1a1a;stroke-opacity:0.8;" x="178.545629" xlink:href="#mf262c86424" y="158.596979"/>
     <use style="fill:#ff0000;fill-opacity:0.8;stroke:#1a1a1a;stroke-opacity:0.8;" x="264.035253" xlink:href="#mf262c86424" y="176.86127"/>
     <use style="fill:#ff0000;fill-opacity:0.8;stroke:#1a1a1a;stroke-opacity:0.8;" x="300.961055" xlink:href="#mf262c86424" y="194.752111"/>
     <use style="fill:#ff0000;fill-opacity:0.8;stroke:#1a1a1a;stroke-opacity:0.8;" x="223.934439" xlink:href="#mf262c86424" y="123.801483"/>
     <use style="fill:#ff0000;fill-opacity:0.8;stroke:#1a1a1a;stroke-opacity:0.8;" x="279.02198" xlink:href="#mf262c86424" y="107.557435"/>
     <use style="fill:#ff0000;fill-opacity:0.8;stroke:#1a1a1a;stroke-opacity:0.8;" x="219.491508" xlink:href="#mf262c86424" y="121.045163"/>
     <use style="fill:#ff0000;fill-opacity:0.8;stroke:#1a1a1a;stroke-opacity:0.8;" x="148.595183" xlink:href="#mf262c86424" y="138.798139"/>
     <use style="fill:#ff0000;fill-opacity:0.8;stroke:#1a1a1a;stroke-opacity:0.8;" x="255.413245" xlink:href="#mf262c86424" y="166.447153"/>
     <use style="fill:#ff0000;fill-opacity:0.8;stroke:#1a1a1a;stroke-opacity:0.8;" x="138.604899" xlink:href="#mf262c86424" y="160.885693"/>
     <use style="fill:#ff0000;fill-opacity:0.8;stroke:#1a1a1a;stroke-opacity:0.8;" x="185.93096" xlink:href="#mf262c86424" y="116.556154"/>
     <use style="fill:#ff0000;fill-opacity:0.8;stroke:#1a1a1a;stroke-opacity:0.8;" x="243.882372" xlink:href="#mf262c86424" y="151.841962"/>
     <use style="fill:#ff0000;fill-opacity:0.8;stroke:#1a1a1a;stroke-opacity:0.8;" x="260.496159" xlink:href="#mf262c86424" y="147.240476"/>
     <use style="fill:#ff0000;fill-opacity:0.8;stroke:#1a1a1a;stroke-opacity:0.8;" x="131.931787" xlink:href="#mf262c86424" y="172.96214"/>
     <use style="fill:#ff0000;fill-opacity:0.8;stroke:#1a1a1a;stroke-opacity:0.8;" x="280.820465" xlink:href="#mf262c86424" y="150.008478"/>
     <use style="fill:#ff0000;fill-opacity:0.8;stroke:#1a1a1a;stroke-opacity:0.8;" x="254.783985" xlink:href="#mf262c86424" y="140.674183"/>
     <use style="fill:#ff0000;fill-opacity:0.8;stroke:#1a1a1a;stroke-opacity:0.8;" x="176.566212" xlink:href="#mf262c86424" y="114.061767"/>
     <use style="fill:#ff0000;fill-opacity:0.8;stroke:#1a1a1a;stroke-opacity:0.8;" x="119.172414" xlink:href="#mf262c86424" y="175.185466"/>
     <use style="fill:#ff0000;fill-opacity:0.8;stroke:#1a1a1a;stroke-opacity:0.8;" x="247.680195" xlink:href="#mf262c86424" y="82.900473"/>
    </g>
   </g>
   <g id="PathCollection_9">
    <defs>
     <path d="M 0 3 
C 0.795609 3 1.55874 2.683901 2.12132 2.12132 
C 2.683901 1.55874 3 0.795609 3 0 
C 3 -0.795609 2.683901 -1.55874 2.12132 -2.12132 
C 1.55874 -2.683901 0.795609 -3 0 -3 
C -0.795609 -3 -1.55874 -2.683901 -2.12132 -2.12132 
C -2.683901 -1.55874 -3 -0.795609 -3 0 
C -3 0.795609 -2.683901 1.55874 -2.12132 2.12132 
C -1.55874 2.683901 -0.795609 3 0 3 
z
" id="mec80168c69" style="stroke:#1a1a1a;stroke-opacity:0.8;"/>
    </defs>
    <g clip-path="url(#p92f8dbcbec)">
     <use style="fill:#0000ff;fill-opacity:0.8;stroke:#1a1a1a;stroke-opacity:0.8;" x="207.473748" xlink:href="#mec80168c69" y="150.770119"/>
     <use style="fill:#0000ff;fill-opacity:0.8;stroke:#1a1a1a;stroke-opacity:0.8;" x="356.709895" xlink:href="#mec80168c69" y="181.50611"/>
     <use style="fill:#0000ff;fill-opacity:0.8;stroke:#1a1a1a;stroke-opacity:0.8;" x="245.632396" xlink:href="#mec80168c69" y="213.144781"/>
     <use style="fill:#0000ff;fill-opacity:0.8;stroke:#1a1a1a;stroke-opacity:0.8;" x="333.596093" xlink:href="#mec80168c69" y="167.345723"/>
     <use style="fill:#0000ff;fill-opacity:0.8;stroke:#1a1a1a;stroke-opacity:0.8;" x="334.282999" xlink:href="#mec80168c69" y="163.618906"/>
     <use style="fill:#0000ff;fill-opacity:0.8;stroke:#1a1a1a;stroke-opacity:0.8;" x="351.887192" xlink:href="#mec80168c69" y="235.322935"/>
     <use style="fill:#0000ff;fill-opacity:0.8;stroke:#1a1a1a;stroke-opacity:0.8;" x="225.613798" xlink:href="#mec80168c69" y="209.206828"/>
     <use style="fill:#0000ff;fill-opacity:0.8;stroke:#1a1a1a;stroke-opacity:0.8;" x="256.592409" xlink:href="#mec80168c69" y="232.430891"/>
     <use style="fill:#0000ff;fill-opacity:0.8;stroke:#1a1a1a;stroke-opacity:0.8;" x="327.084149" xlink:href="#mec80168c69" y="209.257213"/>
     <use style="fill:#0000ff;fill-opacity:0.8;stroke:#1a1a1a;stroke-opacity:0.8;" x="348.915943" xlink:href="#mec80168c69" y="176.971518"/>
     <use style="fill:#0000ff;fill-opacity:0.8;stroke:#1a1a1a;stroke-opacity:0.8;" x="301.558352" xlink:href="#mec80168c69" y="213.487014"/>
     <use style="fill:#0000ff;fill-opacity:0.8;stroke:#1a1a1a;stroke-opacity:0.8;" x="337.653999" xlink:href="#mec80168c69" y="195.895017"/>
     <use style="fill:#0000ff;fill-opacity:0.8;stroke:#1a1a1a;stroke-opacity:0.8;" x="295.571621" xlink:href="#mec80168c69" y="222.115791"/>
     <use style="fill:#0000ff;fill-opacity:0.8;stroke:#1a1a1a;stroke-opacity:0.8;" x="189.714941" xlink:href="#mec80168c69" y="208.236944"/>
     <use style="fill:#0000ff;fill-opacity:0.8;stroke:#1a1a1a;stroke-opacity:0.8;" x="306.568526" xlink:href="#mec80168c69" y="248.441355"/>
     <use style="fill:#0000ff;fill-opacity:0.8;stroke:#1a1a1a;stroke-opacity:0.8;" x="233.115295" xlink:href="#mec80168c69" y="210.185804"/>
     <use style="fill:#0000ff;fill-opacity:0.8;stroke:#1a1a1a;stroke-opacity:0.8;" x="271.473114" xlink:href="#mec80168c69" y="249.215691"/>
     <use style="fill:#0000ff;fill-opacity:0.8;stroke:#1a1a1a;stroke-opacity:0.8;" x="299.686971" xlink:href="#mec80168c69" y="216.865227"/>
     <use style="fill:#0000ff;fill-opacity:0.8;stroke:#1a1a1a;stroke-opacity:0.8;" x="276.538658" xlink:href="#mec80168c69" y="242.307377"/>
     <use style="fill:#0000ff;fill-opacity:0.8;stroke:#1a1a1a;stroke-opacity:0.8;" x="287.044413" xlink:href="#mec80168c69" y="263.232"/>
     <use style="fill:#0000ff;fill-opacity:0.8;stroke:#1a1a1a;stroke-opacity:0.8;" x="216.674435" xlink:href="#mec80168c69" y="197.523408"/>
     <use style="fill:#0000ff;fill-opacity:0.8;stroke:#1a1a1a;stroke-opacity:0.8;" x="231.625996" xlink:href="#mec80168c69" y="204.771139"/>
     <use style="fill:#0000ff;fill-opacity:0.8;stroke:#1a1a1a;stroke-opacity:0.8;" x="212.609758" xlink:href="#mec80168c69" y="213.14164"/>
     <use style="fill:#0000ff;fill-opacity:0.8;stroke:#1a1a1a;stroke-opacity:0.8;" x="214.571655" xlink:href="#mec80168c69" y="176.958778"/>
     <use style="fill:#0000ff;fill-opacity:0.8;stroke:#1a1a1a;stroke-opacity:0.8;" x="199.779554" xlink:href="#mec80168c69" y="190.001128"/>
     <use style="fill:#0000ff;fill-opacity:0.8;stroke:#1a1a1a;stroke-opacity:0.8;" x="199.190847" xlink:href="#mec80168c69" y="152.788694"/>
     <use style="fill:#0000ff;fill-opacity:0.8;stroke:#1a1a1a;stroke-opacity:0.8;" x="316.365031" xlink:href="#mec80168c69" y="194.161788"/>
     <use style="fill:#0000ff;fill-opacity:0.8;stroke:#1a1a1a;stroke-opacity:0.8;" x="345.672937" xlink:href="#mec80168c69" y="203.203755"/>
     <use style="fill:#0000ff;fill-opacity:0.8;stroke:#1a1a1a;stroke-opacity:0.8;" x="213.497795" xlink:href="#mec80168c69" y="171.372198"/>
     <use style="fill:#0000ff;fill-opacity:0.8;stroke:#1a1a1a;stroke-opacity:0.8;" x="236.87014" xlink:href="#mec80168c69" y="243.532992"/>
     <use style="fill:#0000ff;fill-opacity:0.8;stroke:#1a1a1a;stroke-opacity:0.8;" x="258.859665" xlink:href="#mec80168c69" y="224.947331"/>
     <use style="fill:#0000ff;fill-opacity:0.8;stroke:#1a1a1a;stroke-opacity:0.8;" x="293.693735" xlink:href="#mec80168c69" y="234.539585"/>
     <use style="fill:#0000ff;fill-opacity:0.8;stroke:#1a1a1a;stroke-opacity:0.8;" x="354.953284" xlink:href="#mec80168c69" y="156.478784"/>
     <use style="fill:#0000ff;fill-opacity:0.8;stroke:#1a1a1a;stroke-opacity:0.8;" x="325.314844" xlink:href="#mec80168c69" y="222.852734"/>
     <use style="fill:#0000ff;fill-opacity:0.8;stroke:#1a1a1a;stroke-opacity:0.8;" x="268.662971" xlink:href="#mec80168c69" y="237.541518"/>
     <use style="fill:#0000ff;fill-opacity:0.8;stroke:#1a1a1a;stroke-opacity:0.8;" x="202.704893" xlink:href="#mec80168c69" y="190.989341"/>
     <use style="fill:#0000ff;fill-opacity:0.8;stroke:#1a1a1a;stroke-opacity:0.8;" x="333.154356" xlink:href="#mec80168c69" y="153.103259"/>
     <use style="fill:#0000ff;fill-opacity:0.8;stroke:#1a1a1a;stroke-opacity:0.8;" x="254.907452" xlink:href="#mec80168c69" y="232.121358"/>
     <use style="fill:#0000ff;fill-opacity:0.8;stroke:#1a1a1a;stroke-opacity:0.8;" x="269.192714" xlink:href="#mec80168c69" y="250.787944"/>
     <use style="fill:#0000ff;fill-opacity:0.8;stroke:#1a1a1a;stroke-opacity:0.8;" x="305.390857" xlink:href="#mec80168c69" y="248.281725"/>
     <use style="fill:#0000ff;fill-opacity:0.8;stroke:#1a1a1a;stroke-opacity:0.8;" x="345.801531" xlink:href="#mec80168c69" y="209.253627"/>
     <use style="fill:#0000ff;fill-opacity:0.8;stroke:#1a1a1a;stroke-opacity:0.8;" x="191.197228" xlink:href="#mec80168c69" y="151.642704"/>
     <use style="fill:#0000ff;fill-opacity:0.8;stroke:#1a1a1a;stroke-opacity:0.8;" x="227.502002" xlink:href="#mec80168c69" y="240.671339"/>
    </g>
   </g>
   <g id="matplotlib.axis_1">
    <g id="xtick_1">
     <g id="line2d_1">
      <defs>
       <path d="M 0 0 
L 0 3.5 
" id="m64166b3a5a" style="stroke:#000000;stroke-width:0.8;"/>
      </defs>
      <g>
       <use style="stroke:#000000;stroke-width:0.8;" x="58.88768" xlink:href="#m64166b3a5a" y="307.584"/>
      </g>
     </g>
     <g id="text_1">
      <!-- 3 -->
      <defs>
       <path d="M 10.59375 35.5 
L 73.1875 35.5 
L 73.1875 27.203125 
L 10.59375 27.203125 
z
" id="DejaVuSans-8722"/>
       <path d="M 40.578125 39.3125 
Q 47.65625 37.796875 51.625 33 
Q 55.609375 28.21875 55.609375 21.1875 
Q 55.609375 10.40625 48.1875 4.484375 
Q 40.765625 -1.421875 27.09375 -1.421875 
Q 22.515625 -1.421875 17.65625 -0.515625 
Q 12.796875 0.390625 7.625 2.203125 
L 7.625 11.71875 
Q 11.71875 9.328125 16.59375 8.109375 
Q 21.484375 6.890625 26.8125 6.890625 
Q 36.078125 6.890625 40.9375 10.546875 
Q 45.796875 14.203125 45.796875 21.1875 
Q 45.796875 27.640625 41.28125 31.265625 
Q 36.765625 34.90625 28.71875 34.90625 
L 20.21875 34.90625 
L 20.21875 43.015625 
L 29.109375 43.015625 
Q 36.375 43.015625 40.234375 45.921875 
Q 44.09375 48.828125 44.09375 54.296875 
Q 44.09375 59.90625 40.109375 62.90625 
Q 36.140625 65.921875 28.71875 65.921875 
Q 24.65625 65.921875 20.015625 65.03125 
Q 15.375 64.15625 9.8125 62.3125 
L 9.8125 71.09375 
Q 15.4375 72.65625 20.34375 73.4375 
Q 25.25 74.21875 29.59375 74.21875 
Q 40.828125 74.21875 47.359375 69.109375 
Q 53.90625 64.015625 53.90625 55.328125 
Q 53.90625 49.265625 50.4375 45.09375 
Q 46.96875 40.921875 40.578125 39.3125 
z
" id="DejaVuSans-51"/>
      </defs>
      <g transform="translate(51.516587 322.182437)scale(0.1 -0.1)">
       <use xlink:href="#DejaVuSans-8722"/>
       <use x="83.789062" xlink:href="#DejaVuSans-51"/>
      </g>
     </g>
    </g>
    <g id="xtick_2">
     <g id="line2d_2">
      <g>
       <use style="stroke:#000000;stroke-width:0.8;" x="120.460094" xlink:href="#m64166b3a5a" y="307.584"/>
      </g>
     </g>
     <g id="text_2">
      <!-- 2 -->
      <defs>
       <path d="M 19.1875 8.296875 
L 53.609375 8.296875 
L 53.609375 0 
L 7.328125 0 
L 7.328125 8.296875 
Q 12.9375 14.109375 22.625 23.890625 
Q 32.328125 33.6875 34.8125 36.53125 
Q 39.546875 41.84375 41.421875 45.53125 
Q 43.3125 49.21875 43.3125 52.78125 
Q 43.3125 58.59375 39.234375 62.25 
Q 35.15625 65.921875 28.609375 65.921875 
Q 23.96875 65.921875 18.8125 64.3125 
Q 13.671875 62.703125 7.8125 59.421875 
L 7.8125 69.390625 
Q 13.765625 71.78125 18.9375 73 
Q 24.125 74.21875 28.421875 74.21875 
Q 39.75 74.21875 46.484375 68.546875 
Q 53.21875 62.890625 53.21875 53.421875 
Q 53.21875 48.921875 51.53125 44.890625 
Q 49.859375 40.875 45.40625 35.40625 
Q 44.1875 33.984375 37.640625 27.21875 
Q 31.109375 20.453125 19.1875 8.296875 
z
" id="DejaVuSans-50"/>
      </defs>
      <g transform="translate(113.089001 322.182437)scale(0.1 -0.1)">
       <use xlink:href="#DejaVuSans-8722"/>
       <use x="83.789062" xlink:href="#DejaVuSans-50"/>
      </g>
     </g>
    </g>
    <g id="xtick_3">
     <g id="line2d_3">
      <g>
       <use style="stroke:#000000;stroke-width:0.8;" x="182.032508" xlink:href="#m64166b3a5a" y="307.584"/>
      </g>
     </g>
     <g id="text_3">
      <!-- 1 -->
      <defs>
       <path d="M 12.40625 8.296875 
L 28.515625 8.296875 
L 28.515625 63.921875 
L 10.984375 60.40625 
L 10.984375 69.390625 
L 28.421875 72.90625 
L 38.28125 72.90625 
L 38.28125 8.296875 
L 54.390625 8.296875 
L 54.390625 0 
L 12.40625 0 
z
" id="DejaVuSans-49"/>
      </defs>
      <g transform="translate(174.661414 322.182437)scale(0.1 -0.1)">
       <use xlink:href="#DejaVuSans-8722"/>
       <use x="83.789062" xlink:href="#DejaVuSans-49"/>
      </g>
     </g>
    </g>
    <g id="xtick_4">
     <g id="line2d_4">
      <g>
       <use style="stroke:#000000;stroke-width:0.8;" x="243.604922" xlink:href="#m64166b3a5a" y="307.584"/>
      </g>
     </g>
     <g id="text_4">
      <!-- 0 -->
      <defs>
       <path d="M 31.78125 66.40625 
Q 24.171875 66.40625 20.328125 58.90625 
Q 16.5 51.421875 16.5 36.375 
Q 16.5 21.390625 20.328125 13.890625 
Q 24.171875 6.390625 31.78125 6.390625 
Q 39.453125 6.390625 43.28125 13.890625 
Q 47.125 21.390625 47.125 36.375 
Q 47.125 51.421875 43.28125 58.90625 
Q 39.453125 66.40625 31.78125 66.40625 
z
M 31.78125 74.21875 
Q 44.046875 74.21875 50.515625 64.515625 
Q 56.984375 54.828125 56.984375 36.375 
Q 56.984375 17.96875 50.515625 8.265625 
Q 44.046875 -1.421875 31.78125 -1.421875 
Q 19.53125 -1.421875 13.0625 8.265625 
Q 6.59375 17.96875 6.59375 36.375 
Q 6.59375 54.828125 13.0625 64.515625 
Q 19.53125 74.21875 31.78125 74.21875 
z
" id="DejaVuSans-48"/>
      </defs>
      <g transform="translate(240.423672 322.182437)scale(0.1 -0.1)">
       <use xlink:href="#DejaVuSans-48"/>
      </g>
     </g>
    </g>
    <g id="xtick_5">
     <g id="line2d_5">
      <g>
       <use style="stroke:#000000;stroke-width:0.8;" x="305.177336" xlink:href="#m64166b3a5a" y="307.584"/>
      </g>
     </g>
     <g id="text_5">
      <!-- 1 -->
      <g transform="translate(301.996086 322.182437)scale(0.1 -0.1)">
       <use xlink:href="#DejaVuSans-49"/>
      </g>
     </g>
    </g>
    <g id="xtick_6">
     <g id="line2d_6">
      <g>
       <use style="stroke:#000000;stroke-width:0.8;" x="366.749749" xlink:href="#m64166b3a5a" y="307.584"/>
      </g>
     </g>
     <g id="text_6">
      <!-- 2 -->
      <g transform="translate(363.568499 322.182437)scale(0.1 -0.1)">
       <use xlink:href="#DejaVuSans-50"/>
      </g>
     </g>
    </g>
   </g>
   <g id="matplotlib.axis_2">
    <g id="ytick_1">
     <g id="line2d_7">
      <defs>
       <path d="M 0 0 
L -3.5 0 
" id="mfb75eb110a" style="stroke:#000000;stroke-width:0.8;"/>
      </defs>
      <g>
       <use style="stroke:#000000;stroke-width:0.8;" x="57.6" xlink:href="#mfb75eb110a" y="265.935172"/>
      </g>
     </g>
     <g id="text_7">
      <!-- 2 -->
      <g transform="translate(35.857813 269.734391)scale(0.1 -0.1)">
       <use xlink:href="#DejaVuSans-8722"/>
       <use x="83.789062" xlink:href="#DejaVuSans-50"/>
      </g>
     </g>
    </g>
    <g id="ytick_2">
     <g id="line2d_8">
      <g>
       <use style="stroke:#000000;stroke-width:0.8;" x="57.6" xlink:href="#mfb75eb110a" y="221.583172"/>
      </g>
     </g>
     <g id="text_8">
      <!-- 1 -->
      <g transform="translate(35.857813 225.382391)scale(0.1 -0.1)">
       <use xlink:href="#DejaVuSans-8722"/>
       <use x="83.789062" xlink:href="#DejaVuSans-49"/>
      </g>
     </g>
    </g>
    <g id="ytick_3">
     <g id="line2d_9">
      <g>
       <use style="stroke:#000000;stroke-width:0.8;" x="57.6" xlink:href="#mfb75eb110a" y="177.231172"/>
      </g>
     </g>
     <g id="text_9">
      <!-- 0 -->
      <g transform="translate(44.2375 181.030391)scale(0.1 -0.1)">
       <use xlink:href="#DejaVuSans-48"/>
      </g>
     </g>
    </g>
    <g id="ytick_4">
     <g id="line2d_10">
      <g>
       <use style="stroke:#000000;stroke-width:0.8;" x="57.6" xlink:href="#mfb75eb110a" y="132.879172"/>
      </g>
     </g>
     <g id="text_10">
      <!-- 1 -->
      <g transform="translate(44.2375 136.678391)scale(0.1 -0.1)">
       <use xlink:href="#DejaVuSans-49"/>
      </g>
     </g>
    </g>
    <g id="ytick_5">
     <g id="line2d_11">
      <g>
       <use style="stroke:#000000;stroke-width:0.8;" x="57.6" xlink:href="#mfb75eb110a" y="88.527172"/>
      </g>
     </g>
     <g id="text_11">
      <!-- 2 -->
      <g transform="translate(44.2375 92.326391)scale(0.1 -0.1)">
       <use xlink:href="#DejaVuSans-50"/>
      </g>
     </g>
    </g>
    <g id="ytick_6">
     <g id="line2d_12">
      <g>
       <use style="stroke:#000000;stroke-width:0.8;" x="57.6" xlink:href="#mfb75eb110a" y="44.175172"/>
      </g>
     </g>
     <g id="text_12">
      <!-- 3 -->
      <g transform="translate(44.2375 47.974391)scale(0.1 -0.1)">
       <use xlink:href="#DejaVuSans-51"/>
      </g>
     </g>
    </g>
   </g>
   <g id="LineCollection_1">
    <path clip-path="url(#p92f8dbcbec)" d="M 387.012414 41.472 
L 374.697931 50.3424 
L 374.697931 54.7776 
L 362.383448 63.648 
L 362.383448 68.0832 
L 350.068966 76.9536 
L 350.068966 81.3888 
L 337.754483 90.2592 
L 337.754483 94.6944 
L 325.44 103.5648 
L 325.44 108 
L 313.125517 116.8704 
L 313.125517 130.176 
L 306.968276 134.6112 
L 306.968276 143.4816 
L 300.811034 147.9168 
L 300.811034 152.352 
L 294.653793 156.7872 
L 300.811034 161.2224 
L 300.811034 178.9632 
L 306.968276 183.3984 
L 291.575172 194.4864 
L 285.417931 194.4864 
L 279.26069 198.9216 
L 273.103448 198.9216 
L 266.946207 203.3568 
L 263.867586 201.1392 
L 263.867586 196.704 
L 260.788966 194.4864 
L 254.631724 194.4864 
L 226.924138 174.528 
L 226.924138 152.352 
L 220.766897 147.9168 
L 220.766897 143.4816 
L 211.531034 136.8288 
L 205.373793 136.8288 
L 199.216552 132.3936 
L 193.05931 132.3936 
L 189.98069 134.6112 
L 189.98069 139.0464 
L 183.823448 143.4816 
L 183.823448 147.9168 
L 177.666207 152.352 
L 177.666207 156.7872 
L 171.508966 161.2224 
L 177.666207 165.6576 
L 171.508966 170.0928 
L 171.508966 174.528 
L 177.666207 178.9632 
L 165.351724 187.8336 
L 165.351724 192.2688 
L 171.508966 196.704 
L 171.508966 227.7504 
L 146.88 245.4912 
L 146.88 249.9264 
L 140.722759 254.3616 
L 140.722759 263.232 
L 122.251034 276.5376 
L 122.251034 280.9728 
L 103.77931 294.2784 
L 103.77931 298.7136 
L 91.464828 307.584 
L 91.464828 307.584 
" style="fill:none;stroke:#ffffff;"/>
   </g>
   <g id="patch_3">
    <path d="M 57.6 307.584 
L 57.6 41.472 
" style="fill:none;stroke:#000000;stroke-linecap:square;stroke-linejoin:miter;stroke-width:0.8;"/>
   </g>
   <g id="patch_4">
    <path d="M 414.72 307.584 
L 414.72 41.472 
" style="fill:none;stroke:#000000;stroke-linecap:square;stroke-linejoin:miter;stroke-width:0.8;"/>
   </g>
   <g id="patch_5">
    <path d="M 57.6 307.584 
L 414.72 307.584 
" style="fill:none;stroke:#000000;stroke-linecap:square;stroke-linejoin:miter;stroke-width:0.8;"/>
   </g>
   <g id="patch_6">
    <path d="M 57.6 41.472 
L 414.72 41.472 
" style="fill:none;stroke:#000000;stroke-linecap:square;stroke-linejoin:miter;stroke-width:0.8;"/>
   </g>
   <g id="text_13">
    <!-- Training Set -->
    <defs>
     <path d="M -0.296875 72.90625 
L 61.375 72.90625 
L 61.375 64.59375 
L 35.5 64.59375 
L 35.5 0 
L 25.59375 0 
L 25.59375 64.59375 
L -0.296875 64.59375 
z
" id="DejaVuSans-84"/>
     <path d="M 41.109375 46.296875 
Q 39.59375 47.171875 37.8125 47.578125 
Q 36.03125 48 33.890625 48 
Q 26.265625 48 22.1875 43.046875 
Q 18.109375 38.09375 18.109375 28.8125 
L 18.109375 0 
L 9.078125 0 
L 9.078125 54.6875 
L 18.109375 54.6875 
L 18.109375 46.1875 
Q 20.953125 51.171875 25.484375 53.578125 
Q 30.03125 56 36.53125 56 
Q 37.453125 56 38.578125 55.875 
Q 39.703125 55.765625 41.0625 55.515625 
z
" id="DejaVuSans-114"/>
     <path d="M 34.28125 27.484375 
Q 23.390625 27.484375 19.1875 25 
Q 14.984375 22.515625 14.984375 16.5 
Q 14.984375 11.71875 18.140625 8.90625 
Q 21.296875 6.109375 26.703125 6.109375 
Q 34.1875 6.109375 38.703125 11.40625 
Q 43.21875 16.703125 43.21875 25.484375 
L 43.21875 27.484375 
z
M 52.203125 31.203125 
L 52.203125 0 
L 43.21875 0 
L 43.21875 8.296875 
Q 40.140625 3.328125 35.546875 0.953125 
Q 30.953125 -1.421875 24.3125 -1.421875 
Q 15.921875 -1.421875 10.953125 3.296875 
Q 6 8.015625 6 15.921875 
Q 6 25.140625 12.171875 29.828125 
Q 18.359375 34.515625 30.609375 34.515625 
L 43.21875 34.515625 
L 43.21875 35.40625 
Q 43.21875 41.609375 39.140625 45 
Q 35.0625 48.390625 27.6875 48.390625 
Q 23 48.390625 18.546875 47.265625 
Q 14.109375 46.140625 10.015625 43.890625 
L 10.015625 52.203125 
Q 14.9375 54.109375 19.578125 55.046875 
Q 24.21875 56 28.609375 56 
Q 40.484375 56 46.34375 49.84375 
Q 52.203125 43.703125 52.203125 31.203125 
z
" id="DejaVuSans-97"/>
     <path d="M 9.421875 54.6875 
L 18.40625 54.6875 
L 18.40625 0 
L 9.421875 0 
z
M 9.421875 75.984375 
L 18.40625 75.984375 
L 18.40625 64.59375 
L 9.421875 64.59375 
z
" id="DejaVuSans-105"/>
     <path d="M 54.890625 33.015625 
L 54.890625 0 
L 45.90625 0 
L 45.90625 32.71875 
Q 45.90625 40.484375 42.875 44.328125 
Q 39.84375 48.1875 33.796875 48.1875 
Q 26.515625 48.1875 22.3125 43.546875 
Q 18.109375 38.921875 18.109375 30.90625 
L 18.109375 0 
L 9.078125 0 
L 9.078125 54.6875 
L 18.109375 54.6875 
L 18.109375 46.1875 
Q 21.34375 51.125 25.703125 53.5625 
Q 30.078125 56 35.796875 56 
Q 45.21875 56 50.046875 50.171875 
Q 54.890625 44.34375 54.890625 33.015625 
z
" id="DejaVuSans-110"/>
     <path d="M 45.40625 27.984375 
Q 45.40625 37.75 41.375 43.109375 
Q 37.359375 48.484375 30.078125 48.484375 
Q 22.859375 48.484375 18.828125 43.109375 
Q 14.796875 37.75 14.796875 27.984375 
Q 14.796875 18.265625 18.828125 12.890625 
Q 22.859375 7.515625 30.078125 7.515625 
Q 37.359375 7.515625 41.375 12.890625 
Q 45.40625 18.265625 45.40625 27.984375 
z
M 54.390625 6.78125 
Q 54.390625 -7.171875 48.1875 -13.984375 
Q 42 -20.796875 29.203125 -20.796875 
Q 24.46875 -20.796875 20.265625 -20.09375 
Q 16.0625 -19.390625 12.109375 -17.921875 
L 12.109375 -9.1875 
Q 16.0625 -11.328125 19.921875 -12.34375 
Q 23.78125 -13.375 27.78125 -13.375 
Q 36.625 -13.375 41.015625 -8.765625 
Q 45.40625 -4.15625 45.40625 5.171875 
L 45.40625 9.625 
Q 42.625 4.78125 38.28125 2.390625 
Q 33.9375 0 27.875 0 
Q 17.828125 0 11.671875 7.65625 
Q 5.515625 15.328125 5.515625 27.984375 
Q 5.515625 40.671875 11.671875 48.328125 
Q 17.828125 56 27.875 56 
Q 33.9375 56 38.28125 53.609375 
Q 42.625 51.21875 45.40625 46.390625 
L 45.40625 54.6875 
L 54.390625 54.6875 
z
" id="DejaVuSans-103"/>
     <path id="DejaVuSans-32"/>
     <path d="M 53.515625 70.515625 
L 53.515625 60.890625 
Q 47.90625 63.578125 42.921875 64.890625 
Q 37.9375 66.21875 33.296875 66.21875 
Q 25.25 66.21875 20.875 63.09375 
Q 16.5 59.96875 16.5 54.203125 
Q 16.5 49.359375 19.40625 46.890625 
Q 22.3125 44.4375 30.421875 42.921875 
L 36.375 41.703125 
Q 47.40625 39.59375 52.65625 34.296875 
Q 57.90625 29 57.90625 20.125 
Q 57.90625 9.515625 50.796875 4.046875 
Q 43.703125 -1.421875 29.984375 -1.421875 
Q 24.8125 -1.421875 18.96875 -0.25 
Q 13.140625 0.921875 6.890625 3.21875 
L 6.890625 13.375 
Q 12.890625 10.015625 18.65625 8.296875 
Q 24.421875 6.59375 29.984375 6.59375 
Q 38.421875 6.59375 43.015625 9.90625 
Q 47.609375 13.234375 47.609375 19.390625 
Q 47.609375 24.75 44.3125 27.78125 
Q 41.015625 30.8125 33.5 32.328125 
L 27.484375 33.5 
Q 16.453125 35.6875 11.515625 40.375 
Q 6.59375 45.0625 6.59375 53.421875 
Q 6.59375 63.09375 13.40625 68.65625 
Q 20.21875 74.21875 32.171875 74.21875 
Q 37.3125 74.21875 42.625 73.28125 
Q 47.953125 72.359375 53.515625 70.515625 
z
" id="DejaVuSans-83"/>
     <path d="M 56.203125 29.59375 
L 56.203125 25.203125 
L 14.890625 25.203125 
Q 15.484375 15.921875 20.484375 11.0625 
Q 25.484375 6.203125 34.421875 6.203125 
Q 39.59375 6.203125 44.453125 7.46875 
Q 49.3125 8.734375 54.109375 11.28125 
L 54.109375 2.78125 
Q 49.265625 0.734375 44.1875 -0.34375 
Q 39.109375 -1.421875 33.890625 -1.421875 
Q 20.796875 -1.421875 13.15625 6.1875 
Q 5.515625 13.8125 5.515625 26.8125 
Q 5.515625 40.234375 12.765625 48.109375 
Q 20.015625 56 32.328125 56 
Q 43.359375 56 49.78125 48.890625 
Q 56.203125 41.796875 56.203125 29.59375 
z
M 47.21875 32.234375 
Q 47.125 39.59375 43.09375 43.984375 
Q 39.0625 48.390625 32.421875 48.390625 
Q 24.90625 48.390625 20.390625 44.140625 
Q 15.875 39.890625 15.1875 32.171875 
z
" id="DejaVuSans-101"/>
     <path d="M 18.3125 70.21875 
L 18.3125 54.6875 
L 36.8125 54.6875 
L 36.8125 47.703125 
L 18.3125 47.703125 
L 18.3125 18.015625 
Q 18.3125 11.328125 20.140625 9.421875 
Q 21.96875 7.515625 27.59375 7.515625 
L 36.8125 7.515625 
L 36.8125 0 
L 27.59375 0 
Q 17.1875 0 13.234375 3.875 
Q 9.28125 7.765625 9.28125 18.015625 
L 9.28125 47.703125 
L 2.6875 47.703125 
L 2.6875 54.6875 
L 9.28125 54.6875 
L 9.28125 70.21875 
z
" id="DejaVuSans-116"/>
    </defs>
    <g transform="translate(199.857188 35.472)scale(0.12 -0.12)">
     <use xlink:href="#DejaVuSans-84"/>
     <use x="60.865234" xlink:href="#DejaVuSans-114"/>
     <use x="101.978516" xlink:href="#DejaVuSans-97"/>
     <use x="163.257812" xlink:href="#DejaVuSans-105"/>
     <use x="191.041016" xlink:href="#DejaVuSans-110"/>
     <use x="254.419922" xlink:href="#DejaVuSans-105"/>
     <use x="282.203125" xlink:href="#DejaVuSans-110"/>
     <use x="345.582031" xlink:href="#DejaVuSans-103"/>
     <use x="409.058594" xlink:href="#DejaVuSans-32"/>
     <use x="440.845703" xlink:href="#DejaVuSans-83"/>
     <use x="504.322266" xlink:href="#DejaVuSans-101"/>
     <use x="565.845703" xlink:href="#DejaVuSans-116"/>
    </g>
   </g>
   <g id="legend_1">
    <g id="patch_7">
     <path d="M 369.3575 78.82825 
L 407.72 78.82825 
Q 409.72 78.82825 409.72 76.82825 
L 409.72 48.472 
Q 409.72 46.472 407.72 46.472 
L 369.3575 46.472 
Q 367.3575 46.472 367.3575 48.472 
L 367.3575 76.82825 
Q 367.3575 78.82825 369.3575 78.82825 
z
" style="fill:#ffffff;opacity:0.8;stroke:#cccccc;stroke-linejoin:miter;"/>
    </g>
    <g id="PathCollection_10">
     <g>
      <use style="fill:#ff0000;fill-opacity:0.8;stroke:#1a1a1a;stroke-opacity:0.8;" x="381.3575" xlink:href="#mf262c86424" y="55.445437"/>
     </g>
    </g>
    <g id="text_14">
     <!-- 0 -->
     <g transform="translate(399.3575 58.070437)scale(0.1 -0.1)">
      <use xlink:href="#DejaVuSans-48"/>
     </g>
    </g>
    <g id="PathCollection_11">
     <g>
      <use style="fill:#0000ff;fill-opacity:0.8;stroke:#1a1a1a;stroke-opacity:0.8;" x="381.3575" xlink:href="#mec80168c69" y="70.123562"/>
     </g>
    </g>
    <g id="text_15">
     <!-- 1 -->
     <g transform="translate(399.3575 72.748562)scale(0.1 -0.1)">
      <use xlink:href="#DejaVuSans-49"/>
     </g>
    </g>
   </g>
  </g>
 </g>
 <defs>
  <clipPath id="p92f8dbcbec">
   <rect height="266.112" width="357.12" x="57.6" y="41.472"/>
  </clipPath>
 </defs>
</svg>
